{
date = "2013-04-04 10:47:01 +0000";
familyName = "Symbols";
featurePrefixes = (
{
automatic = 1;
code = "languagesystem DFLT dflt;\012";
name = Languagesystems;
}
);
fontMaster = (
{
alignmentZones = (
"{1280, 32}",
"{0, -32}"
);
ascender = 1536;
capHeight = 1280;
descender = "-256";
id = "9E59A49A-007A-404C-A74D-3DDF46CAEF34";
xHeight = 640;
}
);
glyphs = (
{
glyphname = unif700;
lastChange = "2013-04-19 13:41:27 +0000";
layers = (
{
layerId = "9E59A49A-007A-404C-A74D-3DDF46CAEF34";
name = Regular;
paths = (
{
closed = 1;
nodes = (
"1664 1280 LINE SMOOTH",
"1664 1344 OFFCURVE",
"1600 1408 OFFCURVE",
"1536 1408 CURVE SMOOTH",
"256 1408 LINE SMOOTH",
"192 1408 OFFCURVE",
"128 1344 OFFCURVE",
"128 1280 CURVE SMOOTH",
"128 0 LINE SMOOTH",
"128 -64 OFFCURVE",
"192 -128 OFFCURVE",
"256 -128 CURVE SMOOTH",
"1536 -128 LINE SMOOTH",
"1600 -128 OFFCURVE",
"1664 -64 OFFCURVE",
"1664 0 CURVE SMOOTH"
);
},
{
closed = 1;
nodes = (
"1024 0 LINE",
"960 0 LINE",
"960 320 LINE",
"832 320 LINE",
"832 384 LINE",
"960 384 LINE",
"960 384 OFFCURVE",
"1024 384 OFFCURVE",
"1024 320 CURVE"
);
},
{
closed = 1;
nodes = (
"768 384 LINE",
"768 384 OFFCURVE",
"768 320 OFFCURVE",
"768 320 CURVE",
"640 320 LINE",
"640 192 LINE",
"768 192 LINE",
"768 128 LINE",
"640 128 LINE",
"640 0 LINE",
"576 0 LINE",
"576 320 LINE",
"576 384 OFFCURVE",
"640 384 OFFCURVE",
"640 384 CURVE"
);
},
{
closed = 1;
nodes = (
"1280 384 OFFCURVE",
"1280 320 OFFCURVE",
"1280 320 CURVE SMOOTH",
"1280 320 OFFCURVE",
"1280 128 OFFCURVE",
"1280 64 CURVE SMOOTH",
"1280 64 OFFCURVE",
"1280 0 OFFCURVE",
"1216 0 CURVE SMOOTH",
"1216 0 OFFCURVE",
"1216 0 OFFCURVE",
"1152 0 CURVE SMOOTH",
"1088 0 OFFCURVE",
"1088 64 OFFCURVE",
"1088 64 CURVE SMOOTH",
"1088 320 LINE",
"1088 320 OFFCURVE",
"1088 384 OFFCURVE",
"1152 384 CURVE",
"1216 384 OFFCURVE",
"1152 384 OFFCURVE",
"1216 384 CURVE"
);
},
{
closed = 1;
nodes = (
"1216 320 LINE",
"1152 320 LINE",
"1152 64 LINE",
"1216 64 LINE"
);
},
{
closed = 1;
nodes = (
"1536 384 OFFCURVE",
"1536 320 OFFCURVE",
"1536 320 CURVE SMOOTH",
"1536 320 OFFCURVE",
"1536 128 OFFCURVE",
"1536 64 CURVE SMOOTH",
"1536 64 OFFCURVE",
"1536 0 OFFCURVE",
"1472 0 CURVE SMOOTH",
"1472 0 OFFCURVE",
"1472 0 OFFCURVE",
"1408 0 CURVE SMOOTH",
"1344 0 OFFCURVE",
"1344 64 OFFCURVE",
"1344 64 CURVE SMOOTH",
"1344 320 LINE",
"1344 320 OFFCURVE",
"1344 384 OFFCURVE",
"1408 384 CURVE",
"1472 384 OFFCURVE",
"1408 384 OFFCURVE",
"1472 384 CURVE"
);
},
{
closed = 1;
nodes = (
"1472 320 LINE",
"1408 320 LINE",
"1408 64 LINE",
"1472 64 LINE"
);
}
);
width = 1792;
}
);
unicode = F700;
},
{
glyphname = unif701;
lastChange = "2013-04-19 13:41:51 +0000";
layers = (
{
layerId = "9E59A49A-007A-404C-A74D-3DDF46CAEF34";
name = Regular;
paths = (
{
closed = 1;
nodes = (
"1664 1280 LINE SMOOTH",
"1664 1344 OFFCURVE",
"1600 1408 OFFCURVE",
"1536 1408 CURVE SMOOTH",
"256 1408 LINE SMOOTH",
"192 1408 OFFCURVE",
"128 1344 OFFCURVE",
"128 1280 CURVE SMOOTH",
"128 0 LINE SMOOTH",
"128 -64 OFFCURVE",
"192 -128 OFFCURVE",
"256 -128 CURVE SMOOTH",
"1536 -128 LINE SMOOTH",
"1600 -128 OFFCURVE",
"1664 -64 OFFCURVE",
"1664 0 CURVE SMOOTH"
);
},
{
closed = 1;
nodes = (
"1024 0 LINE",
"960 0 LINE",
"960 320 LINE",
"832 320 LINE",
"832 384 LINE",
"960 384 LINE",
"960 384 OFFCURVE",
"1024 384 OFFCURVE",
"1024 320 CURVE"
);
},
{
closed = 1;
nodes = (
"768 384 LINE",
"768 384 OFFCURVE",
"768 320 OFFCURVE",
"768 320 CURVE",
"640 320 LINE",
"640 192 LINE",
"768 192 LINE",
"768 128 LINE",
"640 128 LINE",
"640 0 LINE",
"576 0 LINE",
"576 320 LINE",
"576 384 OFFCURVE",
"640 384 OFFCURVE",
"640 384 CURVE"
);
},
{
closed = 1;
nodes = (
"1280 384 OFFCURVE",
"1280 320 OFFCURVE",
"1280 320 CURVE SMOOTH",
"1280 320 OFFCURVE",
"1280 128 OFFCURVE",
"1280 64 CURVE SMOOTH",
"1280 64 OFFCURVE",
"1280 0 OFFCURVE",
"1216 0 CURVE SMOOTH",
"1216 0 OFFCURVE",
"1216 0 OFFCURVE",
"1152 0 CURVE SMOOTH",
"1088 0 OFFCURVE",
"1088 64 OFFCURVE",
"1088 64 CURVE SMOOTH",
"1088 320 LINE",
"1088 320 OFFCURVE",
"1088 384 OFFCURVE",
"1152 384 CURVE",
"1216 384 OFFCURVE",
"1152 384 OFFCURVE",
"1216 384 CURVE"
);
},
{
closed = 1;
nodes = (
"1216 320 LINE",
"1152 320 LINE",
"1152 64 LINE",
"1216 64 LINE"
);
},
{
closed = 1;
nodes = (
"1472 384 OFFCURVE",
"1536 384 OFFCURVE",
"1536 384 CURVE SMOOTH",
"1536 384 OFFCURVE",
"1536 0 OFFCURVE",
"1536 0 CURVE SMOOTH",
"1472 0 LINE",
"1472 320 LINE"
);
}
);
width = 1792;
}
);
unicode = F701;
},
{
glyphname = unif702;
lastChange = "2013-04-19 13:43:41 +0000";
layers = (
{
layerId = "9E59A49A-007A-404C-A74D-3DDF46CAEF34";
name = Regular;
paths = (
{
closed = 1;
nodes = (
"1664 1280 LINE SMOOTH",
"1664 1344 OFFCURVE",
"1600 1408 OFFCURVE",
"1536 1408 CURVE SMOOTH",
"256 1408 LINE SMOOTH",
"192 1408 OFFCURVE",
"128 1344 OFFCURVE",
"128 1280 CURVE SMOOTH",
"128 0 LINE SMOOTH",
"128 -64 OFFCURVE",
"192 -128 OFFCURVE",
"256 -128 CURVE SMOOTH",
"1536 -128 LINE SMOOTH",
"1600 -128 OFFCURVE",
"1664 -64 OFFCURVE",
"1664 0 CURVE SMOOTH"
);
},
{
closed = 1;
nodes = (
"1024 0 LINE",
"960 0 LINE",
"960 320 LINE",
"832 320 LINE",
"832 384 LINE",
"960 384 LINE",
"960 384 OFFCURVE",
"1024 384 OFFCURVE",
"1024 320 CURVE"
);
},
{
closed = 1;
nodes = (
"768 384 LINE",
"768 384 OFFCURVE",
"768 320 OFFCURVE",
"768 320 CURVE",
"640 320 LINE",
"640 192 LINE",
"768 192 LINE",
"768 128 LINE",
"640 128 LINE",
"640 0 LINE",
"576 0 LINE",
"576 320 LINE",
"576 384 OFFCURVE",
"640 384 OFFCURVE",
"640 384 CURVE"
);
},
{
closed = 1;
nodes = (
"1280 384 OFFCURVE",
"1280 320 OFFCURVE",
"1280 320 CURVE SMOOTH",
"1280 320 OFFCURVE",
"1280 128 OFFCURVE",
"1280 64 CURVE SMOOTH",
"1280 64 OFFCURVE",
"1280 0 OFFCURVE",
"1216 0 CURVE SMOOTH",
"1216 0 OFFCURVE",
"1216 0 OFFCURVE",
"1152 0 CURVE SMOOTH",
"1088 0 OFFCURVE",
"1088 64 OFFCURVE",
"1088 64 CURVE SMOOTH",
"1088 320 LINE",
"1088 320 OFFCURVE",
"1088 384 OFFCURVE",
"1152 384 CURVE",
"1216 384 OFFCURVE",
"1152 384 OFFCURVE",
"1216 384 CURVE"
);
},
{
closed = 1;
nodes = (
"1216 320 LINE",
"1152 320 LINE",
"1152 64 LINE",
"1216 64 LINE"
);
},
{
closed = 1;
nodes = (
"1536 320 OFFCURVE",
"1536 320 OFFCURVE",
"1536 256 CURVE",
"1536 192 OFFCURVE",
"1408 64 OFFCURVE",
"1408 64 CURVE",
"1536 64 LINE",
"1536 0 LINE",
"1344 0 LINE",
"1344 64 LINE",
"1344 128 OFFCURVE",
"1472 192 OFFCURVE",
"1472 256 CURVE",
"1472 320 LINE",
"1408 320 LINE",
"1408 256 LINE",
"1344 256 LINE",
"1344 320 LINE",
"1344 320 OFFCURVE",
"1344 384 OFFCURVE",
"1408 384 CURVE",
"1472 384 OFFCURVE",
"1408 384 OFFCURVE",
"1472 384 CURVE SMOOTH",
"1536 384 OFFCURVE",
"1536 320 OFFCURVE",
"1536 320 CURVE"
);
}
);
width = 1792;
}
);
unicode = F702;
},
{
glyphname = unif703;
lastChange = "2013-04-19 13:43:52 +0000";
layers = (
{
layerId = "9E59A49A-007A-404C-A74D-3DDF46CAEF34";
name = Regular;
paths = (
{
closed = 1;
nodes = (
"1664 1280 LINE SMOOTH",
"1664 1344 OFFCURVE",
"1600 1408 OFFCURVE",
"1536 1408 CURVE SMOOTH",
"256 1408 LINE SMOOTH",
"192 1408 OFFCURVE",
"128 1344 OFFCURVE",
"128 1280 CURVE SMOOTH",
"128 0 LINE SMOOTH",
"128 -64 OFFCURVE",
"192 -128 OFFCURVE",
"256 -128 CURVE SMOOTH",
"1536 -128 LINE SMOOTH",
"1600 -128 OFFCURVE",
"1664 -64 OFFCURVE",
"1664 0 CURVE SMOOTH"
);
},
{
closed = 1;
nodes = (
"1024 0 LINE",
"960 0 LINE",
"960 320 LINE",
"832 320 LINE",
"832 384 LINE",
"960 384 LINE",
"960 384 OFFCURVE",
"1024 384 OFFCURVE",
"1024 320 CURVE"
);
},
{
closed = 1;
nodes = (
"768 384 LINE",
"768 384 OFFCURVE",
"768 320 OFFCURVE",
"768 320 CURVE",
"640 320 LINE",
"640 192 LINE",
"768 192 LINE",
"768 128 LINE",
"640 128 LINE",
"640 0 LINE",
"576 0 LINE",
"576 320 LINE",
"576 384 OFFCURVE",
"640 384 OFFCURVE",
"640 384 CURVE"
);
},
{
closed = 1;
nodes = (
"1280 384 OFFCURVE",
"1280 320 OFFCURVE",
"1280 320 CURVE SMOOTH",
"1280 320 OFFCURVE",
"1280 128 OFFCURVE",
"1280 64 CURVE SMOOTH",
"1280 64 OFFCURVE",
"1280 0 OFFCURVE",
"1216 0 CURVE SMOOTH",
"1216 0 OFFCURVE",
"1216 0 OFFCURVE",
"1152 0 CURVE SMOOTH",
"1088 0 OFFCURVE",
"1088 64 OFFCURVE",
"1088 64 CURVE SMOOTH",
"1088 320 LINE",
"1088 320 OFFCURVE",
"1088 384 OFFCURVE",
"1152 384 CURVE",
"1216 384 OFFCURVE",
"1152 384 OFFCURVE",
"1216 384 CURVE"
);
},
{
closed = 1;
nodes = (
"1216 320 LINE",
"1152 320 LINE",
"1152 64 LINE",
"1216 64 LINE"
);
},
{
closed = 1;
nodes = (
"1344 384 OFFCURVE",
"1408 384 OFFCURVE",
"1408 384 CURVE SMOOTH",
"1408 384 OFFCURVE",
"1408 384 OFFCURVE",
"1472 384 CURVE SMOOTH",
"1536 384 OFFCURVE",
"1536 320 OFFCURVE",
"1536 320 CURVE SMOOTH",
"1536 320 OFFCURVE",
"1536 288 OFFCURVE",
"1536 256 CURVE SMOOTH",
"1536 224 OFFCURVE",
"1504 224 OFFCURVE",
"1504 224 CURVE SMOOTH",
"1504 224 OFFCURVE",
"1536 224 OFFCURVE",
"1536 192 CURVE SMOOTH",
"1536 160 OFFCURVE",
"1536 128 OFFCURVE",
"1536 64 CURVE SMOOTH",
"1536 0 OFFCURVE",
"1472 0 OFFCURVE",
"1472 0 CURVE SMOOTH",
"1472 0 OFFCURVE",
"1472 0 OFFCURVE",
"1408 0 CURVE SMOOTH",
"1344 0 OFFCURVE",
"1344 64 OFFCURVE",
"1344 64 CURVE SMOOTH",
"1344 128 LINE",
"1408 128 LINE",
"1408 64 LINE",
"1472 64 LINE",
"1472 192 LINE",
"1408 192 LINE",
"1408 256 LINE",
"1472 256 LINE",
"1472 320 LINE",
"1344 320 LINE"
);
}
);
width = 1792;
}
);
unicode = F703;
},
{
glyphname = unif704;
lastChange = "2013-04-19 13:44:10 +0000";
layers = (
{
layerId = "9E59A49A-007A-404C-A74D-3DDF46CAEF34";
name = Regular;
paths = (
{
closed = 1;
nodes = (
"1664 1280 LINE SMOOTH",
"1664 1344 OFFCURVE",
"1600 1408 OFFCURVE",
"1536 1408 CURVE SMOOTH",
"256 1408 LINE SMOOTH",
"192 1408 OFFCURVE",
"128 1344 OFFCURVE",
"128 1280 CURVE SMOOTH",
"128 0 LINE SMOOTH",
"128 -64 OFFCURVE",
"192 -128 OFFCURVE",
"256 -128 CURVE SMOOTH",
"1536 -128 LINE SMOOTH",
"1600 -128 OFFCURVE",
"1664 -64 OFFCURVE",
"1664 0 CURVE SMOOTH"
);
},
{
closed = 1;
nodes = (
"1024 0 LINE",
"960 0 LINE",
"960 320 LINE",
"832 320 LINE",
"832 384 LINE",
"960 384 LINE",
"960 384 OFFCURVE",
"1024 384 OFFCURVE",
"1024 320 CURVE"
);
},
{
closed = 1;
nodes = (
"768 384 LINE",
"768 384 OFFCURVE",
"768 320 OFFCURVE",
"768 320 CURVE",
"640 320 LINE",
"640 192 LINE",
"768 192 LINE",
"768 128 LINE",
"640 128 LINE",
"640 0 LINE",
"576 0 LINE",
"576 320 LINE",
"576 384 OFFCURVE",
"640 384 OFFCURVE",
"640 384 CURVE"
);
},
{
closed = 1;
nodes = (
"1280 384 OFFCURVE",
"1280 320 OFFCURVE",
"1280 320 CURVE SMOOTH",
"1280 320 OFFCURVE",
"1280 128 OFFCURVE",
"1280 64 CURVE SMOOTH",
"1280 64 OFFCURVE",
"1280 0 OFFCURVE",
"1216 0 CURVE SMOOTH",
"1216 0 OFFCURVE",
"1216 0 OFFCURVE",
"1152 0 CURVE SMOOTH",
"1088 0 OFFCURVE",
"1088 64 OFFCURVE",
"1088 64 CURVE SMOOTH",
"1088 320 LINE",
"1088 320 OFFCURVE",
"1088 384 OFFCURVE",
"1152 384 CURVE",
"1216 384 OFFCURVE",
"1152 384 OFFCURVE",
"1216 384 CURVE"
);
},
{
closed = 1;
nodes = (
"1216 320 LINE",
"1152 320 LINE",
"1152 64 LINE",
"1216 64 LINE"
);
},
{
closed = 1;
nodes = (
"1408 128 OFFCURVE",
"1344 128 OFFCURVE",
"1344 192 CURVE",
"1344 256 OFFCURVE",
"1344 320 OFFCURVE",
"1344 384 CURVE",
"1408 384 LINE",
"1408 192 LINE",
"1472 192 LINE",
"1472 384 LINE",
"1536 384 LINE",
"1536 0 LINE",
"1472 0 LINE",
"1472 128 LINE",
"1408 128 LINE"
);
}
);
width = 1792;
}
);
unicode = F704;
},
{
glyphname = unif705;
lastChange = "2013-04-19 13:45:12 +0000";
layers = (
{
layerId = "9E59A49A-007A-404C-A74D-3DDF46CAEF34";
name = Regular;
paths = (
{
closed = 1;
nodes = (
"1664 1280 LINE SMOOTH",
"1664 1344 OFFCURVE",
"1600 1408 OFFCURVE",
"1536 1408 CURVE SMOOTH",
"256 1408 LINE SMOOTH",
"192 1408 OFFCURVE",
"128 1344 OFFCURVE",
"128 1280 CURVE SMOOTH",
"128 0 LINE SMOOTH",
"128 -64 OFFCURVE",
"192 -128 OFFCURVE",
"256 -128 CURVE SMOOTH",
"1536 -128 LINE SMOOTH",
"1600 -128 OFFCURVE",
"1664 -64 OFFCURVE",
"1664 0 CURVE SMOOTH"
);
},
{
closed = 1;
nodes = (
"1024 0 LINE",
"960 0 LINE",
"960 320 LINE",
"832 320 LINE",
"832 384 LINE",
"960 384 LINE",
"960 384 OFFCURVE",
"1024 384 OFFCURVE",
"1024 320 CURVE"
);
},
{
closed = 1;
nodes = (
"768 384 LINE",
"768 384 OFFCURVE",
"768 320 OFFCURVE",
"768 320 CURVE",
"640 320 LINE",
"640 192 LINE",
"768 192 LINE",
"768 128 LINE",
"640 128 LINE",
"640 0 LINE",
"576 0 LINE",
"576 320 LINE",
"576 384 OFFCURVE",
"640 384 OFFCURVE",
"640 384 CURVE"
);
},
{
closed = 1;
nodes = (
"1280 384 OFFCURVE",
"1280 320 OFFCURVE",
"1280 320 CURVE SMOOTH",
"1280 320 OFFCURVE",
"1280 128 OFFCURVE",
"1280 64 CURVE SMOOTH",
"1280 64 OFFCURVE",
"1280 0 OFFCURVE",
"1216 0 CURVE SMOOTH",
"1216 0 OFFCURVE",
"1216 0 OFFCURVE",
"1152 0 CURVE SMOOTH",
"1088 0 OFFCURVE",
"1088 64 OFFCURVE",
"1088 64 CURVE SMOOTH",
"1088 320 LINE",
"1088 320 OFFCURVE",
"1088 384 OFFCURVE",
"1152 384 CURVE",
"1216 384 OFFCURVE",
"1152 384 OFFCURVE",
"1216 384 CURVE"
);
},
{
closed = 1;
nodes = (
"1216 320 LINE",
"1152 320 LINE",
"1152 64 LINE",
"1216 64 LINE"
);
},
{
closed = 1;
nodes = (
"1536 384 LINE",
"1536 320 LINE",
"1408 320 LINE",
"1408 256 LINE",
"1440 256 OFFCURVE",
"1408 256 OFFCURVE",
"1472 256 CURVE",
"1536 256 OFFCURVE",
"1536 192 OFFCURVE",
"1536 192 CURVE SMOOTH",
"1536 192 OFFCURVE",
"1536 128 OFFCURVE",
"1536 64 CURVE SMOOTH",
"1536 0 OFFCURVE",
"1472 0 OFFCURVE",
"1472 0 CURVE SMOOTH",
"1472 0 OFFCURVE",
"1472 0 OFFCURVE",
"1408 0 CURVE SMOOTH",
"1344 0 OFFCURVE",
"1344 64 OFFCURVE",
"1344 64 CURVE SMOOTH",
"1344 128 LINE",
"1408 128 LINE",
"1408 64 LINE",
"1472 64 LINE",
"1472 192 LINE",
"1344 192 LINE",
"1344 384 LINE"
);
}
);
width = 1792;
}
);
unicode = F705;
},
{
glyphname = unif706;
lastChange = "2013-04-19 13:45:28 +0000";
layers = (
{
layerId = "9E59A49A-007A-404C-A74D-3DDF46CAEF34";
name = Regular;
paths = (
{
closed = 1;
nodes = (
"1664 1280 LINE SMOOTH",
"1664 1344 OFFCURVE",
"1600 1408 OFFCURVE",
"1536 1408 CURVE SMOOTH",
"256 1408 LINE SMOOTH",
"192 1408 OFFCURVE",
"128 1344 OFFCURVE",
"128 1280 CURVE SMOOTH",
"128 0 LINE SMOOTH",
"128 -64 OFFCURVE",
"192 -128 OFFCURVE",
"256 -128 CURVE SMOOTH",
"1536 -128 LINE SMOOTH",
"1600 -128 OFFCURVE",
"1664 -64 OFFCURVE",
"1664 0 CURVE SMOOTH"
);
},
{
closed = 1;
nodes = (
"1024 0 LINE",
"960 0 LINE",
"960 320 LINE",
"832 320 LINE",
"832 384 LINE",
"960 384 LINE",
"960 384 OFFCURVE",
"1024 384 OFFCURVE",
"1024 320 CURVE"
);
},
{
closed = 1;
nodes = (
"1536 320 LINE",
"1408 320 LINE",
"1408 256 LINE",
"1472 256 LINE SMOOTH",
"1472 256 OFFCURVE",
"1536 256 OFFCURVE",
"1536 192 CURVE SMOOTH",
"1536 128 OFFCURVE",
"1536 64 OFFCURVE",
"1536 64 CURVE SMOOTH",
"1536 64 OFFCURVE",
"1536 0 OFFCURVE",
"1472 0 CURVE SMOOTH",
"1408 0 OFFCURVE",
"1408 0 OFFCURVE",
"1408 0 CURVE SMOOTH",
"1408 0 OFFCURVE",
"1344 0 OFFCURVE",
"1344 64 CURVE SMOOTH",
"1344 128 OFFCURVE",
"1344 320 OFFCURVE",
"1344 320 CURVE SMOOTH",
"1344 320 OFFCURVE",
"1344 384 OFFCURVE",
"1408 384 CURVE",
"1472 384 OFFCURVE",
"1504 384 OFFCURVE",
"1536 384 CURVE"
);
},
{
closed = 1;
nodes = (
"1440 192 OFFCURVE",
"1472 192 OFFCURVE",
"1472 192 CURVE",
"1472 64 LINE",
"1408 64 LINE",
"1408 192 LINE"
);
},
{
closed = 1;
nodes = (
"768 384 LINE",
"768 384 OFFCURVE",
"768 320 OFFCURVE",
"768 320 CURVE",
"640 320 LINE",
"640 192 LINE",
"768 192 LINE",
"768 128 LINE",
"640 128 LINE",
"640 0 LINE",
"576 0 LINE",
"576 320 LINE",
"576 384 OFFCURVE",
"640 384 OFFCURVE",
"640 384 CURVE"
);
},
{
closed = 1;
nodes = (
"1280 384 OFFCURVE",
"1280 320 OFFCURVE",
"1280 320 CURVE SMOOTH",
"1280 320 OFFCURVE",
"1280 128 OFFCURVE",
"1280 64 CURVE SMOOTH",
"1280 64 OFFCURVE",
"1280 0 OFFCURVE",
"1216 0 CURVE SMOOTH",
"1216 0 OFFCURVE",
"1216 0 OFFCURVE",
"1152 0 CURVE SMOOTH",
"1088 0 OFFCURVE",
"1088 64 OFFCURVE",
"1088 64 CURVE SMOOTH",
"1088 320 LINE",
"1088 320 OFFCURVE",
"1088 384 OFFCURVE",
"1152 384 CURVE",
"1216 384 OFFCURVE",
"1152 384 OFFCURVE",
"1216 384 CURVE"
);
},
{
closed = 1;
nodes = (
"1216 320 LINE",
"1152 320 LINE",
"1152 64 LINE",
"1216 64 LINE"
);
}
);
width = 1792;
}
);
unicode = F706;
},
{
glyphname = unif707;
lastChange = "2013-04-19 13:45:35 +0000";
layers = (
{
layerId = "9E59A49A-007A-404C-A74D-3DDF46CAEF34";
name = Regular;
paths = (
{
closed = 1;
nodes = (
"1664 1280 LINE SMOOTH",
"1664 1344 OFFCURVE",
"1600 1408 OFFCURVE",
"1536 1408 CURVE SMOOTH",
"256 1408 LINE SMOOTH",
"192 1408 OFFCURVE",
"128 1344 OFFCURVE",
"128 1280 CURVE SMOOTH",
"128 0 LINE SMOOTH",
"128 -64 OFFCURVE",
"192 -128 OFFCURVE",
"256 -128 CURVE SMOOTH",
"1536 -128 LINE SMOOTH",
"1600 -128 OFFCURVE",
"1664 -64 OFFCURVE",
"1664 0 CURVE SMOOTH"
);
},
{
closed = 1;
nodes = (
"1024 0 LINE",
"960 0 LINE",
"960 320 LINE",
"832 320 LINE",
"832 384 LINE",
"960 384 LINE",
"960 384 OFFCURVE",
"1024 384 OFFCURVE",
"1024 320 CURVE"
);
},
{
closed = 1;
nodes = (
"1536 0 LINE",
"1472 0 LINE",
"1472 320 LINE",
"1344 320 LINE",
"1344 384 LINE",
"1472 384 LINE",
"1472 384 OFFCURVE",
"1536 384 OFFCURVE",
"1536 320 CURVE"
);
},
{
closed = 1;
nodes = (
"768 384 LINE",
"768 384 OFFCURVE",
"768 320 OFFCURVE",
"768 320 CURVE",
"640 320 LINE",
"640 192 LINE",
"768 192 LINE",
"768 128 LINE",
"640 128 LINE",
"640 0 LINE",
"576 0 LINE",
"576 320 LINE",
"576 384 OFFCURVE",
"640 384 OFFCURVE",
"640 384 CURVE"
);
},
{
closed = 1;
nodes = (
"1280 384 OFFCURVE",
"1280 320 OFFCURVE",
"1280 320 CURVE SMOOTH",
"1280 320 OFFCURVE",
"1280 128 OFFCURVE",
"1280 64 CURVE SMOOTH",
"1280 64 OFFCURVE",
"1280 0 OFFCURVE",
"1216 0 CURVE SMOOTH",
"1216 0 OFFCURVE",
"1216 0 OFFCURVE",
"1152 0 CURVE SMOOTH",
"1088 0 OFFCURVE",
"1088 64 OFFCURVE",
"1088 64 CURVE SMOOTH",
"1088 320 LINE",
"1088 320 OFFCURVE",
"1088 384 OFFCURVE",
"1152 384 CURVE",
"1216 384 OFFCURVE",
"1152 384 OFFCURVE",
"1216 384 CURVE"
);
},
{
closed = 1;
nodes = (
"1216 320 LINE",
"1152 320 LINE",
"1152 64 LINE",
"1216 64 LINE"
);
}
);
width = 1792;
}
);
unicode = F707;
},
{
glyphname = unif708;
lastChange = "2013-04-19 13:45:49 +0000";
layers = (
{
layerId = "9E59A49A-007A-404C-A74D-3DDF46CAEF34";
name = Regular;
paths = (
{
closed = 1;
nodes = (
"1664 1280 LINE SMOOTH",
"1664 1344 OFFCURVE",
"1600 1408 OFFCURVE",
"1536 1408 CURVE SMOOTH",
"256 1408 LINE SMOOTH",
"192 1408 OFFCURVE",
"128 1344 OFFCURVE",
"128 1280 CURVE SMOOTH",
"128 0 LINE SMOOTH",
"128 -64 OFFCURVE",
"192 -128 OFFCURVE",
"256 -128 CURVE SMOOTH",
"1536 -128 LINE SMOOTH",
"1600 -128 OFFCURVE",
"1664 -64 OFFCURVE",
"1664 0 CURVE SMOOTH"
);
},
{
closed = 1;
nodes = (
"1024 0 LINE",
"960 0 LINE",
"960 320 LINE",
"832 320 LINE",
"832 384 LINE",
"960 384 LINE",
"960 384 OFFCURVE",
"1024 384 OFFCURVE",
"1024 320 CURVE"
);
},
{
closed = 1;
nodes = (
"1536 288 OFFCURVE",
"1536 288 OFFCURVE",
"1536 256 CURVE",
"1536 224 OFFCURVE",
"1504 224 OFFCURVE",
"1504 224 CURVE SMOOTH",
"1504 224 OFFCURVE",
"1536 224 OFFCURVE",
"1536 192 CURVE SMOOTH",
"1536 160 OFFCURVE",
"1536 128 OFFCURVE",
"1536 64 CURVE SMOOTH",
"1536 0 OFFCURVE",
"1472 0 OFFCURVE",
"1472 0 CURVE SMOOTH",
"1472 0 OFFCURVE",
"1472 0 OFFCURVE",
"1408 0 CURVE SMOOTH",
"1344 0 OFFCURVE",
"1344 64 OFFCURVE",
"1344 64 CURVE SMOOTH",
"1344 64 OFFCURVE",
"1344 160 OFFCURVE",
"1344 192 CURVE SMOOTH",
"1344 224 OFFCURVE",
"1376 224 OFFCURVE",
"1376 224 CURVE SMOOTH",
"1376 224 OFFCURVE",
"1344 224 OFFCURVE",
"1344 256 CURVE SMOOTH",
"1344 320 LINE",
"1344 384 OFFCURVE",
"1408 384 OFFCURVE",
"1408 384 CURVE SMOOTH",
"1408 384 OFFCURVE",
"1408 384 OFFCURVE",
"1472 384 CURVE SMOOTH",
"1536 384 OFFCURVE",
"1536 320 OFFCURVE",
"1536 320 CURVE"
);
},
{
closed = 1;
nodes = (
"1472 320 LINE",
"1472 256 LINE",
"1408 256 LINE",
"1408 320 LINE"
);
},
{
closed = 1;
nodes = (
"1472 192 LINE",
"1472 64 LINE",
"1408 64 LINE",
"1408 192 LINE"
);
},
{
closed = 1;
nodes = (
"768 384 LINE",
"768 384 OFFCURVE",
"768 320 OFFCURVE",
"768 320 CURVE",
"640 320 LINE",
"640 192 LINE",
"768 192 LINE",
"768 128 LINE",
"640 128 LINE",
"640 0 LINE",
"576 0 LINE",
"576 320 LINE",
"576 384 OFFCURVE",
"640 384 OFFCURVE",
"640 384 CURVE"
);
},
{
closed = 1;
nodes = (
"1280 384 OFFCURVE",
"1280 320 OFFCURVE",
"1280 320 CURVE SMOOTH",
"1280 320 OFFCURVE",
"1280 128 OFFCURVE",
"1280 64 CURVE SMOOTH",
"1280 64 OFFCURVE",
"1280 0 OFFCURVE",
"1216 0 CURVE SMOOTH",
"1216 0 OFFCURVE",
"1216 0 OFFCURVE",
"1152 0 CURVE SMOOTH",
"1088 0 OFFCURVE",
"1088 64 OFFCURVE",
"1088 64 CURVE SMOOTH",
"1088 320 LINE",
"1088 320 OFFCURVE",
"1088 384 OFFCURVE",
"1152 384 CURVE",
"1216 384 OFFCURVE",
"1152 384 OFFCURVE",
"1216 384 CURVE"
);
},
{
closed = 1;
nodes = (
"1216 320 LINE",
"1152 320 LINE",
"1152 64 LINE",
"1216 64 LINE"
);
}
);
width = 1792;
}
);
unicode = F708;
},
{
glyphname = unif709;
lastChange = "2013-04-19 13:45:58 +0000";
layers = (
{
layerId = "9E59A49A-007A-404C-A74D-3DDF46CAEF34";
name = Regular;
paths = (
{
closed = 1;
nodes = (
"1664 1280 LINE SMOOTH",
"1664 1344 OFFCURVE",
"1600 1408 OFFCURVE",
"1536 1408 CURVE SMOOTH",
"256 1408 LINE SMOOTH",
"192 1408 OFFCURVE",
"128 1344 OFFCURVE",
"128 1280 CURVE SMOOTH",
"128 0 LINE SMOOTH",
"128 -64 OFFCURVE",
"192 -128 OFFCURVE",
"256 -128 CURVE SMOOTH",
"1536 -128 LINE SMOOTH",
"1600 -128 OFFCURVE",
"1664 -64 OFFCURVE",
"1664 0 CURVE SMOOTH"
);
},
{
closed = 1;
nodes = (
"1024 0 LINE",
"960 0 LINE",
"960 320 LINE",
"832 320 LINE",
"832 384 LINE",
"960 384 LINE",
"960 384 OFFCURVE",
"1024 384 OFFCURVE",
"1024 320 CURVE"
);
},
{
closed = 1;
nodes = (
"1344 64 LINE",
"1472 64 LINE",
"1472 128 LINE",
"1408 128 LINE SMOOTH",
"1408 128 OFFCURVE",
"1344 128 OFFCURVE",
"1344 192 CURVE SMOOTH",
"1344 256 OFFCURVE",
"1344 320 OFFCURVE",
"1344 320 CURVE SMOOTH",
"1344 320 OFFCURVE",
"1344 384 OFFCURVE",
"1408 384 CURVE SMOOTH",
"1472 384 OFFCURVE",
"1472 384 OFFCURVE",
"1472 384 CURVE SMOOTH",
"1472 384 OFFCURVE",
"1536 384 OFFCURVE",
"1536 320 CURVE SMOOTH",
"1536 256 OFFCURVE",
"1536 64 OFFCURVE",
"1536 64 CURVE SMOOTH",
"1536 64 OFFCURVE",
"1536 0 OFFCURVE",
"1472 0 CURVE",
"1408 0 OFFCURVE",
"1376 0 OFFCURVE",
"1344 0 CURVE"
);
},
{
closed = 1;
nodes = (
"1440 192 OFFCURVE",
"1408 192 OFFCURVE",
"1408 192 CURVE",
"1408 320 LINE",
"1472 320 LINE",
"1472 192 LINE"
);
},
{
closed = 1;
nodes = (
"768 384 LINE",
"768 384 OFFCURVE",
"768 320 OFFCURVE",
"768 320 CURVE",
"640 320 LINE",
"640 192 LINE",
"768 192 LINE",
"768 128 LINE",
"640 128 LINE",
"640 0 LINE",
"576 0 LINE",
"576 320 LINE",
"576 384 OFFCURVE",
"640 384 OFFCURVE",
"640 384 CURVE"
);
},
{
closed = 1;
nodes = (
"1280 384 OFFCURVE",
"1280 320 OFFCURVE",
"1280 320 CURVE SMOOTH",
"1280 320 OFFCURVE",
"1280 128 OFFCURVE",
"1280 64 CURVE SMOOTH",
"1280 64 OFFCURVE",
"1280 0 OFFCURVE",
"1216 0 CURVE SMOOTH",
"1216 0 OFFCURVE",
"1216 0 OFFCURVE",
"1152 0 CURVE SMOOTH",
"1088 0 OFFCURVE",
"1088 64 OFFCURVE",
"1088 64 CURVE SMOOTH",
"1088 320 LINE",
"1088 320 OFFCURVE",
"1088 384 OFFCURVE",
"1152 384 CURVE",
"1216 384 OFFCURVE",
"1152 384 OFFCURVE",
"1216 384 CURVE"
);
},
{
closed = 1;
nodes = (
"1216 320 LINE",
"1152 320 LINE",
"1152 64 LINE",
"1216 64 LINE"
);
}
);
width = 1792;
}
);
unicode = F709;
},
{
glyphname = unif70a;
lastChange = "2013-04-19 13:46:09 +0000";
layers = (
{
layerId = "9E59A49A-007A-404C-A74D-3DDF46CAEF34";
name = Regular;
paths = (
{
closed = 1;
nodes = (
"1664 1280 LINE SMOOTH",
"1664 1344 OFFCURVE",
"1600 1408 OFFCURVE",
"1536 1408 CURVE SMOOTH",
"256 1408 LINE SMOOTH",
"192 1408 OFFCURVE",
"128 1344 OFFCURVE",
"128 1280 CURVE SMOOTH",
"128 0 LINE SMOOTH",
"128 -64 OFFCURVE",
"192 -128 OFFCURVE",
"256 -128 CURVE SMOOTH",
"1536 -128 LINE SMOOTH",
"1600 -128 OFFCURVE",
"1664 -64 OFFCURVE",
"1664 0 CURVE SMOOTH"
);
},
{
closed = 1;
nodes = (
"1024 0 LINE",
"960 0 LINE",
"960 320 LINE",
"832 320 LINE",
"832 384 LINE",
"960 384 LINE",
"960 384 OFFCURVE",
"1024 384 OFFCURVE",
"1024 320 CURVE"
);
},
{
closed = 1;
nodes = (
"1344 96 OFFCURVE",
"1344 256 OFFCURVE",
"1344 320 CURVE",
"1344 384 OFFCURVE",
"1408 384 OFFCURVE",
"1408 384 CURVE SMOOTH",
"1408 384 OFFCURVE",
"1408 384 OFFCURVE",
"1472 384 CURVE SMOOTH",
"1536 384 OFFCURVE",
"1536 320 OFFCURVE",
"1536 320 CURVE SMOOTH",
"1536 0 LINE",
"1472 0 LINE",
"1472 128 LINE",
"1408 128 LINE",
"1408 0 LINE",
"1344 0 LINE"
);
},
{
closed = 1;
nodes = (
"1440 320 OFFCURVE",
"1472 320 OFFCURVE",
"1472 320 CURVE",
"1472 192 LINE",
"1408 192 LINE",
"1408 320 LINE"
);
},
{
closed = 1;
nodes = (
"768 384 LINE",
"768 384 OFFCURVE",
"768 320 OFFCURVE",
"768 320 CURVE",
"640 320 LINE",
"640 192 LINE",
"768 192 LINE",
"768 128 LINE",
"640 128 LINE",
"640 0 LINE",
"576 0 LINE",
"576 320 LINE",
"576 384 OFFCURVE",
"640 384 OFFCURVE",
"640 384 CURVE"
);
},
{
closed = 1;
nodes = (
"1280 384 OFFCURVE",
"1280 320 OFFCURVE",
"1280 320 CURVE SMOOTH",
"1280 320 OFFCURVE",
"1280 128 OFFCURVE",
"1280 64 CURVE SMOOTH",
"1280 64 OFFCURVE",
"1280 0 OFFCURVE",
"1216 0 CURVE SMOOTH",
"1216 0 OFFCURVE",
"1216 0 OFFCURVE",
"1152 0 CURVE SMOOTH",
"1088 0 OFFCURVE",
"1088 64 OFFCURVE",
"1088 64 CURVE SMOOTH",
"1088 320 LINE",
"1088 320 OFFCURVE",
"1088 384 OFFCURVE",
"1152 384 CURVE",
"1216 384 OFFCURVE",
"1152 384 OFFCURVE",
"1216 384 CURVE"
);
},
{
closed = 1;
nodes = (
"1216 320 LINE",
"1152 320 LINE",
"1152 64 LINE",
"1216 64 LINE"
);
}
);
width = 1792;
}
);
unicode = F70A;
},
{
glyphname = unif70b;
lastChange = "2013-04-19 13:46:17 +0000";
layers = (
{
layerId = "9E59A49A-007A-404C-A74D-3DDF46CAEF34";
name = Regular;
paths = (
{
closed = 1;
nodes = (
"1664 1280 LINE SMOOTH",
"1664 1344 OFFCURVE",
"1600 1408 OFFCURVE",
"1536 1408 CURVE SMOOTH",
"256 1408 LINE SMOOTH",
"192 1408 OFFCURVE",
"128 1344 OFFCURVE",
"128 1280 CURVE SMOOTH",
"128 0 LINE SMOOTH",
"128 -64 OFFCURVE",
"192 -128 OFFCURVE",
"256 -128 CURVE SMOOTH",
"1536 -128 LINE SMOOTH",
"1600 -128 OFFCURVE",
"1664 -64 OFFCURVE",
"1664 0 CURVE SMOOTH"
);
},
{
closed = 1;
nodes = (
"1024 0 LINE",
"960 0 LINE",
"960 320 LINE",
"832 320 LINE",
"832 384 LINE",
"960 384 LINE",
"960 384 OFFCURVE",
"1024 384 OFFCURVE",
"1024 320 CURVE"
);
},
{
closed = 1;
nodes = (
"1376 384 OFFCURVE",
"1408 384 OFFCURVE",
"1472 384 CURVE",
"1536 384 OFFCURVE",
"1536 320 OFFCURVE",
"1536 320 CURVE SMOOTH",
"1536 320 OFFCURVE",
"1536 288 OFFCURVE",
"1536 256 CURVE SMOOTH",
"1536 224 OFFCURVE",
"1504 224 OFFCURVE",
"1504 224 CURVE SMOOTH",
"1504 224 OFFCURVE",
"1536 224 OFFCURVE",
"1536 192 CURVE SMOOTH",
"1536 160 OFFCURVE",
"1536 128 OFFCURVE",
"1536 64 CURVE SMOOTH",
"1536 0 OFFCURVE",
"1472 0 OFFCURVE",
"1472 0 CURVE SMOOTH",
"1344 0 LINE",
"1344 384 LINE"
);
},
{
closed = 1;
nodes = (
"1472 320 LINE",
"1472 288 OFFCURVE",
"1472 256 OFFCURVE",
"1472 256 CURVE",
"1408 256 LINE",
"1408 320 LINE"
);
},
{
closed = 1;
nodes = (
"1472 64 LINE",
"1472 192 LINE",
"1408 192 LINE",
"1408 64 LINE"
);
},
{
closed = 1;
nodes = (
"768 384 LINE",
"768 384 OFFCURVE",
"768 320 OFFCURVE",
"768 320 CURVE",
"640 320 LINE",
"640 192 LINE",
"768 192 LINE",
"768 128 LINE",
"640 128 LINE",
"640 0 LINE",
"576 0 LINE",
"576 320 LINE",
"576 384 OFFCURVE",
"640 384 OFFCURVE",
"640 384 CURVE"
);
},
{
closed = 1;
nodes = (
"1280 384 OFFCURVE",
"1280 320 OFFCURVE",
"1280 320 CURVE SMOOTH",
"1280 320 OFFCURVE",
"1280 128 OFFCURVE",
"1280 64 CURVE SMOOTH",
"1280 64 OFFCURVE",
"1280 0 OFFCURVE",
"1216 0 CURVE SMOOTH",
"1216 0 OFFCURVE",
"1216 0 OFFCURVE",
"1152 0 CURVE SMOOTH",
"1088 0 OFFCURVE",
"1088 64 OFFCURVE",
"1088 64 CURVE SMOOTH",
"1088 320 LINE",
"1088 320 OFFCURVE",
"1088 384 OFFCURVE",
"1152 384 CURVE",
"1216 384 OFFCURVE",
"1152 384 OFFCURVE",
"1216 384 CURVE"
);
},
{
closed = 1;
nodes = (
"1216 320 LINE",
"1152 320 LINE",
"1152 64 LINE",
"1216 64 LINE"
);
}
);
width = 1792;
}
);
unicode = F70B;
},
{
glyphname = unif70c;
lastChange = "2013-04-19 13:46:26 +0000";
layers = (
{
layerId = "9E59A49A-007A-404C-A74D-3DDF46CAEF34";
name = Regular;
paths = (
{
closed = 1;
nodes = (
"1664 1280 LINE SMOOTH",
"1664 1344 OFFCURVE",
"1600 1408 OFFCURVE",
"1536 1408 CURVE SMOOTH",
"256 1408 LINE SMOOTH",
"192 1408 OFFCURVE",
"128 1344 OFFCURVE",
"128 1280 CURVE SMOOTH",
"128 0 LINE SMOOTH",
"128 -64 OFFCURVE",
"192 -128 OFFCURVE",
"256 -128 CURVE SMOOTH",
"1536 -128 LINE SMOOTH",
"1600 -128 OFFCURVE",
"1664 -64 OFFCURVE",
"1664 0 CURVE SMOOTH"
);
},
{
closed = 1;
nodes = (
"1024 0 LINE",
"960 0 LINE",
"960 320 LINE",
"832 320 LINE",
"832 384 LINE",
"960 384 LINE",
"960 384 OFFCURVE",
"1024 384 OFFCURVE",
"1024 320 CURVE"
);
},
{
closed = 1;
nodes = (
"1344 384 OFFCURVE",
"1408 384 OFFCURVE",
"1408 384 CURVE SMOOTH",
"1408 384 OFFCURVE",
"1408 384 OFFCURVE",
"1472 384 CURVE SMOOTH",
"1536 384 OFFCURVE",
"1536 320 OFFCURVE",
"1536 320 CURVE SMOOTH",
"1536 256 LINE",
"1472 256 LINE",
"1472 320 LINE",
"1408 320 LINE",
"1408 64 LINE",
"1472 64 LINE",
"1472 128 LINE",
"1536 128 LINE",
"1536 96 OFFCURVE",
"1536 128 OFFCURVE",
"1536 64 CURVE",
"1536 0 OFFCURVE",
"1472 0 OFFCURVE",
"1472 0 CURVE SMOOTH",
"1472 0 OFFCURVE",
"1472 0 OFFCURVE",
"1408 0 CURVE SMOOTH",
"1344 0 OFFCURVE",
"1344 64 OFFCURVE",
"1344 64 CURVE SMOOTH",
"1344 320 LINE"
);
},
{
closed = 1;
nodes = (
"768 384 LINE",
"768 384 OFFCURVE",
"768 320 OFFCURVE",
"768 320 CURVE",
"640 320 LINE",
"640 192 LINE",
"768 192 LINE",
"768 128 LINE",
"640 128 LINE",
"640 0 LINE",
"576 0 LINE",
"576 320 LINE",
"576 384 OFFCURVE",
"640 384 OFFCURVE",
"640 384 CURVE"
);
},
{
closed = 1;
nodes = (
"1280 384 OFFCURVE",
"1280 320 OFFCURVE",
"1280 320 CURVE SMOOTH",
"1280 320 OFFCURVE",
"1280 128 OFFCURVE",
"1280 64 CURVE SMOOTH",
"1280 64 OFFCURVE",
"1280 0 OFFCURVE",
"1216 0 CURVE SMOOTH",
"1216 0 OFFCURVE",
"1216 0 OFFCURVE",
"1152 0 CURVE SMOOTH",
"1088 0 OFFCURVE",
"1088 64 OFFCURVE",
"1088 64 CURVE SMOOTH",
"1088 320 LINE",
"1088 320 OFFCURVE",
"1088 384 OFFCURVE",
"1152 384 CURVE",
"1216 384 OFFCURVE",
"1152 384 OFFCURVE",
"1216 384 CURVE"
);
},
{
closed = 1;
nodes = (
"1216 320 LINE",
"1152 320 LINE",
"1152 64 LINE",
"1216 64 LINE"
);
}
);
width = 1792;
}
);
unicode = F70C;
},
{
glyphname = unif70d;
lastChange = "2013-04-19 13:46:33 +0000";
layers = (
{
layerId = "9E59A49A-007A-404C-A74D-3DDF46CAEF34";
name = Regular;
paths = (
{
closed = 1;
nodes = (
"1664 1280 LINE SMOOTH",
"1664 1344 OFFCURVE",
"1600 1408 OFFCURVE",
"1536 1408 CURVE SMOOTH",
"256 1408 LINE SMOOTH",
"192 1408 OFFCURVE",
"128 1344 OFFCURVE",
"128 1280 CURVE SMOOTH",
"128 0 LINE SMOOTH",
"128 -64 OFFCURVE",
"192 -128 OFFCURVE",
"256 -128 CURVE SMOOTH",
"1536 -128 LINE SMOOTH",
"1600 -128 OFFCURVE",
"1664 -64 OFFCURVE",
"1664 0 CURVE SMOOTH"
);
},
{
closed = 1;
nodes = (
"1024 0 LINE",
"960 0 LINE",
"960 320 LINE",
"832 320 LINE",
"832 384 LINE",
"960 384 LINE",
"960 384 OFFCURVE",
"1024 384 OFFCURVE",
"1024 320 CURVE"
);
},
{
closed = 1;
nodes = (
"1376 384 OFFCURVE",
"1408 384 OFFCURVE",
"1472 384 CURVE",
"1536 384 OFFCURVE",
"1536 320 OFFCURVE",
"1536 320 CURVE SMOOTH",
"1536 320 OFFCURVE",
"1536 128 OFFCURVE",
"1536 64 CURVE SMOOTH",
"1536 0 OFFCURVE",
"1472 0 OFFCURVE",
"1472 0 CURVE SMOOTH",
"1344 0 LINE",
"1344 384 LINE"
);
},
{
closed = 1;
nodes = (
"1472 320 LINE",
"1472 64 LINE",
"1408 64 LINE",
"1408 320 LINE"
);
},
{
closed = 1;
nodes = (
"768 384 LINE",
"768 384 OFFCURVE",
"768 320 OFFCURVE",
"768 320 CURVE",
"640 320 LINE",
"640 192 LINE",
"768 192 LINE",
"768 128 LINE",
"640 128 LINE",
"640 0 LINE",
"576 0 LINE",
"576 320 LINE",
"576 384 OFFCURVE",
"640 384 OFFCURVE",
"640 384 CURVE"
);
},
{
closed = 1;
nodes = (
"1280 384 OFFCURVE",
"1280 320 OFFCURVE",
"1280 320 CURVE SMOOTH",
"1280 320 OFFCURVE",
"1280 128 OFFCURVE",
"1280 64 CURVE SMOOTH",
"1280 64 OFFCURVE",
"1280 0 OFFCURVE",
"1216 0 CURVE SMOOTH",
"1216 0 OFFCURVE",
"1216 0 OFFCURVE",
"1152 0 CURVE SMOOTH",
"1088 0 OFFCURVE",
"1088 64 OFFCURVE",
"1088 64 CURVE SMOOTH",
"1088 320 LINE",
"1088 320 OFFCURVE",
"1088 384 OFFCURVE",
"1152 384 CURVE",
"1216 384 OFFCURVE",
"1152 384 OFFCURVE",
"1216 384 CURVE"
);
},
{
closed = 1;
nodes = (
"1216 320 LINE",
"1152 320 LINE",
"1152 64 LINE",
"1216 64 LINE"
);
}
);
width = 1792;
}
);
unicode = F70D;
},
{
glyphname = unif70e;
lastChange = "2013-04-19 13:46:40 +0000";
layers = (
{
layerId = "9E59A49A-007A-404C-A74D-3DDF46CAEF34";
name = Regular;
paths = (
{
closed = 1;
nodes = (
"1664 1280 LINE SMOOTH",
"1664 1344 OFFCURVE",
"1600 1408 OFFCURVE",
"1536 1408 CURVE SMOOTH",
"256 1408 LINE SMOOTH",
"192 1408 OFFCURVE",
"128 1344 OFFCURVE",
"128 1280 CURVE SMOOTH",
"128 0 LINE SMOOTH",
"128 -64 OFFCURVE",
"192 -128 OFFCURVE",
"256 -128 CURVE SMOOTH",
"1536 -128 LINE SMOOTH",
"1600 -128 OFFCURVE",
"1664 -64 OFFCURVE",
"1664 0 CURVE SMOOTH"
);
},
{
closed = 1;
nodes = (
"1024 0 LINE",
"960 0 LINE",
"960 320 LINE",
"832 320 LINE",
"832 384 LINE",
"960 384 LINE",
"960 384 OFFCURVE",
"1024 384 OFFCURVE",
"1024 320 CURVE"
);
},
{
closed = 1;
nodes = (
"1536 384 LINE",
"1536 320 LINE",
"1408 320 LINE",
"1408 256 LINE",
"1536 256 LINE",
"1536 192 LINE",
"1408 192 LINE",
"1408 64 LINE",
"1536 64 LINE",
"1536 0 LINE",
"1344 0 LINE",
"1344 96 OFFCURVE",
"1344 256 OFFCURVE",
"1344 320 CURVE",
"1344 384 OFFCURVE",
"1408 384 OFFCURVE",
"1408 384 CURVE SMOOTH"
);
},
{
closed = 1;
nodes = (
"768 384 LINE",
"768 384 OFFCURVE",
"768 320 OFFCURVE",
"768 320 CURVE",
"640 320 LINE",
"640 192 LINE",
"768 192 LINE",
"768 128 LINE",
"640 128 LINE",
"640 0 LINE",
"576 0 LINE",
"576 320 LINE",
"576 384 OFFCURVE",
"640 384 OFFCURVE",
"640 384 CURVE"
);
},
{
closed = 1;
nodes = (
"1280 384 OFFCURVE",
"1280 320 OFFCURVE",
"1280 320 CURVE SMOOTH",
"1280 320 OFFCURVE",
"1280 128 OFFCURVE",
"1280 64 CURVE SMOOTH",
"1280 64 OFFCURVE",
"1280 0 OFFCURVE",
"1216 0 CURVE SMOOTH",
"1216 0 OFFCURVE",
"1216 0 OFFCURVE",
"1152 0 CURVE SMOOTH",
"1088 0 OFFCURVE",
"1088 64 OFFCURVE",
"1088 64 CURVE SMOOTH",
"1088 320 LINE",
"1088 320 OFFCURVE",
"1088 384 OFFCURVE",
"1152 384 CURVE",
"1216 384 OFFCURVE",
"1152 384 OFFCURVE",
"1216 384 CURVE"
);
},
{
closed = 1;
nodes = (
"1216 320 LINE",
"1152 320 LINE",
"1152 64 LINE",
"1216 64 LINE"
);
}
);
width = 1792;
}
);
unicode = F70E;
},
{
glyphname = unif70f;
lastChange = "2013-04-19 13:46:47 +0000";
layers = (
{
layerId = "9E59A49A-007A-404C-A74D-3DDF46CAEF34";
name = Regular;
paths = (
{
closed = 1;
nodes = (
"1664 1280 LINE SMOOTH",
"1664 1344 OFFCURVE",
"1600 1408 OFFCURVE",
"1536 1408 CURVE SMOOTH",
"256 1408 LINE SMOOTH",
"192 1408 OFFCURVE",
"128 1344 OFFCURVE",
"128 1280 CURVE SMOOTH",
"128 0 LINE SMOOTH",
"128 -64 OFFCURVE",
"192 -128 OFFCURVE",
"256 -128 CURVE SMOOTH",
"1536 -128 LINE SMOOTH",
"1600 -128 OFFCURVE",
"1664 -64 OFFCURVE",
"1664 0 CURVE SMOOTH"
);
},
{
closed = 1;
nodes = (
"1024 0 LINE",
"960 0 LINE",
"960 320 LINE",
"832 320 LINE",
"832 384 LINE",
"960 384 LINE",
"960 384 OFFCURVE",
"1024 384 OFFCURVE",
"1024 320 CURVE"
);
},
{
closed = 1;
nodes = (
"1536 384 LINE",
"1536 384 OFFCURVE",
"1536 320 OFFCURVE",
"1536 320 CURVE",
"1408 320 LINE",
"1408 192 LINE",
"1536 192 LINE",
"1536 128 LINE",
"1408 128 LINE",
"1408 0 LINE",
"1344 0 LINE",
"1344 320 LINE",
"1344 384 OFFCURVE",
"1408 384 OFFCURVE",
"1408 384 CURVE"
);
},
{
closed = 1;
nodes = (
"768 384 LINE",
"768 384 OFFCURVE",
"768 320 OFFCURVE",
"768 320 CURVE",
"640 320 LINE",
"640 192 LINE",
"768 192 LINE",
"768 128 LINE",
"640 128 LINE",
"640 0 LINE",
"576 0 LINE",
"576 320 LINE",
"576 384 OFFCURVE",
"640 384 OFFCURVE",
"640 384 CURVE"
);
},
{
closed = 1;
nodes = (
"1280 384 OFFCURVE",
"1280 320 OFFCURVE",
"1280 320 CURVE SMOOTH",
"1280 320 OFFCURVE",
"1280 128 OFFCURVE",
"1280 64 CURVE SMOOTH",
"1280 64 OFFCURVE",
"1280 0 OFFCURVE",
"1216 0 CURVE SMOOTH",
"1216 0 OFFCURVE",
"1216 0 OFFCURVE",
"1152 0 CURVE SMOOTH",
"1088 0 OFFCURVE",
"1088 64 OFFCURVE",
"1088 64 CURVE SMOOTH",
"1088 320 LINE",
"1088 320 OFFCURVE",
"1088 384 OFFCURVE",
"1152 384 CURVE",
"1216 384 OFFCURVE",
"1152 384 OFFCURVE",
"1216 384 CURVE"
);
},
{
closed = 1;
nodes = (
"1216 320 LINE",
"1152 320 LINE",
"1152 64 LINE",
"1216 64 LINE"
);
}
);
width = 1792;
}
);
unicode = F70F;
},
{
glyphname = unif710;
lastChange = "2013-04-19 13:47:11 +0000";
layers = (
{
layerId = "9E59A49A-007A-404C-A74D-3DDF46CAEF34";
name = Regular;
paths = (
{
closed = 1;
nodes = (
"1664 1280 LINE SMOOTH",
"1664 1344 OFFCURVE",
"1600 1408 OFFCURVE",
"1536 1408 CURVE SMOOTH",
"256 1408 LINE SMOOTH",
"192 1408 OFFCURVE",
"128 1344 OFFCURVE",
"128 1280 CURVE SMOOTH",
"128 0 LINE SMOOTH",
"128 -64 OFFCURVE",
"192 -128 OFFCURVE",
"256 -128 CURVE SMOOTH",
"1536 -128 LINE SMOOTH",
"1600 -128 OFFCURVE",
"1664 -64 OFFCURVE",
"1664 0 CURVE SMOOTH"
);
},
{
closed = 1;
nodes = (
"1024 0 LINE",
"960 0 LINE",
"960 320 LINE",
"832 320 LINE",
"832 384 LINE",
"960 384 LINE",
"960 384 OFFCURVE",
"1024 384 OFFCURVE",
"1024 320 CURVE"
);
},
{
closed = 1;
nodes = (
"1536 384 OFFCURVE",
"1536 320 OFFCURVE",
"1536 320 CURVE SMOOTH",
"1536 320 OFFCURVE",
"1536 128 OFFCURVE",
"1536 64 CURVE SMOOTH",
"1536 64 OFFCURVE",
"1536 0 OFFCURVE",
"1472 0 CURVE SMOOTH",
"1472 0 OFFCURVE",
"1472 0 OFFCURVE",
"1408 0 CURVE SMOOTH",
"1344 0 OFFCURVE",
"1344 64 OFFCURVE",
"1344 64 CURVE SMOOTH",
"1344 320 LINE",
"1344 320 OFFCURVE",
"1344 384 OFFCURVE",
"1408 384 CURVE",
"1472 384 OFFCURVE",
"1408 384 OFFCURVE",
"1472 384 CURVE"
);
},
{
closed = 1;
nodes = (
"1472 320 LINE",
"1408 320 LINE",
"1408 64 LINE",
"1472 64 LINE"
);
},
{
closed = 1;
nodes = (
"1216 384 OFFCURVE",
"1280 384 OFFCURVE",
"1280 384 CURVE SMOOTH",
"1280 384 OFFCURVE",
"1280 0 OFFCURVE",
"1280 0 CURVE SMOOTH",
"1216 0 LINE",
"1216 320 LINE"
);
},
{
closed = 1;
nodes = (
"768 384 LINE",
"768 384 OFFCURVE",
"768 320 OFFCURVE",
"768 320 CURVE",
"640 320 LINE",
"640 192 LINE",
"768 192 LINE",
"768 128 LINE",
"640 128 LINE",
"640 0 LINE",
"576 0 LINE",
"576 320 LINE",
"576 384 OFFCURVE",
"640 384 OFFCURVE",
"640 384 CURVE"
);
}
);
width = 1792;
}
);
unicode = F710;
},
{
glyphname = unif711;
lastChange = "2013-04-19 13:47:17 +0000";
layers = (
{
layerId = "9E59A49A-007A-404C-A74D-3DDF46CAEF34";
name = Regular;
paths = (
{
closed = 1;
nodes = (
"1664 1280 LINE SMOOTH",
"1664 1344 OFFCURVE",
"1600 1408 OFFCURVE",
"1536 1408 CURVE SMOOTH",
"256 1408 LINE SMOOTH",
"192 1408 OFFCURVE",
"128 1344 OFFCURVE",
"128 1280 CURVE SMOOTH",
"128 0 LINE SMOOTH",
"128 -64 OFFCURVE",
"192 -128 OFFCURVE",
"256 -128 CURVE SMOOTH",
"1536 -128 LINE SMOOTH",
"1600 -128 OFFCURVE",
"1664 -64 OFFCURVE",
"1664 0 CURVE SMOOTH"
);
},
{
closed = 1;
nodes = (
"1024 0 LINE",
"960 0 LINE",
"960 320 LINE",
"832 320 LINE",
"832 384 LINE",
"960 384 LINE",
"960 384 OFFCURVE",
"1024 384 OFFCURVE",
"1024 320 CURVE"
);
},
{
closed = 1;
nodes = (
"1472 384 OFFCURVE",
"1536 384 OFFCURVE",
"1536 384 CURVE SMOOTH",
"1536 384 OFFCURVE",
"1536 0 OFFCURVE",
"1536 0 CURVE SMOOTH",
"1472 0 LINE",
"1472 320 LINE"
);
},
{
closed = 1;
nodes = (
"1216 384 OFFCURVE",
"1280 384 OFFCURVE",
"1280 384 CURVE SMOOTH",
"1280 384 OFFCURVE",
"1280 0 OFFCURVE",
"1280 0 CURVE SMOOTH",
"1216 0 LINE",
"1216 320 LINE"
);
},
{
closed = 1;
nodes = (
"768 384 LINE",
"768 384 OFFCURVE",
"768 320 OFFCURVE",
"768 320 CURVE",
"640 320 LINE",
"640 192 LINE",
"768 192 LINE",
"768 128 LINE",
"640 128 LINE",
"640 0 LINE",
"576 0 LINE",
"576 320 LINE",
"576 384 OFFCURVE",
"640 384 OFFCURVE",
"640 384 CURVE"
);
}
);
width = 1792;
}
);
unicode = F711;
},
{
glyphname = unif712;
lastChange = "2013-04-19 13:50:47 +0000";
layers = (
{
layerId = "9E59A49A-007A-404C-A74D-3DDF46CAEF34";
name = Regular;
paths = (
{
closed = 1;
nodes = (
"1664 1280 LINE SMOOTH",
"1664 1344 OFFCURVE",
"1600 1408 OFFCURVE",
"1536 1408 CURVE SMOOTH",
"256 1408 LINE SMOOTH",
"192 1408 OFFCURVE",
"128 1344 OFFCURVE",
"128 1280 CURVE SMOOTH",
"128 0 LINE SMOOTH",
"128 -64 OFFCURVE",
"192 -128 OFFCURVE",
"256 -128 CURVE SMOOTH",
"1536 -128 LINE SMOOTH",
"1600 -128 OFFCURVE",
"1664 -64 OFFCURVE",
"1664 0 CURVE SMOOTH"
);
},
{
closed = 1;
nodes = (
"1024 0 LINE",
"960 0 LINE",
"960 320 LINE",
"832 320 LINE",
"832 384 LINE",
"960 384 LINE",
"960 384 OFFCURVE",
"1024 384 OFFCURVE",
"1024 320 CURVE"
);
},
{
closed = 1;
nodes = (
"1216 384 OFFCURVE",
"1280 384 OFFCURVE",
"1280 384 CURVE SMOOTH",
"1280 384 OFFCURVE",
"1280 0 OFFCURVE",
"1280 0 CURVE SMOOTH",
"1216 0 LINE",
"1216 320 LINE"
);
},
{
closed = 1;
nodes = (
"768 384 LINE",
"768 384 OFFCURVE",
"768 320 OFFCURVE",
"768 320 CURVE",
"640 320 LINE",
"640 192 LINE",
"768 192 LINE",
"768 128 LINE",
"640 128 LINE",
"640 0 LINE",
"576 0 LINE",
"576 320 LINE",
"576 384 OFFCURVE",
"640 384 OFFCURVE",
"640 384 CURVE"
);
},
{
closed = 1;
nodes = (
"1536 320 OFFCURVE",
"1536 320 OFFCURVE",
"1536 256 CURVE",
"1536 192 OFFCURVE",
"1408 64 OFFCURVE",
"1408 64 CURVE",
"1536 64 LINE",
"1536 0 LINE",
"1344 0 LINE",
"1344 64 LINE",
"1344 128 OFFCURVE",
"1472 192 OFFCURVE",
"1472 256 CURVE",
"1472 320 LINE",
"1408 320 LINE",
"1408 256 LINE",
"1344 256 LINE",
"1344 320 LINE",
"1344 320 OFFCURVE",
"1344 384 OFFCURVE",
"1408 384 CURVE",
"1472 384 OFFCURVE",
"1408 384 OFFCURVE",
"1472 384 CURVE SMOOTH",
"1536 384 OFFCURVE",
"1536 320 OFFCURVE",
"1536 320 CURVE"
);
}
);
width = 1792;
}
);
unicode = F712;
},
{
glyphname = unif713;
lastChange = "2013-04-19 13:47:37 +0000";
layers = (
{
layerId = "9E59A49A-007A-404C-A74D-3DDF46CAEF34";
name = Regular;
paths = (
{
closed = 1;
nodes = (
"1664 1280 LINE SMOOTH",
"1664 1344 OFFCURVE",
"1600 1408 OFFCURVE",
"1536 1408 CURVE SMOOTH",
"256 1408 LINE SMOOTH",
"192 1408 OFFCURVE",
"128 1344 OFFCURVE",
"128 1280 CURVE SMOOTH",
"128 0 LINE SMOOTH",
"128 -64 OFFCURVE",
"192 -128 OFFCURVE",
"256 -128 CURVE SMOOTH",
"1536 -128 LINE SMOOTH",
"1600 -128 OFFCURVE",
"1664 -64 OFFCURVE",
"1664 0 CURVE SMOOTH"
);
},
{
closed = 1;
nodes = (
"1024 0 LINE",
"960 0 LINE",
"960 320 LINE",
"832 320 LINE",
"832 384 LINE",
"960 384 LINE",
"960 384 OFFCURVE",
"1024 384 OFFCURVE",
"1024 320 CURVE"
);
},
{
closed = 1;
nodes = (
"1344 384 OFFCURVE",
"1408 384 OFFCURVE",
"1408 384 CURVE SMOOTH",
"1408 384 OFFCURVE",
"1408 384 OFFCURVE",
"1472 384 CURVE SMOOTH",
"1536 384 OFFCURVE",
"1536 320 OFFCURVE",
"1536 320 CURVE SMOOTH",
"1536 320 OFFCURVE",
"1536 288 OFFCURVE",
"1536 256 CURVE SMOOTH",
"1536 224 OFFCURVE",
"1504 224 OFFCURVE",
"1504 224 CURVE SMOOTH",
"1504 224 OFFCURVE",
"1536 224 OFFCURVE",
"1536 192 CURVE SMOOTH",
"1536 160 OFFCURVE",
"1536 128 OFFCURVE",
"1536 64 CURVE SMOOTH",
"1536 0 OFFCURVE",
"1472 0 OFFCURVE",
"1472 0 CURVE SMOOTH",
"1472 0 OFFCURVE",
"1472 0 OFFCURVE",
"1408 0 CURVE SMOOTH",
"1344 0 OFFCURVE",
"1344 64 OFFCURVE",
"1344 64 CURVE SMOOTH",
"1344 128 LINE",
"1408 128 LINE",
"1408 64 LINE",
"1472 64 LINE",
"1472 192 LINE",
"1408 192 LINE",
"1408 256 LINE",
"1472 256 LINE",
"1472 320 LINE",
"1344 320 LINE"
);
},
{
closed = 1;
nodes = (
"1216 384 OFFCURVE",
"1280 384 OFFCURVE",
"1280 384 CURVE SMOOTH",
"1280 384 OFFCURVE",
"1280 0 OFFCURVE",
"1280 0 CURVE SMOOTH",
"1216 0 LINE",
"1216 320 LINE"
);
},
{
closed = 1;
nodes = (
"768 384 LINE",
"768 384 OFFCURVE",
"768 320 OFFCURVE",
"768 320 CURVE",
"640 320 LINE",
"640 192 LINE",
"768 192 LINE",
"768 128 LINE",
"640 128 LINE",
"640 0 LINE",
"576 0 LINE",
"576 320 LINE",
"576 384 OFFCURVE",
"640 384 OFFCURVE",
"640 384 CURVE"
);
}
);
width = 1792;
}
);
unicode = F713;
},
{
glyphname = unif714;
lastChange = "2013-04-19 13:47:41 +0000";
layers = (
{
layerId = "9E59A49A-007A-404C-A74D-3DDF46CAEF34";
name = Regular;
paths = (
{
closed = 1;
nodes = (
"1664 1280 LINE SMOOTH",
"1664 1344 OFFCURVE",
"1600 1408 OFFCURVE",
"1536 1408 CURVE SMOOTH",
"256 1408 LINE SMOOTH",
"192 1408 OFFCURVE",
"128 1344 OFFCURVE",
"128 1280 CURVE SMOOTH",
"128 0 LINE SMOOTH",
"128 -64 OFFCURVE",
"192 -128 OFFCURVE",
"256 -128 CURVE SMOOTH",
"1536 -128 LINE SMOOTH",
"1600 -128 OFFCURVE",
"1664 -64 OFFCURVE",
"1664 0 CURVE SMOOTH"
);
},
{
closed = 1;
nodes = (
"1024 0 LINE",
"960 0 LINE",
"960 320 LINE",
"832 320 LINE",
"832 384 LINE",
"960 384 LINE",
"960 384 OFFCURVE",
"1024 384 OFFCURVE",
"1024 320 CURVE"
);
},
{
closed = 1;
nodes = (
"1408 128 OFFCURVE",
"1344 128 OFFCURVE",
"1344 192 CURVE",
"1344 256 OFFCURVE",
"1344 320 OFFCURVE",
"1344 384 CURVE",
"1408 384 LINE",
"1408 192 LINE",
"1472 192 LINE",
"1472 384 LINE",
"1536 384 LINE",
"1536 0 LINE",
"1472 0 LINE",
"1472 128 LINE",
"1408 128 LINE"
);
},
{
closed = 1;
nodes = (
"1216 384 OFFCURVE",
"1280 384 OFFCURVE",
"1280 384 CURVE SMOOTH",
"1280 384 OFFCURVE",
"1280 0 OFFCURVE",
"1280 0 CURVE SMOOTH",
"1216 0 LINE",
"1216 320 LINE"
);
},
{
closed = 1;
nodes = (
"768 384 LINE",
"768 384 OFFCURVE",
"768 320 OFFCURVE",
"768 320 CURVE",
"640 320 LINE",
"640 192 LINE",
"768 192 LINE",
"768 128 LINE",
"640 128 LINE",
"640 0 LINE",
"576 0 LINE",
"576 320 LINE",
"576 384 OFFCURVE",
"640 384 OFFCURVE",
"640 384 CURVE"
);
}
);
width = 1792;
}
);
unicode = F714;
},
{
glyphname = unif715;
lastChange = "2013-04-19 13:47:46 +0000";
layers = (
{
layerId = "9E59A49A-007A-404C-A74D-3DDF46CAEF34";
name = Regular;
paths = (
{
closed = 1;
nodes = (
"1664 1280 LINE SMOOTH",
"1664 1344 OFFCURVE",
"1600 1408 OFFCURVE",
"1536 1408 CURVE SMOOTH",
"256 1408 LINE SMOOTH",
"192 1408 OFFCURVE",
"128 1344 OFFCURVE",
"128 1280 CURVE SMOOTH",
"128 0 LINE SMOOTH",
"128 -64 OFFCURVE",
"192 -128 OFFCURVE",
"256 -128 CURVE SMOOTH",
"1536 -128 LINE SMOOTH",
"1600 -128 OFFCURVE",
"1664 -64 OFFCURVE",
"1664 0 CURVE SMOOTH"
);
},
{
closed = 1;
nodes = (
"1024 0 LINE",
"960 0 LINE",
"960 320 LINE",
"832 320 LINE",
"832 384 LINE",
"960 384 LINE",
"960 384 OFFCURVE",
"1024 384 OFFCURVE",
"1024 320 CURVE"
);
},
{
closed = 1;
nodes = (
"1536 384 LINE",
"1536 320 LINE",
"1408 320 LINE",
"1408 256 LINE",
"1440 256 OFFCURVE",
"1408 256 OFFCURVE",
"1472 256 CURVE",
"1536 256 OFFCURVE",
"1536 192 OFFCURVE",
"1536 192 CURVE SMOOTH",
"1536 192 OFFCURVE",
"1536 128 OFFCURVE",
"1536 64 CURVE SMOOTH",
"1536 0 OFFCURVE",
"1472 0 OFFCURVE",
"1472 0 CURVE SMOOTH",
"1472 0 OFFCURVE",
"1472 0 OFFCURVE",
"1408 0 CURVE SMOOTH",
"1344 0 OFFCURVE",
"1344 64 OFFCURVE",
"1344 64 CURVE SMOOTH",
"1344 128 LINE",
"1408 128 LINE",
"1408 64 LINE",
"1472 64 LINE",
"1472 192 LINE",
"1344 192 LINE",
"1344 384 LINE"
);
},
{
closed = 1;
nodes = (
"1216 384 OFFCURVE",
"1280 384 OFFCURVE",
"1280 384 CURVE SMOOTH",
"1280 384 OFFCURVE",
"1280 0 OFFCURVE",
"1280 0 CURVE SMOOTH",
"1216 0 LINE",
"1216 320 LINE"
);
},
{
closed = 1;
nodes = (
"768 384 LINE",
"768 384 OFFCURVE",
"768 320 OFFCURVE",
"768 320 CURVE",
"640 320 LINE",
"640 192 LINE",
"768 192 LINE",
"768 128 LINE",
"640 128 LINE",
"640 0 LINE",
"576 0 LINE",
"576 320 LINE",
"576 384 OFFCURVE",
"640 384 OFFCURVE",
"640 384 CURVE"
);
}
);
width = 1792;
}
);
unicode = F715;
},
{
glyphname = unif716;
lastChange = "2013-04-19 13:47:49 +0000";
layers = (
{
layerId = "9E59A49A-007A-404C-A74D-3DDF46CAEF34";
name = Regular;
paths = (
{
closed = 1;
nodes = (
"1664 1280 LINE SMOOTH",
"1664 1344 OFFCURVE",
"1600 1408 OFFCURVE",
"1536 1408 CURVE SMOOTH",
"256 1408 LINE SMOOTH",
"192 1408 OFFCURVE",
"128 1344 OFFCURVE",
"128 1280 CURVE SMOOTH",
"128 0 LINE SMOOTH",
"128 -64 OFFCURVE",
"192 -128 OFFCURVE",
"256 -128 CURVE SMOOTH",
"1536 -128 LINE SMOOTH",
"1600 -128 OFFCURVE",
"1664 -64 OFFCURVE",
"1664 0 CURVE SMOOTH"
);
},
{
closed = 1;
nodes = (
"1024 0 LINE",
"960 0 LINE",
"960 320 LINE",
"832 320 LINE",
"832 384 LINE",
"960 384 LINE",
"960 384 OFFCURVE",
"1024 384 OFFCURVE",
"1024 320 CURVE"
);
},
{
closed = 1;
nodes = (
"1536 320 LINE",
"1408 320 LINE",
"1408 256 LINE",
"1472 256 LINE SMOOTH",
"1472 256 OFFCURVE",
"1536 256 OFFCURVE",
"1536 192 CURVE SMOOTH",
"1536 128 OFFCURVE",
"1536 64 OFFCURVE",
"1536 64 CURVE SMOOTH",
"1536 64 OFFCURVE",
"1536 0 OFFCURVE",
"1472 0 CURVE SMOOTH",
"1408 0 OFFCURVE",
"1408 0 OFFCURVE",
"1408 0 CURVE SMOOTH",
"1408 0 OFFCURVE",
"1344 0 OFFCURVE",
"1344 64 CURVE SMOOTH",
"1344 128 OFFCURVE",
"1344 320 OFFCURVE",
"1344 320 CURVE SMOOTH",
"1344 320 OFFCURVE",
"1344 384 OFFCURVE",
"1408 384 CURVE",
"1472 384 OFFCURVE",
"1504 384 OFFCURVE",
"1536 384 CURVE"
);
},
{
closed = 1;
nodes = (
"1440 192 OFFCURVE",
"1472 192 OFFCURVE",
"1472 192 CURVE",
"1472 64 LINE",
"1408 64 LINE",
"1408 192 LINE"
);
},
{
closed = 1;
nodes = (
"1216 384 OFFCURVE",
"1280 384 OFFCURVE",
"1280 384 CURVE SMOOTH",
"1280 384 OFFCURVE",
"1280 0 OFFCURVE",
"1280 0 CURVE SMOOTH",
"1216 0 LINE",
"1216 320 LINE"
);
},
{
closed = 1;
nodes = (
"768 384 LINE",
"768 384 OFFCURVE",
"768 320 OFFCURVE",
"768 320 CURVE",
"640 320 LINE",
"640 192 LINE",
"768 192 LINE",
"768 128 LINE",
"640 128 LINE",
"640 0 LINE",
"576 0 LINE",
"576 320 LINE",
"576 384 OFFCURVE",
"640 384 OFFCURVE",
"640 384 CURVE"
);
}
);
width = 1792;
}
);
unicode = F716;
},
{
glyphname = unif717;
lastChange = "2013-04-19 13:47:53 +0000";
layers = (
{
layerId = "9E59A49A-007A-404C-A74D-3DDF46CAEF34";
name = Regular;
paths = (
{
closed = 1;
nodes = (
"1664 1280 LINE SMOOTH",
"1664 1344 OFFCURVE",
"1600 1408 OFFCURVE",
"1536 1408 CURVE SMOOTH",
"256 1408 LINE SMOOTH",
"192 1408 OFFCURVE",
"128 1344 OFFCURVE",
"128 1280 CURVE SMOOTH",
"128 0 LINE SMOOTH",
"128 -64 OFFCURVE",
"192 -128 OFFCURVE",
"256 -128 CURVE SMOOTH",
"1536 -128 LINE SMOOTH",
"1600 -128 OFFCURVE",
"1664 -64 OFFCURVE",
"1664 0 CURVE SMOOTH"
);
},
{
closed = 1;
nodes = (
"1024 0 LINE",
"960 0 LINE",
"960 320 LINE",
"832 320 LINE",
"832 384 LINE",
"960 384 LINE",
"960 384 OFFCURVE",
"1024 384 OFFCURVE",
"1024 320 CURVE"
);
},
{
closed = 1;
nodes = (
"1536 0 LINE",
"1472 0 LINE",
"1472 320 LINE",
"1344 320 LINE",
"1344 384 LINE",
"1472 384 LINE",
"1472 384 OFFCURVE",
"1536 384 OFFCURVE",
"1536 320 CURVE"
);
},
{
closed = 1;
nodes = (
"1216 384 OFFCURVE",
"1280 384 OFFCURVE",
"1280 384 CURVE SMOOTH",
"1280 384 OFFCURVE",
"1280 0 OFFCURVE",
"1280 0 CURVE SMOOTH",
"1216 0 LINE",
"1216 320 LINE"
);
},
{
closed = 1;
nodes = (
"768 384 LINE",
"768 384 OFFCURVE",
"768 320 OFFCURVE",
"768 320 CURVE",
"640 320 LINE",
"640 192 LINE",
"768 192 LINE",
"768 128 LINE",
"640 128 LINE",
"640 0 LINE",
"576 0 LINE",
"576 320 LINE",
"576 384 OFFCURVE",
"640 384 OFFCURVE",
"640 384 CURVE"
);
}
);
width = 1792;
}
);
unicode = F717;
},
{
glyphname = unif718;
lastChange = "2013-04-19 13:48:02 +0000";
layers = (
{
layerId = "9E59A49A-007A-404C-A74D-3DDF46CAEF34";
name = Regular;
paths = (
{
closed = 1;
nodes = (
"1664 1280 LINE SMOOTH",
"1664 1344 OFFCURVE",
"1600 1408 OFFCURVE",
"1536 1408 CURVE SMOOTH",
"256 1408 LINE SMOOTH",
"192 1408 OFFCURVE",
"128 1344 OFFCURVE",
"128 1280 CURVE SMOOTH",
"128 0 LINE SMOOTH",
"128 -64 OFFCURVE",
"192 -128 OFFCURVE",
"256 -128 CURVE SMOOTH",
"1536 -128 LINE SMOOTH",
"1600 -128 OFFCURVE",
"1664 -64 OFFCURVE",
"1664 0 CURVE SMOOTH"
);
},
{
closed = 1;
nodes = (
"1024 0 LINE",
"960 0 LINE",
"960 320 LINE",
"832 320 LINE",
"832 384 LINE",
"960 384 LINE",
"960 384 OFFCURVE",
"1024 384 OFFCURVE",
"1024 320 CURVE"
);
},
{
closed = 1;
nodes = (
"1536 288 OFFCURVE",
"1536 288 OFFCURVE",
"1536 256 CURVE",
"1536 224 OFFCURVE",
"1504 224 OFFCURVE",
"1504 224 CURVE SMOOTH",
"1504 224 OFFCURVE",
"1536 224 OFFCURVE",
"1536 192 CURVE SMOOTH",
"1536 160 OFFCURVE",
"1536 128 OFFCURVE",
"1536 64 CURVE SMOOTH",
"1536 0 OFFCURVE",
"1472 0 OFFCURVE",
"1472 0 CURVE SMOOTH",
"1472 0 OFFCURVE",
"1472 0 OFFCURVE",
"1408 0 CURVE SMOOTH",
"1344 0 OFFCURVE",
"1344 64 OFFCURVE",
"1344 64 CURVE SMOOTH",
"1344 64 OFFCURVE",
"1344 160 OFFCURVE",
"1344 192 CURVE SMOOTH",
"1344 224 OFFCURVE",
"1376 224 OFFCURVE",
"1376 224 CURVE SMOOTH",
"1376 224 OFFCURVE",
"1344 224 OFFCURVE",
"1344 256 CURVE SMOOTH",
"1344 320 LINE",
"1344 384 OFFCURVE",
"1408 384 OFFCURVE",
"1408 384 CURVE SMOOTH",
"1408 384 OFFCURVE",
"1408 384 OFFCURVE",
"1472 384 CURVE SMOOTH",
"1536 384 OFFCURVE",
"1536 320 OFFCURVE",
"1536 320 CURVE"
);
},
{
closed = 1;
nodes = (
"1472 320 LINE",
"1472 256 LINE",
"1408 256 LINE",
"1408 320 LINE"
);
},
{
closed = 1;
nodes = (
"1472 192 LINE",
"1472 64 LINE",
"1408 64 LINE",
"1408 192 LINE"
);
},
{
closed = 1;
nodes = (
"1216 384 OFFCURVE",
"1280 384 OFFCURVE",
"1280 384 CURVE SMOOTH",
"1280 384 OFFCURVE",
"1280 0 OFFCURVE",
"1280 0 CURVE SMOOTH",
"1216 0 LINE",
"1216 320 LINE"
);
},
{
closed = 1;
nodes = (
"768 384 LINE",
"768 384 OFFCURVE",
"768 320 OFFCURVE",
"768 320 CURVE",
"640 320 LINE",
"640 192 LINE",
"768 192 LINE",
"768 128 LINE",
"640 128 LINE",
"640 0 LINE",
"576 0 LINE",
"576 320 LINE",
"576 384 OFFCURVE",
"640 384 OFFCURVE",
"640 384 CURVE"
);
}
);
width = 1792;
}
);
unicode = F718;
},
{
glyphname = unif719;
lastChange = "2013-04-19 13:48:06 +0000";
layers = (
{
layerId = "9E59A49A-007A-404C-A74D-3DDF46CAEF34";
name = Regular;
paths = (
{
closed = 1;
nodes = (
"1664 1280 LINE SMOOTH",
"1664 1344 OFFCURVE",
"1600 1408 OFFCURVE",
"1536 1408 CURVE SMOOTH",
"256 1408 LINE SMOOTH",
"192 1408 OFFCURVE",
"128 1344 OFFCURVE",
"128 1280 CURVE SMOOTH",
"128 0 LINE SMOOTH",
"128 -64 OFFCURVE",
"192 -128 OFFCURVE",
"256 -128 CURVE SMOOTH",
"1536 -128 LINE SMOOTH",
"1600 -128 OFFCURVE",
"1664 -64 OFFCURVE",
"1664 0 CURVE SMOOTH"
);
},
{
closed = 1;
nodes = (
"1024 0 LINE",
"960 0 LINE",
"960 320 LINE",
"832 320 LINE",
"832 384 LINE",
"960 384 LINE",
"960 384 OFFCURVE",
"1024 384 OFFCURVE",
"1024 320 CURVE"
);
},
{
closed = 1;
nodes = (
"1344 64 LINE",
"1472 64 LINE",
"1472 128 LINE",
"1408 128 LINE SMOOTH",
"1408 128 OFFCURVE",
"1344 128 OFFCURVE",
"1344 192 CURVE SMOOTH",
"1344 256 OFFCURVE",
"1344 320 OFFCURVE",
"1344 320 CURVE SMOOTH",
"1344 320 OFFCURVE",
"1344 384 OFFCURVE",
"1408 384 CURVE SMOOTH",
"1472 384 OFFCURVE",
"1472 384 OFFCURVE",
"1472 384 CURVE SMOOTH",
"1472 384 OFFCURVE",
"1536 384 OFFCURVE",
"1536 320 CURVE SMOOTH",
"1536 256 OFFCURVE",
"1536 64 OFFCURVE",
"1536 64 CURVE SMOOTH",
"1536 64 OFFCURVE",
"1536 0 OFFCURVE",
"1472 0 CURVE",
"1408 0 OFFCURVE",
"1376 0 OFFCURVE",
"1344 0 CURVE"
);
},
{
closed = 1;
nodes = (
"1440 192 OFFCURVE",
"1408 192 OFFCURVE",
"1408 192 CURVE",
"1408 320 LINE",
"1472 320 LINE",
"1472 192 LINE"
);
},
{
closed = 1;
nodes = (
"1216 384 OFFCURVE",
"1280 384 OFFCURVE",
"1280 384 CURVE SMOOTH",
"1280 384 OFFCURVE",
"1280 0 OFFCURVE",
"1280 0 CURVE SMOOTH",
"1216 0 LINE",
"1216 320 LINE"
);
},
{
closed = 1;
nodes = (
"768 384 LINE",
"768 384 OFFCURVE",
"768 320 OFFCURVE",
"768 320 CURVE",
"640 320 LINE",
"640 192 LINE",
"768 192 LINE",
"768 128 LINE",
"640 128 LINE",
"640 0 LINE",
"576 0 LINE",
"576 320 LINE",
"576 384 OFFCURVE",
"640 384 OFFCURVE",
"640 384 CURVE"
);
}
);
width = 1792;
}
);
unicode = F719;
},
{
glyphname = unif71a;
lastChange = "2013-04-19 13:48:09 +0000";
layers = (
{
layerId = "9E59A49A-007A-404C-A74D-3DDF46CAEF34";
name = Regular;
paths = (
{
closed = 1;
nodes = (
"1664 1280 LINE SMOOTH",
"1664 1344 OFFCURVE",
"1600 1408 OFFCURVE",
"1536 1408 CURVE SMOOTH",
"256 1408 LINE SMOOTH",
"192 1408 OFFCURVE",
"128 1344 OFFCURVE",
"128 1280 CURVE SMOOTH",
"128 0 LINE SMOOTH",
"128 -64 OFFCURVE",
"192 -128 OFFCURVE",
"256 -128 CURVE SMOOTH",
"1536 -128 LINE SMOOTH",
"1600 -128 OFFCURVE",
"1664 -64 OFFCURVE",
"1664 0 CURVE SMOOTH"
);
},
{
closed = 1;
nodes = (
"1024 0 LINE",
"960 0 LINE",
"960 320 LINE",
"832 320 LINE",
"832 384 LINE",
"960 384 LINE",
"960 384 OFFCURVE",
"1024 384 OFFCURVE",
"1024 320 CURVE"
);
},
{
closed = 1;
nodes = (
"1344 96 OFFCURVE",
"1344 256 OFFCURVE",
"1344 320 CURVE",
"1344 384 OFFCURVE",
"1408 384 OFFCURVE",
"1408 384 CURVE SMOOTH",
"1408 384 OFFCURVE",
"1408 384 OFFCURVE",
"1472 384 CURVE SMOOTH",
"1536 384 OFFCURVE",
"1536 320 OFFCURVE",
"1536 320 CURVE SMOOTH",
"1536 0 LINE",
"1472 0 LINE",
"1472 128 LINE",
"1408 128 LINE",
"1408 0 LINE",
"1344 0 LINE"
);
},
{
closed = 1;
nodes = (
"1440 320 OFFCURVE",
"1472 320 OFFCURVE",
"1472 320 CURVE",
"1472 192 LINE",
"1408 192 LINE",
"1408 320 LINE"
);
},
{
closed = 1;
nodes = (
"1216 384 OFFCURVE",
"1280 384 OFFCURVE",
"1280 384 CURVE SMOOTH",
"1280 384 OFFCURVE",
"1280 0 OFFCURVE",
"1280 0 CURVE SMOOTH",
"1216 0 LINE",
"1216 320 LINE"
);
},
{
closed = 1;
nodes = (
"768 384 LINE",
"768 384 OFFCURVE",
"768 320 OFFCURVE",
"768 320 CURVE",
"640 320 LINE",
"640 192 LINE",
"768 192 LINE",
"768 128 LINE",
"640 128 LINE",
"640 0 LINE",
"576 0 LINE",
"576 320 LINE",
"576 384 OFFCURVE",
"640 384 OFFCURVE",
"640 384 CURVE"
);
}
);
width = 1792;
}
);
unicode = F71A;
},
{
glyphname = unif71b;
lastChange = "2013-04-19 13:48:13 +0000";
layers = (
{
layerId = "9E59A49A-007A-404C-A74D-3DDF46CAEF34";
name = Regular;
paths = (
{
closed = 1;
nodes = (
"1664 1280 LINE SMOOTH",
"1664 1344 OFFCURVE",
"1600 1408 OFFCURVE",
"1536 1408 CURVE SMOOTH",
"256 1408 LINE SMOOTH",
"192 1408 OFFCURVE",
"128 1344 OFFCURVE",
"128 1280 CURVE SMOOTH",
"128 0 LINE SMOOTH",
"128 -64 OFFCURVE",
"192 -128 OFFCURVE",
"256 -128 CURVE SMOOTH",
"1536 -128 LINE SMOOTH",
"1600 -128 OFFCURVE",
"1664 -64 OFFCURVE",
"1664 0 CURVE SMOOTH"
);
},
{
closed = 1;
nodes = (
"1024 0 LINE",
"960 0 LINE",
"960 320 LINE",
"832 320 LINE",
"832 384 LINE",
"960 384 LINE",
"960 384 OFFCURVE",
"1024 384 OFFCURVE",
"1024 320 CURVE"
);
},
{
closed = 1;
nodes = (
"1376 384 OFFCURVE",
"1408 384 OFFCURVE",
"1472 384 CURVE",
"1536 384 OFFCURVE",
"1536 320 OFFCURVE",
"1536 320 CURVE SMOOTH",
"1536 320 OFFCURVE",
"1536 288 OFFCURVE",
"1536 256 CURVE SMOOTH",
"1536 224 OFFCURVE",
"1504 224 OFFCURVE",
"1504 224 CURVE SMOOTH",
"1504 224 OFFCURVE",
"1536 224 OFFCURVE",
"1536 192 CURVE SMOOTH",
"1536 160 OFFCURVE",
"1536 128 OFFCURVE",
"1536 64 CURVE SMOOTH",
"1536 0 OFFCURVE",
"1472 0 OFFCURVE",
"1472 0 CURVE SMOOTH",
"1344 0 LINE",
"1344 384 LINE"
);
},
{
closed = 1;
nodes = (
"1472 320 LINE",
"1472 288 OFFCURVE",
"1472 256 OFFCURVE",
"1472 256 CURVE",
"1408 256 LINE",
"1408 320 LINE"
);
},
{
closed = 1;
nodes = (
"1472 64 LINE",
"1472 192 LINE",
"1408 192 LINE",
"1408 64 LINE"
);
},
{
closed = 1;
nodes = (
"1216 384 OFFCURVE",
"1280 384 OFFCURVE",
"1280 384 CURVE SMOOTH",
"1280 384 OFFCURVE",
"1280 0 OFFCURVE",
"1280 0 CURVE SMOOTH",
"1216 0 LINE",
"1216 320 LINE"
);
},
{
closed = 1;
nodes = (
"768 384 LINE",
"768 384 OFFCURVE",
"768 320 OFFCURVE",
"768 320 CURVE",
"640 320 LINE",
"640 192 LINE",
"768 192 LINE",
"768 128 LINE",
"640 128 LINE",
"640 0 LINE",
"576 0 LINE",
"576 320 LINE",
"576 384 OFFCURVE",
"640 384 OFFCURVE",
"640 384 CURVE"
);
}
);
width = 1792;
}
);
unicode = F71B;
},
{
glyphname = unif71c;
lastChange = "2013-04-19 13:48:16 +0000";
layers = (
{
layerId = "9E59A49A-007A-404C-A74D-3DDF46CAEF34";
name = Regular;
paths = (
{
closed = 1;
nodes = (
"1664 1280 LINE SMOOTH",
"1664 1344 OFFCURVE",
"1600 1408 OFFCURVE",
"1536 1408 CURVE SMOOTH",
"256 1408 LINE SMOOTH",
"192 1408 OFFCURVE",
"128 1344 OFFCURVE",
"128 1280 CURVE SMOOTH",
"128 0 LINE SMOOTH",
"128 -64 OFFCURVE",
"192 -128 OFFCURVE",
"256 -128 CURVE SMOOTH",
"1536 -128 LINE SMOOTH",
"1600 -128 OFFCURVE",
"1664 -64 OFFCURVE",
"1664 0 CURVE SMOOTH"
);
},
{
closed = 1;
nodes = (
"1024 0 LINE",
"960 0 LINE",
"960 320 LINE",
"832 320 LINE",
"832 384 LINE",
"960 384 LINE",
"960 384 OFFCURVE",
"1024 384 OFFCURVE",
"1024 320 CURVE"
);
},
{
closed = 1;
nodes = (
"1344 384 OFFCURVE",
"1408 384 OFFCURVE",
"1408 384 CURVE SMOOTH",
"1408 384 OFFCURVE",
"1408 384 OFFCURVE",
"1472 384 CURVE SMOOTH",
"1536 384 OFFCURVE",
"1536 320 OFFCURVE",
"1536 320 CURVE SMOOTH",
"1536 256 LINE",
"1472 256 LINE",
"1472 320 LINE",
"1408 320 LINE",
"1408 64 LINE",
"1472 64 LINE",
"1472 128 LINE",
"1536 128 LINE",
"1536 96 OFFCURVE",
"1536 128 OFFCURVE",
"1536 64 CURVE",
"1536 0 OFFCURVE",
"1472 0 OFFCURVE",
"1472 0 CURVE SMOOTH",
"1472 0 OFFCURVE",
"1472 0 OFFCURVE",
"1408 0 CURVE SMOOTH",
"1344 0 OFFCURVE",
"1344 64 OFFCURVE",
"1344 64 CURVE SMOOTH",
"1344 320 LINE"
);
},
{
closed = 1;
nodes = (
"1216 384 OFFCURVE",
"1280 384 OFFCURVE",
"1280 384 CURVE SMOOTH",
"1280 384 OFFCURVE",
"1280 0 OFFCURVE",
"1280 0 CURVE SMOOTH",
"1216 0 LINE",
"1216 320 LINE"
);
},
{
closed = 1;
nodes = (
"768 384 LINE",
"768 384 OFFCURVE",
"768 320 OFFCURVE",
"768 320 CURVE",
"640 320 LINE",
"640 192 LINE",
"768 192 LINE",
"768 128 LINE",
"640 128 LINE",
"640 0 LINE",
"576 0 LINE",
"576 320 LINE",
"576 384 OFFCURVE",
"640 384 OFFCURVE",
"640 384 CURVE"
);
}
);
width = 1792;
}
);
unicode = F71C;
},
{
glyphname = unif71d;
lastChange = "2013-04-19 13:48:20 +0000";
layers = (
{
layerId = "9E59A49A-007A-404C-A74D-3DDF46CAEF34";
name = Regular;
paths = (
{
closed = 1;
nodes = (
"1664 1280 LINE SMOOTH",
"1664 1344 OFFCURVE",
"1600 1408 OFFCURVE",
"1536 1408 CURVE SMOOTH",
"256 1408 LINE SMOOTH",
"192 1408 OFFCURVE",
"128 1344 OFFCURVE",
"128 1280 CURVE SMOOTH",
"128 0 LINE SMOOTH",
"128 -64 OFFCURVE",
"192 -128 OFFCURVE",
"256 -128 CURVE SMOOTH",
"1536 -128 LINE SMOOTH",
"1600 -128 OFFCURVE",
"1664 -64 OFFCURVE",
"1664 0 CURVE SMOOTH"
);
},
{
closed = 1;
nodes = (
"1024 0 LINE",
"960 0 LINE",
"960 320 LINE",
"832 320 LINE",
"832 384 LINE",
"960 384 LINE",
"960 384 OFFCURVE",
"1024 384 OFFCURVE",
"1024 320 CURVE"
);
},
{
closed = 1;
nodes = (
"1376 384 OFFCURVE",
"1408 384 OFFCURVE",
"1472 384 CURVE",
"1536 384 OFFCURVE",
"1536 320 OFFCURVE",
"1536 320 CURVE SMOOTH",
"1536 320 OFFCURVE",
"1536 128 OFFCURVE",
"1536 64 CURVE SMOOTH",
"1536 0 OFFCURVE",
"1472 0 OFFCURVE",
"1472 0 CURVE SMOOTH",
"1344 0 LINE",
"1344 384 LINE"
);
},
{
closed = 1;
nodes = (
"1472 320 LINE",
"1472 64 LINE",
"1408 64 LINE",
"1408 320 LINE"
);
},
{
closed = 1;
nodes = (
"1216 384 OFFCURVE",
"1280 384 OFFCURVE",
"1280 384 CURVE SMOOTH",
"1280 384 OFFCURVE",
"1280 0 OFFCURVE",
"1280 0 CURVE SMOOTH",
"1216 0 LINE",
"1216 320 LINE"
);
},
{
closed = 1;
nodes = (
"768 384 LINE",
"768 384 OFFCURVE",
"768 320 OFFCURVE",
"768 320 CURVE",
"640 320 LINE",
"640 192 LINE",
"768 192 LINE",
"768 128 LINE",
"640 128 LINE",
"640 0 LINE",
"576 0 LINE",
"576 320 LINE",
"576 384 OFFCURVE",
"640 384 OFFCURVE",
"640 384 CURVE"
);
}
);
width = 1792;
}
);
unicode = F71D;
},
{
glyphname = unif71e;
lastChange = "2013-04-19 13:48:24 +0000";
layers = (
{
layerId = "9E59A49A-007A-404C-A74D-3DDF46CAEF34";
name = Regular;
paths = (
{
closed = 1;
nodes = (
"1664 1280 LINE SMOOTH",
"1664 1344 OFFCURVE",
"1600 1408 OFFCURVE",
"1536 1408 CURVE SMOOTH",
"256 1408 LINE SMOOTH",
"192 1408 OFFCURVE",
"128 1344 OFFCURVE",
"128 1280 CURVE SMOOTH",
"128 0 LINE SMOOTH",
"128 -64 OFFCURVE",
"192 -128 OFFCURVE",
"256 -128 CURVE SMOOTH",
"1536 -128 LINE SMOOTH",
"1600 -128 OFFCURVE",
"1664 -64 OFFCURVE",
"1664 0 CURVE SMOOTH"
);
},
{
closed = 1;
nodes = (
"1024 0 LINE",
"960 0 LINE",
"960 320 LINE",
"832 320 LINE",
"832 384 LINE",
"960 384 LINE",
"960 384 OFFCURVE",
"1024 384 OFFCURVE",
"1024 320 CURVE"
);
},
{
closed = 1;
nodes = (
"1536 384 LINE",
"1536 320 LINE",
"1408 320 LINE",
"1408 256 LINE",
"1536 256 LINE",
"1536 192 LINE",
"1408 192 LINE",
"1408 64 LINE",
"1536 64 LINE",
"1536 0 LINE",
"1344 0 LINE",
"1344 96 OFFCURVE",
"1344 256 OFFCURVE",
"1344 320 CURVE",
"1344 384 OFFCURVE",
"1408 384 OFFCURVE",
"1408 384 CURVE SMOOTH"
);
},
{
closed = 1;
nodes = (
"1216 384 OFFCURVE",
"1280 384 OFFCURVE",
"1280 384 CURVE SMOOTH",
"1280 384 OFFCURVE",
"1280 0 OFFCURVE",
"1280 0 CURVE SMOOTH",
"1216 0 LINE",
"1216 320 LINE"
);
},
{
closed = 1;
nodes = (
"768 384 LINE",
"768 384 OFFCURVE",
"768 320 OFFCURVE",
"768 320 CURVE",
"640 320 LINE",
"640 192 LINE",
"768 192 LINE",
"768 128 LINE",
"640 128 LINE",
"640 0 LINE",
"576 0 LINE",
"576 320 LINE",
"576 384 OFFCURVE",
"640 384 OFFCURVE",
"640 384 CURVE"
);
}
);
width = 1792;
}
);
unicode = F71E;
},
{
glyphname = unif71f;
lastChange = "2013-04-19 13:48:28 +0000";
layers = (
{
layerId = "9E59A49A-007A-404C-A74D-3DDF46CAEF34";
name = Regular;
paths = (
{
closed = 1;
nodes = (
"1664 1280 LINE SMOOTH",
"1664 1344 OFFCURVE",
"1600 1408 OFFCURVE",
"1536 1408 CURVE SMOOTH",
"256 1408 LINE SMOOTH",
"192 1408 OFFCURVE",
"128 1344 OFFCURVE",
"128 1280 CURVE SMOOTH",
"128 0 LINE SMOOTH",
"128 -64 OFFCURVE",
"192 -128 OFFCURVE",
"256 -128 CURVE SMOOTH",
"1536 -128 LINE SMOOTH",
"1600 -128 OFFCURVE",
"1664 -64 OFFCURVE",
"1664 0 CURVE SMOOTH"
);
},
{
closed = 1;
nodes = (
"1024 0 LINE",
"960 0 LINE",
"960 320 LINE",
"832 320 LINE",
"832 384 LINE",
"960 384 LINE",
"960 384 OFFCURVE",
"1024 384 OFFCURVE",
"1024 320 CURVE"
);
},
{
closed = 1;
nodes = (
"1536 384 LINE",
"1536 384 OFFCURVE",
"1536 320 OFFCURVE",
"1536 320 CURVE",
"1408 320 LINE",
"1408 192 LINE",
"1536 192 LINE",
"1536 128 LINE",
"1408 128 LINE",
"1408 0 LINE",
"1344 0 LINE",
"1344 320 LINE",
"1344 384 OFFCURVE",
"1408 384 OFFCURVE",
"1408 384 CURVE"
);
},
{
closed = 1;
nodes = (
"1216 384 OFFCURVE",
"1280 384 OFFCURVE",
"1280 384 CURVE SMOOTH",
"1280 384 OFFCURVE",
"1280 0 OFFCURVE",
"1280 0 CURVE SMOOTH",
"1216 0 LINE",
"1216 320 LINE"
);
},
{
closed = 1;
nodes = (
"768 384 LINE",
"768 384 OFFCURVE",
"768 320 OFFCURVE",
"768 320 CURVE",
"640 320 LINE",
"640 192 LINE",
"768 192 LINE",
"768 128 LINE",
"640 128 LINE",
"640 0 LINE",
"576 0 LINE",
"576 320 LINE",
"576 384 OFFCURVE",
"640 384 OFFCURVE",
"640 384 CURVE"
);
}
);
width = 1792;
}
);
unicode = F71F;
},
{
glyphname = unif720;
lastChange = "2013-04-19 13:51:22 +0000";
layers = (
{
layerId = "9E59A49A-007A-404C-A74D-3DDF46CAEF34";
name = Regular;
paths = (
{
closed = 1;
nodes = (
"1664 1280 LINE SMOOTH",
"1664 1344 OFFCURVE",
"1600 1408 OFFCURVE",
"1536 1408 CURVE SMOOTH",
"256 1408 LINE SMOOTH",
"192 1408 OFFCURVE",
"128 1344 OFFCURVE",
"128 1280 CURVE SMOOTH",
"128 0 LINE SMOOTH",
"128 -64 OFFCURVE",
"192 -128 OFFCURVE",
"256 -128 CURVE SMOOTH",
"1536 -128 LINE SMOOTH",
"1600 -128 OFFCURVE",
"1664 -64 OFFCURVE",
"1664 0 CURVE SMOOTH"
);
},
{
closed = 1;
nodes = (
"1024 0 LINE",
"960 0 LINE",
"960 320 LINE",
"832 320 LINE",
"832 384 LINE",
"960 384 LINE",
"960 384 OFFCURVE",
"1024 384 OFFCURVE",
"1024 320 CURVE"
);
},
{
closed = 1;
nodes = (
"1536 384 OFFCURVE",
"1536 320 OFFCURVE",
"1536 320 CURVE SMOOTH",
"1536 320 OFFCURVE",
"1536 128 OFFCURVE",
"1536 64 CURVE SMOOTH",
"1536 64 OFFCURVE",
"1536 0 OFFCURVE",
"1472 0 CURVE SMOOTH",
"1472 0 OFFCURVE",
"1472 0 OFFCURVE",
"1408 0 CURVE SMOOTH",
"1344 0 OFFCURVE",
"1344 64 OFFCURVE",
"1344 64 CURVE SMOOTH",
"1344 320 LINE",
"1344 320 OFFCURVE",
"1344 384 OFFCURVE",
"1408 384 CURVE",
"1472 384 OFFCURVE",
"1408 384 OFFCURVE",
"1472 384 CURVE"
);
},
{
closed = 1;
nodes = (
"1472 320 LINE",
"1408 320 LINE",
"1408 64 LINE",
"1472 64 LINE"
);
},
{
closed = 1;
nodes = (
"1280 320 OFFCURVE",
"1280 320 OFFCURVE",
"1280 256 CURVE",
"1280 192 OFFCURVE",
"1152 64 OFFCURVE",
"1152 64 CURVE",
"1280 64 LINE",
"1280 0 LINE",
"1088 0 LINE",
"1088 64 LINE",
"1088 128 OFFCURVE",
"1216 192 OFFCURVE",
"1216 256 CURVE",
"1216 320 LINE",
"1152 320 LINE",
"1152 256 LINE",
"1088 256 LINE",
"1088 320 LINE",
"1088 320 OFFCURVE",
"1088 384 OFFCURVE",
"1152 384 CURVE",
"1216 384 OFFCURVE",
"1152 384 OFFCURVE",
"1216 384 CURVE SMOOTH",
"1280 384 OFFCURVE",
"1280 320 OFFCURVE",
"1280 320 CURVE"
);
},
{
closed = 1;
nodes = (
"768 384 LINE",
"768 384 OFFCURVE",
"768 320 OFFCURVE",
"768 320 CURVE",
"640 320 LINE",
"640 192 LINE",
"768 192 LINE",
"768 128 LINE",
"640 128 LINE",
"640 0 LINE",
"576 0 LINE",
"576 320 LINE",
"576 384 OFFCURVE",
"640 384 OFFCURVE",
"640 384 CURVE"
);
}
);
width = 1792;
}
);
unicode = F720;
},
{
glyphname = unif721;
lastChange = "2013-04-19 13:51:26 +0000";
layers = (
{
layerId = "9E59A49A-007A-404C-A74D-3DDF46CAEF34";
name = Regular;
paths = (
{
closed = 1;
nodes = (
"1664 1280 LINE SMOOTH",
"1664 1344 OFFCURVE",
"1600 1408 OFFCURVE",
"1536 1408 CURVE SMOOTH",
"256 1408 LINE SMOOTH",
"192 1408 OFFCURVE",
"128 1344 OFFCURVE",
"128 1280 CURVE SMOOTH",
"128 0 LINE SMOOTH",
"128 -64 OFFCURVE",
"192 -128 OFFCURVE",
"256 -128 CURVE SMOOTH",
"1536 -128 LINE SMOOTH",
"1600 -128 OFFCURVE",
"1664 -64 OFFCURVE",
"1664 0 CURVE SMOOTH"
);
},
{
closed = 1;
nodes = (
"1024 0 LINE",
"960 0 LINE",
"960 320 LINE",
"832 320 LINE",
"832 384 LINE",
"960 384 LINE",
"960 384 OFFCURVE",
"1024 384 OFFCURVE",
"1024 320 CURVE"
);
},
{
closed = 1;
nodes = (
"1472 384 OFFCURVE",
"1536 384 OFFCURVE",
"1536 384 CURVE SMOOTH",
"1536 384 OFFCURVE",
"1536 0 OFFCURVE",
"1536 0 CURVE SMOOTH",
"1472 0 LINE",
"1472 320 LINE"
);
},
{
closed = 1;
nodes = (
"1280 320 OFFCURVE",
"1280 320 OFFCURVE",
"1280 256 CURVE",
"1280 192 OFFCURVE",
"1152 64 OFFCURVE",
"1152 64 CURVE",
"1280 64 LINE",
"1280 0 LINE",
"1088 0 LINE",
"1088 64 LINE",
"1088 128 OFFCURVE",
"1216 192 OFFCURVE",
"1216 256 CURVE",
"1216 320 LINE",
"1152 320 LINE",
"1152 256 LINE",
"1088 256 LINE",
"1088 320 LINE",
"1088 320 OFFCURVE",
"1088 384 OFFCURVE",
"1152 384 CURVE",
"1216 384 OFFCURVE",
"1152 384 OFFCURVE",
"1216 384 CURVE SMOOTH",
"1280 384 OFFCURVE",
"1280 320 OFFCURVE",
"1280 320 CURVE"
);
},
{
closed = 1;
nodes = (
"768 384 LINE",
"768 384 OFFCURVE",
"768 320 OFFCURVE",
"768 320 CURVE",
"640 320 LINE",
"640 192 LINE",
"768 192 LINE",
"768 128 LINE",
"640 128 LINE",
"640 0 LINE",
"576 0 LINE",
"576 320 LINE",
"576 384 OFFCURVE",
"640 384 OFFCURVE",
"640 384 CURVE"
);
}
);
width = 1792;
}
);
unicode = F721;
},
{
glyphname = unif722;
lastChange = "2013-04-19 13:51:31 +0000";
layers = (
{
layerId = "9E59A49A-007A-404C-A74D-3DDF46CAEF34";
name = Regular;
paths = (
{
closed = 1;
nodes = (
"1664 1280 LINE SMOOTH",
"1664 1344 OFFCURVE",
"1600 1408 OFFCURVE",
"1536 1408 CURVE SMOOTH",
"256 1408 LINE SMOOTH",
"192 1408 OFFCURVE",
"128 1344 OFFCURVE",
"128 1280 CURVE SMOOTH",
"128 0 LINE SMOOTH",
"128 -64 OFFCURVE",
"192 -128 OFFCURVE",
"256 -128 CURVE SMOOTH",
"1536 -128 LINE SMOOTH",
"1600 -128 OFFCURVE",
"1664 -64 OFFCURVE",
"1664 0 CURVE SMOOTH"
);
},
{
closed = 1;
nodes = (
"1024 0 LINE",
"960 0 LINE",
"960 320 LINE",
"832 320 LINE",
"832 384 LINE",
"960 384 LINE",
"960 384 OFFCURVE",
"1024 384 OFFCURVE",
"1024 320 CURVE"
);
},
{
closed = 1;
nodes = (
"1280 320 OFFCURVE",
"1280 320 OFFCURVE",
"1280 256 CURVE",
"1280 192 OFFCURVE",
"1152 64 OFFCURVE",
"1152 64 CURVE",
"1280 64 LINE",
"1280 0 LINE",
"1088 0 LINE",
"1088 64 LINE",
"1088 128 OFFCURVE",
"1216 192 OFFCURVE",
"1216 256 CURVE",
"1216 320 LINE",
"1152 320 LINE",
"1152 256 LINE",
"1088 256 LINE",
"1088 320 LINE",
"1088 320 OFFCURVE",
"1088 384 OFFCURVE",
"1152 384 CURVE",
"1216 384 OFFCURVE",
"1152 384 OFFCURVE",
"1216 384 CURVE SMOOTH",
"1280 384 OFFCURVE",
"1280 320 OFFCURVE",
"1280 320 CURVE"
);
},
{
closed = 1;
nodes = (
"1536 320 OFFCURVE",
"1536 320 OFFCURVE",
"1536 256 CURVE",
"1536 192 OFFCURVE",
"1408 64 OFFCURVE",
"1408 64 CURVE",
"1536 64 LINE",
"1536 0 LINE",
"1344 0 LINE",
"1344 64 LINE",
"1344 128 OFFCURVE",
"1472 192 OFFCURVE",
"1472 256 CURVE",
"1472 320 LINE",
"1408 320 LINE",
"1408 256 LINE",
"1344 256 LINE",
"1344 320 LINE",
"1344 320 OFFCURVE",
"1344 384 OFFCURVE",
"1408 384 CURVE",
"1472 384 OFFCURVE",
"1408 384 OFFCURVE",
"1472 384 CURVE SMOOTH",
"1536 384 OFFCURVE",
"1536 320 OFFCURVE",
"1536 320 CURVE"
);
},
{
closed = 1;
nodes = (
"768 384 LINE",
"768 384 OFFCURVE",
"768 320 OFFCURVE",
"768 320 CURVE",
"640 320 LINE",
"640 192 LINE",
"768 192 LINE",
"768 128 LINE",
"640 128 LINE",
"640 0 LINE",
"576 0 LINE",
"576 320 LINE",
"576 384 OFFCURVE",
"640 384 OFFCURVE",
"640 384 CURVE"
);
}
);
width = 1792;
}
);
unicode = F722;
},
{
glyphname = unif723;
lastChange = "2013-04-19 13:51:34 +0000";
layers = (
{
layerId = "9E59A49A-007A-404C-A74D-3DDF46CAEF34";
name = Regular;
paths = (
{
closed = 1;
nodes = (
"1664 1280 LINE SMOOTH",
"1664 1344 OFFCURVE",
"1600 1408 OFFCURVE",
"1536 1408 CURVE SMOOTH",
"256 1408 LINE SMOOTH",
"192 1408 OFFCURVE",
"128 1344 OFFCURVE",
"128 1280 CURVE SMOOTH",
"128 0 LINE SMOOTH",
"128 -64 OFFCURVE",
"192 -128 OFFCURVE",
"256 -128 CURVE SMOOTH",
"1536 -128 LINE SMOOTH",
"1600 -128 OFFCURVE",
"1664 -64 OFFCURVE",
"1664 0 CURVE SMOOTH"
);
},
{
closed = 1;
nodes = (
"1024 0 LINE",
"960 0 LINE",
"960 320 LINE",
"832 320 LINE",
"832 384 LINE",
"960 384 LINE",
"960 384 OFFCURVE",
"1024 384 OFFCURVE",
"1024 320 CURVE"
);
},
{
closed = 1;
nodes = (
"1344 384 OFFCURVE",
"1408 384 OFFCURVE",
"1408 384 CURVE SMOOTH",
"1408 384 OFFCURVE",
"1408 384 OFFCURVE",
"1472 384 CURVE SMOOTH",
"1536 384 OFFCURVE",
"1536 320 OFFCURVE",
"1536 320 CURVE SMOOTH",
"1536 320 OFFCURVE",
"1536 288 OFFCURVE",
"1536 256 CURVE SMOOTH",
"1536 224 OFFCURVE",
"1504 224 OFFCURVE",
"1504 224 CURVE SMOOTH",
"1504 224 OFFCURVE",
"1536 224 OFFCURVE",
"1536 192 CURVE SMOOTH",
"1536 160 OFFCURVE",
"1536 128 OFFCURVE",
"1536 64 CURVE SMOOTH",
"1536 0 OFFCURVE",
"1472 0 OFFCURVE",
"1472 0 CURVE SMOOTH",
"1472 0 OFFCURVE",
"1472 0 OFFCURVE",
"1408 0 CURVE SMOOTH",
"1344 0 OFFCURVE",
"1344 64 OFFCURVE",
"1344 64 CURVE SMOOTH",
"1344 128 LINE",
"1408 128 LINE",
"1408 64 LINE",
"1472 64 LINE",
"1472 192 LINE",
"1408 192 LINE",
"1408 256 LINE",
"1472 256 LINE",
"1472 320 LINE",
"1344 320 LINE"
);
},
{
closed = 1;
nodes = (
"1280 320 OFFCURVE",
"1280 320 OFFCURVE",
"1280 256 CURVE",
"1280 192 OFFCURVE",
"1152 64 OFFCURVE",
"1152 64 CURVE",
"1280 64 LINE",
"1280 0 LINE",
"1088 0 LINE",
"1088 64 LINE",
"1088 128 OFFCURVE",
"1216 192 OFFCURVE",
"1216 256 CURVE",
"1216 320 LINE",
"1152 320 LINE",
"1152 256 LINE",
"1088 256 LINE",
"1088 320 LINE",
"1088 320 OFFCURVE",
"1088 384 OFFCURVE",
"1152 384 CURVE",
"1216 384 OFFCURVE",
"1152 384 OFFCURVE",
"1216 384 CURVE SMOOTH",
"1280 384 OFFCURVE",
"1280 320 OFFCURVE",
"1280 320 CURVE"
);
},
{
closed = 1;
nodes = (
"768 384 LINE",
"768 384 OFFCURVE",
"768 320 OFFCURVE",
"768 320 CURVE",
"640 320 LINE",
"640 192 LINE",
"768 192 LINE",
"768 128 LINE",
"640 128 LINE",
"640 0 LINE",
"576 0 LINE",
"576 320 LINE",
"576 384 OFFCURVE",
"640 384 OFFCURVE",
"640 384 CURVE"
);
}
);
width = 1792;
}
);
unicode = F723;
},
{
glyphname = unif724;
lastChange = "2013-04-19 13:51:38 +0000";
layers = (
{
layerId = "9E59A49A-007A-404C-A74D-3DDF46CAEF34";
name = Regular;
paths = (
{
closed = 1;
nodes = (
"1664 1280 LINE SMOOTH",
"1664 1344 OFFCURVE",
"1600 1408 OFFCURVE",
"1536 1408 CURVE SMOOTH",
"256 1408 LINE SMOOTH",
"192 1408 OFFCURVE",
"128 1344 OFFCURVE",
"128 1280 CURVE SMOOTH",
"128 0 LINE SMOOTH",
"128 -64 OFFCURVE",
"192 -128 OFFCURVE",
"256 -128 CURVE SMOOTH",
"1536 -128 LINE SMOOTH",
"1600 -128 OFFCURVE",
"1664 -64 OFFCURVE",
"1664 0 CURVE SMOOTH"
);
},
{
closed = 1;
nodes = (
"1024 0 LINE",
"960 0 LINE",
"960 320 LINE",
"832 320 LINE",
"832 384 LINE",
"960 384 LINE",
"960 384 OFFCURVE",
"1024 384 OFFCURVE",
"1024 320 CURVE"
);
},
{
closed = 1;
nodes = (
"1408 128 OFFCURVE",
"1344 128 OFFCURVE",
"1344 192 CURVE",
"1344 256 OFFCURVE",
"1344 320 OFFCURVE",
"1344 384 CURVE",
"1408 384 LINE",
"1408 192 LINE",
"1472 192 LINE",
"1472 384 LINE",
"1536 384 LINE",
"1536 0 LINE",
"1472 0 LINE",
"1472 128 LINE",
"1408 128 LINE"
);
},
{
closed = 1;
nodes = (
"1280 320 OFFCURVE",
"1280 320 OFFCURVE",
"1280 256 CURVE",
"1280 192 OFFCURVE",
"1152 64 OFFCURVE",
"1152 64 CURVE",
"1280 64 LINE",
"1280 0 LINE",
"1088 0 LINE",
"1088 64 LINE",
"1088 128 OFFCURVE",
"1216 192 OFFCURVE",
"1216 256 CURVE",
"1216 320 LINE",
"1152 320 LINE",
"1152 256 LINE",
"1088 256 LINE",
"1088 320 LINE",
"1088 320 OFFCURVE",
"1088 384 OFFCURVE",
"1152 384 CURVE",
"1216 384 OFFCURVE",
"1152 384 OFFCURVE",
"1216 384 CURVE SMOOTH",
"1280 384 OFFCURVE",
"1280 320 OFFCURVE",
"1280 320 CURVE"
);
},
{
closed = 1;
nodes = (
"768 384 LINE",
"768 384 OFFCURVE",
"768 320 OFFCURVE",
"768 320 CURVE",
"640 320 LINE",
"640 192 LINE",
"768 192 LINE",
"768 128 LINE",
"640 128 LINE",
"640 0 LINE",
"576 0 LINE",
"576 320 LINE",
"576 384 OFFCURVE",
"640 384 OFFCURVE",
"640 384 CURVE"
);
}
);
width = 1792;
}
);
unicode = F724;
},
{
glyphname = unif725;
lastChange = "2013-04-19 13:51:41 +0000";
layers = (
{
layerId = "9E59A49A-007A-404C-A74D-3DDF46CAEF34";
name = Regular;
paths = (
{
closed = 1;
nodes = (
"1664 1280 LINE SMOOTH",
"1664 1344 OFFCURVE",
"1600 1408 OFFCURVE",
"1536 1408 CURVE SMOOTH",
"256 1408 LINE SMOOTH",
"192 1408 OFFCURVE",
"128 1344 OFFCURVE",
"128 1280 CURVE SMOOTH",
"128 0 LINE SMOOTH",
"128 -64 OFFCURVE",
"192 -128 OFFCURVE",
"256 -128 CURVE SMOOTH",
"1536 -128 LINE SMOOTH",
"1600 -128 OFFCURVE",
"1664 -64 OFFCURVE",
"1664 0 CURVE SMOOTH"
);
},
{
closed = 1;
nodes = (
"1024 0 LINE",
"960 0 LINE",
"960 320 LINE",
"832 320 LINE",
"832 384 LINE",
"960 384 LINE",
"960 384 OFFCURVE",
"1024 384 OFFCURVE",
"1024 320 CURVE"
);
},
{
closed = 1;
nodes = (
"1536 384 LINE",
"1536 320 LINE",
"1408 320 LINE",
"1408 256 LINE",
"1440 256 OFFCURVE",
"1408 256 OFFCURVE",
"1472 256 CURVE",
"1536 256 OFFCURVE",
"1536 192 OFFCURVE",
"1536 192 CURVE SMOOTH",
"1536 192 OFFCURVE",
"1536 128 OFFCURVE",
"1536 64 CURVE SMOOTH",
"1536 0 OFFCURVE",
"1472 0 OFFCURVE",
"1472 0 CURVE SMOOTH",
"1472 0 OFFCURVE",
"1472 0 OFFCURVE",
"1408 0 CURVE SMOOTH",
"1344 0 OFFCURVE",
"1344 64 OFFCURVE",
"1344 64 CURVE SMOOTH",
"1344 128 LINE",
"1408 128 LINE",
"1408 64 LINE",
"1472 64 LINE",
"1472 192 LINE",
"1344 192 LINE",
"1344 384 LINE"
);
},
{
closed = 1;
nodes = (
"1280 320 OFFCURVE",
"1280 320 OFFCURVE",
"1280 256 CURVE",
"1280 192 OFFCURVE",
"1152 64 OFFCURVE",
"1152 64 CURVE",
"1280 64 LINE",
"1280 0 LINE",
"1088 0 LINE",
"1088 64 LINE",
"1088 128 OFFCURVE",
"1216 192 OFFCURVE",
"1216 256 CURVE",
"1216 320 LINE",
"1152 320 LINE",
"1152 256 LINE",
"1088 256 LINE",
"1088 320 LINE",
"1088 320 OFFCURVE",
"1088 384 OFFCURVE",
"1152 384 CURVE",
"1216 384 OFFCURVE",
"1152 384 OFFCURVE",
"1216 384 CURVE SMOOTH",
"1280 384 OFFCURVE",
"1280 320 OFFCURVE",
"1280 320 CURVE"
);
},
{
closed = 1;
nodes = (
"768 384 LINE",
"768 384 OFFCURVE",
"768 320 OFFCURVE",
"768 320 CURVE",
"640 320 LINE",
"640 192 LINE",
"768 192 LINE",
"768 128 LINE",
"640 128 LINE",
"640 0 LINE",
"576 0 LINE",
"576 320 LINE",
"576 384 OFFCURVE",
"640 384 OFFCURVE",
"640 384 CURVE"
);
}
);
width = 1792;
}
);
unicode = F725;
},
{
glyphname = unif726;
lastChange = "2013-04-19 13:51:45 +0000";
layers = (
{
layerId = "9E59A49A-007A-404C-A74D-3DDF46CAEF34";
name = Regular;
paths = (
{
closed = 1;
nodes = (
"1664 1280 LINE SMOOTH",
"1664 1344 OFFCURVE",
"1600 1408 OFFCURVE",
"1536 1408 CURVE SMOOTH",
"256 1408 LINE SMOOTH",
"192 1408 OFFCURVE",
"128 1344 OFFCURVE",
"128 1280 CURVE SMOOTH",
"128 0 LINE SMOOTH",
"128 -64 OFFCURVE",
"192 -128 OFFCURVE",
"256 -128 CURVE SMOOTH",
"1536 -128 LINE SMOOTH",
"1600 -128 OFFCURVE",
"1664 -64 OFFCURVE",
"1664 0 CURVE SMOOTH"
);
},
{
closed = 1;
nodes = (
"1024 0 LINE",
"960 0 LINE",
"960 320 LINE",
"832 320 LINE",
"832 384 LINE",
"960 384 LINE",
"960 384 OFFCURVE",
"1024 384 OFFCURVE",
"1024 320 CURVE"
);
},
{
closed = 1;
nodes = (
"1536 320 LINE",
"1408 320 LINE",
"1408 256 LINE",
"1472 256 LINE SMOOTH",
"1472 256 OFFCURVE",
"1536 256 OFFCURVE",
"1536 192 CURVE SMOOTH",
"1536 128 OFFCURVE",
"1536 64 OFFCURVE",
"1536 64 CURVE SMOOTH",
"1536 64 OFFCURVE",
"1536 0 OFFCURVE",
"1472 0 CURVE SMOOTH",
"1408 0 OFFCURVE",
"1408 0 OFFCURVE",
"1408 0 CURVE SMOOTH",
"1408 0 OFFCURVE",
"1344 0 OFFCURVE",
"1344 64 CURVE SMOOTH",
"1344 128 OFFCURVE",
"1344 320 OFFCURVE",
"1344 320 CURVE SMOOTH",
"1344 320 OFFCURVE",
"1344 384 OFFCURVE",
"1408 384 CURVE",
"1472 384 OFFCURVE",
"1504 384 OFFCURVE",
"1536 384 CURVE"
);
},
{
closed = 1;
nodes = (
"1440 192 OFFCURVE",
"1472 192 OFFCURVE",
"1472 192 CURVE",
"1472 64 LINE",
"1408 64 LINE",
"1408 192 LINE"
);
},
{
closed = 1;
nodes = (
"1280 320 OFFCURVE",
"1280 320 OFFCURVE",
"1280 256 CURVE",
"1280 192 OFFCURVE",
"1152 64 OFFCURVE",
"1152 64 CURVE",
"1280 64 LINE",
"1280 0 LINE",
"1088 0 LINE",
"1088 64 LINE",
"1088 128 OFFCURVE",
"1216 192 OFFCURVE",
"1216 256 CURVE",
"1216 320 LINE",
"1152 320 LINE",
"1152 256 LINE",
"1088 256 LINE",
"1088 320 LINE",
"1088 320 OFFCURVE",
"1088 384 OFFCURVE",
"1152 384 CURVE",
"1216 384 OFFCURVE",
"1152 384 OFFCURVE",
"1216 384 CURVE SMOOTH",
"1280 384 OFFCURVE",
"1280 320 OFFCURVE",
"1280 320 CURVE"
);
},
{
closed = 1;
nodes = (
"768 384 LINE",
"768 384 OFFCURVE",
"768 320 OFFCURVE",
"768 320 CURVE",
"640 320 LINE",
"640 192 LINE",
"768 192 LINE",
"768 128 LINE",
"640 128 LINE",
"640 0 LINE",
"576 0 LINE",
"576 320 LINE",
"576 384 OFFCURVE",
"640 384 OFFCURVE",
"640 384 CURVE"
);
}
);
width = 1792;
}
);
unicode = F726;
},
{
glyphname = unif727;
lastChange = "2013-04-19 13:51:52 +0000";
layers = (
{
layerId = "9E59A49A-007A-404C-A74D-3DDF46CAEF34";
name = Regular;
paths = (
{
closed = 1;
nodes = (
"1664 1280 LINE SMOOTH",
"1664 1344 OFFCURVE",
"1600 1408 OFFCURVE",
"1536 1408 CURVE SMOOTH",
"256 1408 LINE SMOOTH",
"192 1408 OFFCURVE",
"128 1344 OFFCURVE",
"128 1280 CURVE SMOOTH",
"128 0 LINE SMOOTH",
"128 -64 OFFCURVE",
"192 -128 OFFCURVE",
"256 -128 CURVE SMOOTH",
"1536 -128 LINE SMOOTH",
"1600 -128 OFFCURVE",
"1664 -64 OFFCURVE",
"1664 0 CURVE SMOOTH"
);
},
{
closed = 1;
nodes = (
"1024 0 LINE",
"960 0 LINE",
"960 320 LINE",
"832 320 LINE",
"832 384 LINE",
"960 384 LINE",
"960 384 OFFCURVE",
"1024 384 OFFCURVE",
"1024 320 CURVE"
);
},
{
closed = 1;
nodes = (
"1536 0 LINE",
"1472 0 LINE",
"1472 320 LINE",
"1344 320 LINE",
"1344 384 LINE",
"1472 384 LINE",
"1472 384 OFFCURVE",
"1536 384 OFFCURVE",
"1536 320 CURVE"
);
},
{
closed = 1;
nodes = (
"1280 320 OFFCURVE",
"1280 320 OFFCURVE",
"1280 256 CURVE",
"1280 192 OFFCURVE",
"1152 64 OFFCURVE",
"1152 64 CURVE",
"1280 64 LINE",
"1280 0 LINE",
"1088 0 LINE",
"1088 64 LINE",
"1088 128 OFFCURVE",
"1216 192 OFFCURVE",
"1216 256 CURVE",
"1216 320 LINE",
"1152 320 LINE",
"1152 256 LINE",
"1088 256 LINE",
"1088 320 LINE",
"1088 320 OFFCURVE",
"1088 384 OFFCURVE",
"1152 384 CURVE",
"1216 384 OFFCURVE",
"1152 384 OFFCURVE",
"1216 384 CURVE SMOOTH",
"1280 384 OFFCURVE",
"1280 320 OFFCURVE",
"1280 320 CURVE"
);
},
{
closed = 1;
nodes = (
"768 384 LINE",
"768 384 OFFCURVE",
"768 320 OFFCURVE",
"768 320 CURVE",
"640 320 LINE",
"640 192 LINE",
"768 192 LINE",
"768 128 LINE",
"640 128 LINE",
"640 0 LINE",
"576 0 LINE",
"576 320 LINE",
"576 384 OFFCURVE",
"640 384 OFFCURVE",
"640 384 CURVE"
);
}
);
width = 1792;
}
);
unicode = F727;
},
{
glyphname = unif728;
lastChange = "2013-04-19 13:51:56 +0000";
layers = (
{
layerId = "9E59A49A-007A-404C-A74D-3DDF46CAEF34";
name = Regular;
paths = (
{
closed = 1;
nodes = (
"1664 1280 LINE SMOOTH",
"1664 1344 OFFCURVE",
"1600 1408 OFFCURVE",
"1536 1408 CURVE SMOOTH",
"256 1408 LINE SMOOTH",
"192 1408 OFFCURVE",
"128 1344 OFFCURVE",
"128 1280 CURVE SMOOTH",
"128 0 LINE SMOOTH",
"128 -64 OFFCURVE",
"192 -128 OFFCURVE",
"256 -128 CURVE SMOOTH",
"1536 -128 LINE SMOOTH",
"1600 -128 OFFCURVE",
"1664 -64 OFFCURVE",
"1664 0 CURVE SMOOTH"
);
},
{
closed = 1;
nodes = (
"1024 0 LINE",
"960 0 LINE",
"960 320 LINE",
"832 320 LINE",
"832 384 LINE",
"960 384 LINE",
"960 384 OFFCURVE",
"1024 384 OFFCURVE",
"1024 320 CURVE"
);
},
{
closed = 1;
nodes = (
"1536 288 OFFCURVE",
"1536 288 OFFCURVE",
"1536 256 CURVE",
"1536 224 OFFCURVE",
"1504 224 OFFCURVE",
"1504 224 CURVE SMOOTH",
"1504 224 OFFCURVE",
"1536 224 OFFCURVE",
"1536 192 CURVE SMOOTH",
"1536 160 OFFCURVE",
"1536 128 OFFCURVE",
"1536 64 CURVE SMOOTH",
"1536 0 OFFCURVE",
"1472 0 OFFCURVE",
"1472 0 CURVE SMOOTH",
"1472 0 OFFCURVE",
"1472 0 OFFCURVE",
"1408 0 CURVE SMOOTH",
"1344 0 OFFCURVE",
"1344 64 OFFCURVE",
"1344 64 CURVE SMOOTH",
"1344 64 OFFCURVE",
"1344 160 OFFCURVE",
"1344 192 CURVE SMOOTH",
"1344 224 OFFCURVE",
"1376 224 OFFCURVE",
"1376 224 CURVE SMOOTH",
"1376 224 OFFCURVE",
"1344 224 OFFCURVE",
"1344 256 CURVE SMOOTH",
"1344 320 LINE",
"1344 384 OFFCURVE",
"1408 384 OFFCURVE",
"1408 384 CURVE SMOOTH",
"1408 384 OFFCURVE",
"1408 384 OFFCURVE",
"1472 384 CURVE SMOOTH",
"1536 384 OFFCURVE",
"1536 320 OFFCURVE",
"1536 320 CURVE"
);
},
{
closed = 1;
nodes = (
"1472 320 LINE",
"1472 256 LINE",
"1408 256 LINE",
"1408 320 LINE"
);
},
{
closed = 1;
nodes = (
"1472 192 LINE",
"1472 64 LINE",
"1408 64 LINE",
"1408 192 LINE"
);
},
{
closed = 1;
nodes = (
"1280 320 OFFCURVE",
"1280 320 OFFCURVE",
"1280 256 CURVE",
"1280 192 OFFCURVE",
"1152 64 OFFCURVE",
"1152 64 CURVE",
"1280 64 LINE",
"1280 0 LINE",
"1088 0 LINE",
"1088 64 LINE",
"1088 128 OFFCURVE",
"1216 192 OFFCURVE",
"1216 256 CURVE",
"1216 320 LINE",
"1152 320 LINE",
"1152 256 LINE",
"1088 256 LINE",
"1088 320 LINE",
"1088 320 OFFCURVE",
"1088 384 OFFCURVE",
"1152 384 CURVE",
"1216 384 OFFCURVE",
"1152 384 OFFCURVE",
"1216 384 CURVE SMOOTH",
"1280 384 OFFCURVE",
"1280 320 OFFCURVE",
"1280 320 CURVE"
);
},
{
closed = 1;
nodes = (
"768 384 LINE",
"768 384 OFFCURVE",
"768 320 OFFCURVE",
"768 320 CURVE",
"640 320 LINE",
"640 192 LINE",
"768 192 LINE",
"768 128 LINE",
"640 128 LINE",
"640 0 LINE",
"576 0 LINE",
"576 320 LINE",
"576 384 OFFCURVE",
"640 384 OFFCURVE",
"640 384 CURVE"
);
}
);
width = 1792;
}
);
unicode = F728;
},
{
glyphname = unif729;
lastChange = "2013-04-19 13:51:59 +0000";
layers = (
{
layerId = "9E59A49A-007A-404C-A74D-3DDF46CAEF34";
name = Regular;
paths = (
{
closed = 1;
nodes = (
"1664 1280 LINE SMOOTH",
"1664 1344 OFFCURVE",
"1600 1408 OFFCURVE",
"1536 1408 CURVE SMOOTH",
"256 1408 LINE SMOOTH",
"192 1408 OFFCURVE",
"128 1344 OFFCURVE",
"128 1280 CURVE SMOOTH",
"128 0 LINE SMOOTH",
"128 -64 OFFCURVE",
"192 -128 OFFCURVE",
"256 -128 CURVE SMOOTH",
"1536 -128 LINE SMOOTH",
"1600 -128 OFFCURVE",
"1664 -64 OFFCURVE",
"1664 0 CURVE SMOOTH"
);
},
{
closed = 1;
nodes = (
"1024 0 LINE",
"960 0 LINE",
"960 320 LINE",
"832 320 LINE",
"832 384 LINE",
"960 384 LINE",
"960 384 OFFCURVE",
"1024 384 OFFCURVE",
"1024 320 CURVE"
);
},
{
closed = 1;
nodes = (
"1344 64 LINE",
"1472 64 LINE",
"1472 128 LINE",
"1408 128 LINE SMOOTH",
"1408 128 OFFCURVE",
"1344 128 OFFCURVE",
"1344 192 CURVE SMOOTH",
"1344 256 OFFCURVE",
"1344 320 OFFCURVE",
"1344 320 CURVE SMOOTH",
"1344 320 OFFCURVE",
"1344 384 OFFCURVE",
"1408 384 CURVE SMOOTH",
"1472 384 OFFCURVE",
"1472 384 OFFCURVE",
"1472 384 CURVE SMOOTH",
"1472 384 OFFCURVE",
"1536 384 OFFCURVE",
"1536 320 CURVE SMOOTH",
"1536 256 OFFCURVE",
"1536 64 OFFCURVE",
"1536 64 CURVE SMOOTH",
"1536 64 OFFCURVE",
"1536 0 OFFCURVE",
"1472 0 CURVE",
"1408 0 OFFCURVE",
"1376 0 OFFCURVE",
"1344 0 CURVE"
);
},
{
closed = 1;
nodes = (
"1440 192 OFFCURVE",
"1408 192 OFFCURVE",
"1408 192 CURVE",
"1408 320 LINE",
"1472 320 LINE",
"1472 192 LINE"
);
},
{
closed = 1;
nodes = (
"1280 320 OFFCURVE",
"1280 320 OFFCURVE",
"1280 256 CURVE",
"1280 192 OFFCURVE",
"1152 64 OFFCURVE",
"1152 64 CURVE",
"1280 64 LINE",
"1280 0 LINE",
"1088 0 LINE",
"1088 64 LINE",
"1088 128 OFFCURVE",
"1216 192 OFFCURVE",
"1216 256 CURVE",
"1216 320 LINE",
"1152 320 LINE",
"1152 256 LINE",
"1088 256 LINE",
"1088 320 LINE",
"1088 320 OFFCURVE",
"1088 384 OFFCURVE",
"1152 384 CURVE",
"1216 384 OFFCURVE",
"1152 384 OFFCURVE",
"1216 384 CURVE SMOOTH",
"1280 384 OFFCURVE",
"1280 320 OFFCURVE",
"1280 320 CURVE"
);
},
{
closed = 1;
nodes = (
"768 384 LINE",
"768 384 OFFCURVE",
"768 320 OFFCURVE",
"768 320 CURVE",
"640 320 LINE",
"640 192 LINE",
"768 192 LINE",
"768 128 LINE",
"640 128 LINE",
"640 0 LINE",
"576 0 LINE",
"576 320 LINE",
"576 384 OFFCURVE",
"640 384 OFFCURVE",
"640 384 CURVE"
);
}
);
width = 1792;
}
);
unicode = F729;
},
{
glyphname = unif72a;
lastChange = "2013-04-19 13:52:03 +0000";
layers = (
{
layerId = "9E59A49A-007A-404C-A74D-3DDF46CAEF34";
name = Regular;
paths = (
{
closed = 1;
nodes = (
"1664 1280 LINE SMOOTH",
"1664 1344 OFFCURVE",
"1600 1408 OFFCURVE",
"1536 1408 CURVE SMOOTH",
"256 1408 LINE SMOOTH",
"192 1408 OFFCURVE",
"128 1344 OFFCURVE",
"128 1280 CURVE SMOOTH",
"128 0 LINE SMOOTH",
"128 -64 OFFCURVE",
"192 -128 OFFCURVE",
"256 -128 CURVE SMOOTH",
"1536 -128 LINE SMOOTH",
"1600 -128 OFFCURVE",
"1664 -64 OFFCURVE",
"1664 0 CURVE SMOOTH"
);
},
{
closed = 1;
nodes = (
"1024 0 LINE",
"960 0 LINE",
"960 320 LINE",
"832 320 LINE",
"832 384 LINE",
"960 384 LINE",
"960 384 OFFCURVE",
"1024 384 OFFCURVE",
"1024 320 CURVE"
);
},
{
closed = 1;
nodes = (
"1344 96 OFFCURVE",
"1344 256 OFFCURVE",
"1344 320 CURVE",
"1344 384 OFFCURVE",
"1408 384 OFFCURVE",
"1408 384 CURVE SMOOTH",
"1408 384 OFFCURVE",
"1408 384 OFFCURVE",
"1472 384 CURVE SMOOTH",
"1536 384 OFFCURVE",
"1536 320 OFFCURVE",
"1536 320 CURVE SMOOTH",
"1536 0 LINE",
"1472 0 LINE",
"1472 128 LINE",
"1408 128 LINE",
"1408 0 LINE",
"1344 0 LINE"
);
},
{
closed = 1;
nodes = (
"1440 320 OFFCURVE",
"1472 320 OFFCURVE",
"1472 320 CURVE",
"1472 192 LINE",
"1408 192 LINE",
"1408 320 LINE"
);
},
{
closed = 1;
nodes = (
"1280 320 OFFCURVE",
"1280 320 OFFCURVE",
"1280 256 CURVE",
"1280 192 OFFCURVE",
"1152 64 OFFCURVE",
"1152 64 CURVE",
"1280 64 LINE",
"1280 0 LINE",
"1088 0 LINE",
"1088 64 LINE",
"1088 128 OFFCURVE",
"1216 192 OFFCURVE",
"1216 256 CURVE",
"1216 320 LINE",
"1152 320 LINE",
"1152 256 LINE",
"1088 256 LINE",
"1088 320 LINE",
"1088 320 OFFCURVE",
"1088 384 OFFCURVE",
"1152 384 CURVE",
"1216 384 OFFCURVE",
"1152 384 OFFCURVE",
"1216 384 CURVE SMOOTH",
"1280 384 OFFCURVE",
"1280 320 OFFCURVE",
"1280 320 CURVE"
);
},
{
closed = 1;
nodes = (
"768 384 LINE",
"768 384 OFFCURVE",
"768 320 OFFCURVE",
"768 320 CURVE",
"640 320 LINE",
"640 192 LINE",
"768 192 LINE",
"768 128 LINE",
"640 128 LINE",
"640 0 LINE",
"576 0 LINE",
"576 320 LINE",
"576 384 OFFCURVE",
"640 384 OFFCURVE",
"640 384 CURVE"
);
}
);
width = 1792;
}
);
unicode = F72A;
},
{
glyphname = unif72b;
lastChange = "2013-04-19 13:52:07 +0000";
layers = (
{
layerId = "9E59A49A-007A-404C-A74D-3DDF46CAEF34";
name = Regular;
paths = (
{
closed = 1;
nodes = (
"1664 1280 LINE SMOOTH",
"1664 1344 OFFCURVE",
"1600 1408 OFFCURVE",
"1536 1408 CURVE SMOOTH",
"256 1408 LINE SMOOTH",
"192 1408 OFFCURVE",
"128 1344 OFFCURVE",
"128 1280 CURVE SMOOTH",
"128 0 LINE SMOOTH",
"128 -64 OFFCURVE",
"192 -128 OFFCURVE",
"256 -128 CURVE SMOOTH",
"1536 -128 LINE SMOOTH",
"1600 -128 OFFCURVE",
"1664 -64 OFFCURVE",
"1664 0 CURVE SMOOTH"
);
},
{
closed = 1;
nodes = (
"1024 0 LINE",
"960 0 LINE",
"960 320 LINE",
"832 320 LINE",
"832 384 LINE",
"960 384 LINE",
"960 384 OFFCURVE",
"1024 384 OFFCURVE",
"1024 320 CURVE"
);
},
{
closed = 1;
nodes = (
"1376 384 OFFCURVE",
"1408 384 OFFCURVE",
"1472 384 CURVE",
"1536 384 OFFCURVE",
"1536 320 OFFCURVE",
"1536 320 CURVE SMOOTH",
"1536 320 OFFCURVE",
"1536 288 OFFCURVE",
"1536 256 CURVE SMOOTH",
"1536 224 OFFCURVE",
"1504 224 OFFCURVE",
"1504 224 CURVE SMOOTH",
"1504 224 OFFCURVE",
"1536 224 OFFCURVE",
"1536 192 CURVE SMOOTH",
"1536 160 OFFCURVE",
"1536 128 OFFCURVE",
"1536 64 CURVE SMOOTH",
"1536 0 OFFCURVE",
"1472 0 OFFCURVE",
"1472 0 CURVE SMOOTH",
"1344 0 LINE",
"1344 384 LINE"
);
},
{
closed = 1;
nodes = (
"1472 320 LINE",
"1472 288 OFFCURVE",
"1472 256 OFFCURVE",
"1472 256 CURVE",
"1408 256 LINE",
"1408 320 LINE"
);
},
{
closed = 1;
nodes = (
"1472 64 LINE",
"1472 192 LINE",
"1408 192 LINE",
"1408 64 LINE"
);
},
{
closed = 1;
nodes = (
"1280 320 OFFCURVE",
"1280 320 OFFCURVE",
"1280 256 CURVE",
"1280 192 OFFCURVE",
"1152 64 OFFCURVE",
"1152 64 CURVE",
"1280 64 LINE",
"1280 0 LINE",
"1088 0 LINE",
"1088 64 LINE",
"1088 128 OFFCURVE",
"1216 192 OFFCURVE",
"1216 256 CURVE",
"1216 320 LINE",
"1152 320 LINE",
"1152 256 LINE",
"1088 256 LINE",
"1088 320 LINE",
"1088 320 OFFCURVE",
"1088 384 OFFCURVE",
"1152 384 CURVE",
"1216 384 OFFCURVE",
"1152 384 OFFCURVE",
"1216 384 CURVE SMOOTH",
"1280 384 OFFCURVE",
"1280 320 OFFCURVE",
"1280 320 CURVE"
);
},
{
closed = 1;
nodes = (
"768 384 LINE",
"768 384 OFFCURVE",
"768 320 OFFCURVE",
"768 320 CURVE",
"640 320 LINE",
"640 192 LINE",
"768 192 LINE",
"768 128 LINE",
"640 128 LINE",
"640 0 LINE",
"576 0 LINE",
"576 320 LINE",
"576 384 OFFCURVE",
"640 384 OFFCURVE",
"640 384 CURVE"
);
}
);
width = 1792;
}
);
unicode = F72B;
},
{
glyphname = unif72c;
lastChange = "2013-04-19 13:52:11 +0000";
layers = (
{
layerId = "9E59A49A-007A-404C-A74D-3DDF46CAEF34";
name = Regular;
paths = (
{
closed = 1;
nodes = (
"1664 1280 LINE SMOOTH",
"1664 1344 OFFCURVE",
"1600 1408 OFFCURVE",
"1536 1408 CURVE SMOOTH",
"256 1408 LINE SMOOTH",
"192 1408 OFFCURVE",
"128 1344 OFFCURVE",
"128 1280 CURVE SMOOTH",
"128 0 LINE SMOOTH",
"128 -64 OFFCURVE",
"192 -128 OFFCURVE",
"256 -128 CURVE SMOOTH",
"1536 -128 LINE SMOOTH",
"1600 -128 OFFCURVE",
"1664 -64 OFFCURVE",
"1664 0 CURVE SMOOTH"
);
},
{
closed = 1;
nodes = (
"1024 0 LINE",
"960 0 LINE",
"960 320 LINE",
"832 320 LINE",
"832 384 LINE",
"960 384 LINE",
"960 384 OFFCURVE",
"1024 384 OFFCURVE",
"1024 320 CURVE"
);
},
{
closed = 1;
nodes = (
"1344 384 OFFCURVE",
"1408 384 OFFCURVE",
"1408 384 CURVE SMOOTH",
"1408 384 OFFCURVE",
"1408 384 OFFCURVE",
"1472 384 CURVE SMOOTH",
"1536 384 OFFCURVE",
"1536 320 OFFCURVE",
"1536 320 CURVE SMOOTH",
"1536 256 LINE",
"1472 256 LINE",
"1472 320 LINE",
"1408 320 LINE",
"1408 64 LINE",
"1472 64 LINE",
"1472 128 LINE",
"1536 128 LINE",
"1536 96 OFFCURVE",
"1536 128 OFFCURVE",
"1536 64 CURVE",
"1536 0 OFFCURVE",
"1472 0 OFFCURVE",
"1472 0 CURVE SMOOTH",
"1472 0 OFFCURVE",
"1472 0 OFFCURVE",
"1408 0 CURVE SMOOTH",
"1344 0 OFFCURVE",
"1344 64 OFFCURVE",
"1344 64 CURVE SMOOTH",
"1344 320 LINE"
);
},
{
closed = 1;
nodes = (
"1280 320 OFFCURVE",
"1280 320 OFFCURVE",
"1280 256 CURVE",
"1280 192 OFFCURVE",
"1152 64 OFFCURVE",
"1152 64 CURVE",
"1280 64 LINE",
"1280 0 LINE",
"1088 0 LINE",
"1088 64 LINE",
"1088 128 OFFCURVE",
"1216 192 OFFCURVE",
"1216 256 CURVE",
"1216 320 LINE",
"1152 320 LINE",
"1152 256 LINE",
"1088 256 LINE",
"1088 320 LINE",
"1088 320 OFFCURVE",
"1088 384 OFFCURVE",
"1152 384 CURVE",
"1216 384 OFFCURVE",
"1152 384 OFFCURVE",
"1216 384 CURVE SMOOTH",
"1280 384 OFFCURVE",
"1280 320 OFFCURVE",
"1280 320 CURVE"
);
},
{
closed = 1;
nodes = (
"768 384 LINE",
"768 384 OFFCURVE",
"768 320 OFFCURVE",
"768 320 CURVE",
"640 320 LINE",
"640 192 LINE",
"768 192 LINE",
"768 128 LINE",
"640 128 LINE",
"640 0 LINE",
"576 0 LINE",
"576 320 LINE",
"576 384 OFFCURVE",
"640 384 OFFCURVE",
"640 384 CURVE"
);
}
);
width = 1792;
}
);
unicode = F72C;
},
{
glyphname = unif72d;
lastChange = "2013-04-19 13:52:16 +0000";
layers = (
{
layerId = "9E59A49A-007A-404C-A74D-3DDF46CAEF34";
name = Regular;
paths = (
{
closed = 1;
nodes = (
"1664 1280 LINE SMOOTH",
"1664 1344 OFFCURVE",
"1600 1408 OFFCURVE",
"1536 1408 CURVE SMOOTH",
"256 1408 LINE SMOOTH",
"192 1408 OFFCURVE",
"128 1344 OFFCURVE",
"128 1280 CURVE SMOOTH",
"128 0 LINE SMOOTH",
"128 -64 OFFCURVE",
"192 -128 OFFCURVE",
"256 -128 CURVE SMOOTH",
"1536 -128 LINE SMOOTH",
"1600 -128 OFFCURVE",
"1664 -64 OFFCURVE",
"1664 0 CURVE SMOOTH"
);
},
{
closed = 1;
nodes = (
"1024 0 LINE",
"960 0 LINE",
"960 320 LINE",
"832 320 LINE",
"832 384 LINE",
"960 384 LINE",
"960 384 OFFCURVE",
"1024 384 OFFCURVE",
"1024 320 CURVE"
);
},
{
closed = 1;
nodes = (
"1376 384 OFFCURVE",
"1408 384 OFFCURVE",
"1472 384 CURVE",
"1536 384 OFFCURVE",
"1536 320 OFFCURVE",
"1536 320 CURVE SMOOTH",
"1536 320 OFFCURVE",
"1536 128 OFFCURVE",
"1536 64 CURVE SMOOTH",
"1536 0 OFFCURVE",
"1472 0 OFFCURVE",
"1472 0 CURVE SMOOTH",
"1344 0 LINE",
"1344 384 LINE"
);
},
{
closed = 1;
nodes = (
"1472 320 LINE",
"1472 64 LINE",
"1408 64 LINE",
"1408 320 LINE"
);
},
{
closed = 1;
nodes = (
"1280 320 OFFCURVE",
"1280 320 OFFCURVE",
"1280 256 CURVE",
"1280 192 OFFCURVE",
"1152 64 OFFCURVE",
"1152 64 CURVE",
"1280 64 LINE",
"1280 0 LINE",
"1088 0 LINE",
"1088 64 LINE",
"1088 128 OFFCURVE",
"1216 192 OFFCURVE",
"1216 256 CURVE",
"1216 320 LINE",
"1152 320 LINE",
"1152 256 LINE",
"1088 256 LINE",
"1088 320 LINE",
"1088 320 OFFCURVE",
"1088 384 OFFCURVE",
"1152 384 CURVE",
"1216 384 OFFCURVE",
"1152 384 OFFCURVE",
"1216 384 CURVE SMOOTH",
"1280 384 OFFCURVE",
"1280 320 OFFCURVE",
"1280 320 CURVE"
);
},
{
closed = 1;
nodes = (
"768 384 LINE",
"768 384 OFFCURVE",
"768 320 OFFCURVE",
"768 320 CURVE",
"640 320 LINE",
"640 192 LINE",
"768 192 LINE",
"768 128 LINE",
"640 128 LINE",
"640 0 LINE",
"576 0 LINE",
"576 320 LINE",
"576 384 OFFCURVE",
"640 384 OFFCURVE",
"640 384 CURVE"
);
}
);
width = 1792;
}
);
unicode = F72D;
},
{
glyphname = unif72e;
lastChange = "2013-04-19 13:52:19 +0000";
layers = (
{
layerId = "9E59A49A-007A-404C-A74D-3DDF46CAEF34";
name = Regular;
paths = (
{
closed = 1;
nodes = (
"1664 1280 LINE SMOOTH",
"1664 1344 OFFCURVE",
"1600 1408 OFFCURVE",
"1536 1408 CURVE SMOOTH",
"256 1408 LINE SMOOTH",
"192 1408 OFFCURVE",
"128 1344 OFFCURVE",
"128 1280 CURVE SMOOTH",
"128 0 LINE SMOOTH",
"128 -64 OFFCURVE",
"192 -128 OFFCURVE",
"256 -128 CURVE SMOOTH",
"1536 -128 LINE SMOOTH",
"1600 -128 OFFCURVE",
"1664 -64 OFFCURVE",
"1664 0 CURVE SMOOTH"
);
},
{
closed = 1;
nodes = (
"1024 0 LINE",
"960 0 LINE",
"960 320 LINE",
"832 320 LINE",
"832 384 LINE",
"960 384 LINE",
"960 384 OFFCURVE",
"1024 384 OFFCURVE",
"1024 320 CURVE"
);
},
{
closed = 1;
nodes = (
"1536 384 LINE",
"1536 320 LINE",
"1408 320 LINE",
"1408 256 LINE",
"1536 256 LINE",
"1536 192 LINE",
"1408 192 LINE",
"1408 64 LINE",
"1536 64 LINE",
"1536 0 LINE",
"1344 0 LINE",
"1344 96 OFFCURVE",
"1344 256 OFFCURVE",
"1344 320 CURVE",
"1344 384 OFFCURVE",
"1408 384 OFFCURVE",
"1408 384 CURVE SMOOTH"
);
},
{
closed = 1;
nodes = (
"1280 320 OFFCURVE",
"1280 320 OFFCURVE",
"1280 256 CURVE",
"1280 192 OFFCURVE",
"1152 64 OFFCURVE",
"1152 64 CURVE",
"1280 64 LINE",
"1280 0 LINE",
"1088 0 LINE",
"1088 64 LINE",
"1088 128 OFFCURVE",
"1216 192 OFFCURVE",
"1216 256 CURVE",
"1216 320 LINE",
"1152 320 LINE",
"1152 256 LINE",
"1088 256 LINE",
"1088 320 LINE",
"1088 320 OFFCURVE",
"1088 384 OFFCURVE",
"1152 384 CURVE",
"1216 384 OFFCURVE",
"1152 384 OFFCURVE",
"1216 384 CURVE SMOOTH",
"1280 384 OFFCURVE",
"1280 320 OFFCURVE",
"1280 320 CURVE"
);
},
{
closed = 1;
nodes = (
"768 384 LINE",
"768 384 OFFCURVE",
"768 320 OFFCURVE",
"768 320 CURVE",
"640 320 LINE",
"640 192 LINE",
"768 192 LINE",
"768 128 LINE",
"640 128 LINE",
"640 0 LINE",
"576 0 LINE",
"576 320 LINE",
"576 384 OFFCURVE",
"640 384 OFFCURVE",
"640 384 CURVE"
);
}
);
width = 1792;
}
);
unicode = F72E;
},
{
glyphname = unif72f;
lastChange = "2013-04-19 13:52:23 +0000";
layers = (
{
layerId = "9E59A49A-007A-404C-A74D-3DDF46CAEF34";
name = Regular;
paths = (
{
closed = 1;
nodes = (
"1664 1280 LINE SMOOTH",
"1664 1344 OFFCURVE",
"1600 1408 OFFCURVE",
"1536 1408 CURVE SMOOTH",
"256 1408 LINE SMOOTH",
"192 1408 OFFCURVE",
"128 1344 OFFCURVE",
"128 1280 CURVE SMOOTH",
"128 0 LINE SMOOTH",
"128 -64 OFFCURVE",
"192 -128 OFFCURVE",
"256 -128 CURVE SMOOTH",
"1536 -128 LINE SMOOTH",
"1600 -128 OFFCURVE",
"1664 -64 OFFCURVE",
"1664 0 CURVE SMOOTH"
);
},
{
closed = 1;
nodes = (
"1024 0 LINE",
"960 0 LINE",
"960 320 LINE",
"832 320 LINE",
"832 384 LINE",
"960 384 LINE",
"960 384 OFFCURVE",
"1024 384 OFFCURVE",
"1024 320 CURVE"
);
},
{
closed = 1;
nodes = (
"1536 384 LINE",
"1536 384 OFFCURVE",
"1536 320 OFFCURVE",
"1536 320 CURVE",
"1408 320 LINE",
"1408 192 LINE",
"1536 192 LINE",
"1536 128 LINE",
"1408 128 LINE",
"1408 0 LINE",
"1344 0 LINE",
"1344 320 LINE",
"1344 384 OFFCURVE",
"1408 384 OFFCURVE",
"1408 384 CURVE"
);
},
{
closed = 1;
nodes = (
"1280 320 OFFCURVE",
"1280 320 OFFCURVE",
"1280 256 CURVE",
"1280 192 OFFCURVE",
"1152 64 OFFCURVE",
"1152 64 CURVE",
"1280 64 LINE",
"1280 0 LINE",
"1088 0 LINE",
"1088 64 LINE",
"1088 128 OFFCURVE",
"1216 192 OFFCURVE",
"1216 256 CURVE",
"1216 320 LINE",
"1152 320 LINE",
"1152 256 LINE",
"1088 256 LINE",
"1088 320 LINE",
"1088 320 OFFCURVE",
"1088 384 OFFCURVE",
"1152 384 CURVE",
"1216 384 OFFCURVE",
"1152 384 OFFCURVE",
"1216 384 CURVE SMOOTH",
"1280 384 OFFCURVE",
"1280 320 OFFCURVE",
"1280 320 CURVE"
);
},
{
closed = 1;
nodes = (
"768 384 LINE",
"768 384 OFFCURVE",
"768 320 OFFCURVE",
"768 320 CURVE",
"640 320 LINE",
"640 192 LINE",
"768 192 LINE",
"768 128 LINE",
"640 128 LINE",
"640 0 LINE",
"576 0 LINE",
"576 320 LINE",
"576 384 OFFCURVE",
"640 384 OFFCURVE",
"640 384 CURVE"
);
}
);
width = 1792;
}
);
unicode = F72F;
},
{
glyphname = unif730;
lastChange = "2013-04-19 13:52:27 +0000";
layers = (
{
layerId = "9E59A49A-007A-404C-A74D-3DDF46CAEF34";
name = Regular;
paths = (
{
closed = 1;
nodes = (
"1664 1280 LINE SMOOTH",
"1664 1344 OFFCURVE",
"1600 1408 OFFCURVE",
"1536 1408 CURVE SMOOTH",
"256 1408 LINE SMOOTH",
"192 1408 OFFCURVE",
"128 1344 OFFCURVE",
"128 1280 CURVE SMOOTH",
"128 0 LINE SMOOTH",
"128 -64 OFFCURVE",
"192 -128 OFFCURVE",
"256 -128 CURVE SMOOTH",
"1536 -128 LINE SMOOTH",
"1600 -128 OFFCURVE",
"1664 -64 OFFCURVE",
"1664 0 CURVE SMOOTH"
);
},
{
closed = 1;
nodes = (
"1024 0 LINE",
"960 0 LINE",
"960 320 LINE",
"832 320 LINE",
"832 384 LINE",
"960 384 LINE",
"960 384 OFFCURVE",
"1024 384 OFFCURVE",
"1024 320 CURVE"
);
},
{
closed = 1;
nodes = (
"1536 384 OFFCURVE",
"1536 320 OFFCURVE",
"1536 320 CURVE SMOOTH",
"1536 320 OFFCURVE",
"1536 128 OFFCURVE",
"1536 64 CURVE SMOOTH",
"1536 64 OFFCURVE",
"1536 0 OFFCURVE",
"1472 0 CURVE SMOOTH",
"1472 0 OFFCURVE",
"1472 0 OFFCURVE",
"1408 0 CURVE SMOOTH",
"1344 0 OFFCURVE",
"1344 64 OFFCURVE",
"1344 64 CURVE SMOOTH",
"1344 320 LINE",
"1344 320 OFFCURVE",
"1344 384 OFFCURVE",
"1408 384 CURVE",
"1472 384 OFFCURVE",
"1408 384 OFFCURVE",
"1472 384 CURVE"
);
},
{
closed = 1;
nodes = (
"1472 320 LINE",
"1408 320 LINE",
"1408 64 LINE",
"1472 64 LINE"
);
},
{
closed = 1;
nodes = (
"1088 384 OFFCURVE",
"1152 384 OFFCURVE",
"1152 384 CURVE SMOOTH",
"1152 384 OFFCURVE",
"1152 384 OFFCURVE",
"1216 384 CURVE SMOOTH",
"1280 384 OFFCURVE",
"1280 320 OFFCURVE",
"1280 320 CURVE SMOOTH",
"1280 320 OFFCURVE",
"1280 288 OFFCURVE",
"1280 256 CURVE SMOOTH",
"1280 224 OFFCURVE",
"1248 224 OFFCURVE",
"1248 224 CURVE SMOOTH",
"1248 224 OFFCURVE",
"1280 224 OFFCURVE",
"1280 192 CURVE SMOOTH",
"1280 160 OFFCURVE",
"1280 128 OFFCURVE",
"1280 64 CURVE SMOOTH",
"1280 0 OFFCURVE",
"1216 0 OFFCURVE",
"1216 0 CURVE SMOOTH",
"1216 0 OFFCURVE",
"1216 0 OFFCURVE",
"1152 0 CURVE SMOOTH",
"1088 0 OFFCURVE",
"1088 64 OFFCURVE",
"1088 64 CURVE SMOOTH",
"1088 128 LINE",
"1152 128 LINE",
"1152 64 LINE",
"1216 64 LINE",
"1216 192 LINE",
"1152 192 LINE",
"1152 256 LINE",
"1216 256 LINE",
"1216 320 LINE",
"1088 320 LINE"
);
},
{
closed = 1;
nodes = (
"768 384 LINE",
"768 384 OFFCURVE",
"768 320 OFFCURVE",
"768 320 CURVE",
"640 320 LINE",
"640 192 LINE",
"768 192 LINE",
"768 128 LINE",
"640 128 LINE",
"640 0 LINE",
"576 0 LINE",
"576 320 LINE",
"576 384 OFFCURVE",
"640 384 OFFCURVE",
"640 384 CURVE"
);
}
);
width = 1792;
}
);
unicode = F730;
},
{
glyphname = unif731;
lastChange = "2013-04-19 13:52:31 +0000";
layers = (
{
layerId = "9E59A49A-007A-404C-A74D-3DDF46CAEF34";
name = Regular;
paths = (
{
closed = 1;
nodes = (
"1664 1280 LINE SMOOTH",
"1664 1344 OFFCURVE",
"1600 1408 OFFCURVE",
"1536 1408 CURVE SMOOTH",
"256 1408 LINE SMOOTH",
"192 1408 OFFCURVE",
"128 1344 OFFCURVE",
"128 1280 CURVE SMOOTH",
"128 0 LINE SMOOTH",
"128 -64 OFFCURVE",
"192 -128 OFFCURVE",
"256 -128 CURVE SMOOTH",
"1536 -128 LINE SMOOTH",
"1600 -128 OFFCURVE",
"1664 -64 OFFCURVE",
"1664 0 CURVE SMOOTH"
);
},
{
closed = 1;
nodes = (
"1024 0 LINE",
"960 0 LINE",
"960 320 LINE",
"832 320 LINE",
"832 384 LINE",
"960 384 LINE",
"960 384 OFFCURVE",
"1024 384 OFFCURVE",
"1024 320 CURVE"
);
},
{
closed = 1;
nodes = (
"1472 384 OFFCURVE",
"1536 384 OFFCURVE",
"1536 384 CURVE SMOOTH",
"1536 384 OFFCURVE",
"1536 0 OFFCURVE",
"1536 0 CURVE SMOOTH",
"1472 0 LINE",
"1472 320 LINE"
);
},
{
closed = 1;
nodes = (
"1088 384 OFFCURVE",
"1152 384 OFFCURVE",
"1152 384 CURVE SMOOTH",
"1152 384 OFFCURVE",
"1152 384 OFFCURVE",
"1216 384 CURVE SMOOTH",
"1280 384 OFFCURVE",
"1280 320 OFFCURVE",
"1280 320 CURVE SMOOTH",
"1280 320 OFFCURVE",
"1280 288 OFFCURVE",
"1280 256 CURVE SMOOTH",
"1280 224 OFFCURVE",
"1248 224 OFFCURVE",
"1248 224 CURVE SMOOTH",
"1248 224 OFFCURVE",
"1280 224 OFFCURVE",
"1280 192 CURVE SMOOTH",
"1280 160 OFFCURVE",
"1280 128 OFFCURVE",
"1280 64 CURVE SMOOTH",
"1280 0 OFFCURVE",
"1216 0 OFFCURVE",
"1216 0 CURVE SMOOTH",
"1216 0 OFFCURVE",
"1216 0 OFFCURVE",
"1152 0 CURVE SMOOTH",
"1088 0 OFFCURVE",
"1088 64 OFFCURVE",
"1088 64 CURVE SMOOTH",
"1088 128 LINE",
"1152 128 LINE",
"1152 64 LINE",
"1216 64 LINE",
"1216 192 LINE",
"1152 192 LINE",
"1152 256 LINE",
"1216 256 LINE",
"1216 320 LINE",
"1088 320 LINE"
);
},
{
closed = 1;
nodes = (
"768 384 LINE",
"768 384 OFFCURVE",
"768 320 OFFCURVE",
"768 320 CURVE",
"640 320 LINE",
"640 192 LINE",
"768 192 LINE",
"768 128 LINE",
"640 128 LINE",
"640 0 LINE",
"576 0 LINE",
"576 320 LINE",
"576 384 OFFCURVE",
"640 384 OFFCURVE",
"640 384 CURVE"
);
}
);
width = 1792;
}
);
unicode = F731;
},
{
glyphname = unif732;
lastChange = "2013-04-19 13:52:35 +0000";
layers = (
{
layerId = "9E59A49A-007A-404C-A74D-3DDF46CAEF34";
name = Regular;
paths = (
{
closed = 1;
nodes = (
"1664 1280 LINE SMOOTH",
"1664 1344 OFFCURVE",
"1600 1408 OFFCURVE",
"1536 1408 CURVE SMOOTH",
"256 1408 LINE SMOOTH",
"192 1408 OFFCURVE",
"128 1344 OFFCURVE",
"128 1280 CURVE SMOOTH",
"128 0 LINE SMOOTH",
"128 -64 OFFCURVE",
"192 -128 OFFCURVE",
"256 -128 CURVE SMOOTH",
"1536 -128 LINE SMOOTH",
"1600 -128 OFFCURVE",
"1664 -64 OFFCURVE",
"1664 0 CURVE SMOOTH"
);
},
{
closed = 1;
nodes = (
"1024 0 LINE",
"960 0 LINE",
"960 320 LINE",
"832 320 LINE",
"832 384 LINE",
"960 384 LINE",
"960 384 OFFCURVE",
"1024 384 OFFCURVE",
"1024 320 CURVE"
);
},
{
closed = 1;
nodes = (
"1088 384 OFFCURVE",
"1152 384 OFFCURVE",
"1152 384 CURVE SMOOTH",
"1152 384 OFFCURVE",
"1152 384 OFFCURVE",
"1216 384 CURVE SMOOTH",
"1280 384 OFFCURVE",
"1280 320 OFFCURVE",
"1280 320 CURVE SMOOTH",
"1280 320 OFFCURVE",
"1280 288 OFFCURVE",
"1280 256 CURVE SMOOTH",
"1280 224 OFFCURVE",
"1248 224 OFFCURVE",
"1248 224 CURVE SMOOTH",
"1248 224 OFFCURVE",
"1280 224 OFFCURVE",
"1280 192 CURVE SMOOTH",
"1280 160 OFFCURVE",
"1280 128 OFFCURVE",
"1280 64 CURVE SMOOTH",
"1280 0 OFFCURVE",
"1216 0 OFFCURVE",
"1216 0 CURVE SMOOTH",
"1216 0 OFFCURVE",
"1216 0 OFFCURVE",
"1152 0 CURVE SMOOTH",
"1088 0 OFFCURVE",
"1088 64 OFFCURVE",
"1088 64 CURVE SMOOTH",
"1088 128 LINE",
"1152 128 LINE",
"1152 64 LINE",
"1216 64 LINE",
"1216 192 LINE",
"1152 192 LINE",
"1152 256 LINE",
"1216 256 LINE",
"1216 320 LINE",
"1088 320 LINE"
);
},
{
closed = 1;
nodes = (
"1536 320 OFFCURVE",
"1536 320 OFFCURVE",
"1536 256 CURVE",
"1536 192 OFFCURVE",
"1408 64 OFFCURVE",
"1408 64 CURVE",
"1536 64 LINE",
"1536 0 LINE",
"1344 0 LINE",
"1344 64 LINE",
"1344 128 OFFCURVE",
"1472 192 OFFCURVE",
"1472 256 CURVE",
"1472 320 LINE",
"1408 320 LINE",
"1408 256 LINE",
"1344 256 LINE",
"1344 320 LINE",
"1344 320 OFFCURVE",
"1344 384 OFFCURVE",
"1408 384 CURVE",
"1472 384 OFFCURVE",
"1408 384 OFFCURVE",
"1472 384 CURVE SMOOTH",
"1536 384 OFFCURVE",
"1536 320 OFFCURVE",
"1536 320 CURVE"
);
},
{
closed = 1;
nodes = (
"768 384 LINE",
"768 384 OFFCURVE",
"768 320 OFFCURVE",
"768 320 CURVE",
"640 320 LINE",
"640 192 LINE",
"768 192 LINE",
"768 128 LINE",
"640 128 LINE",
"640 0 LINE",
"576 0 LINE",
"576 320 LINE",
"576 384 OFFCURVE",
"640 384 OFFCURVE",
"640 384 CURVE"
);
}
);
width = 1792;
}
);
unicode = F732;
},
{
glyphname = unif733;
lastChange = "2013-04-19 13:52:38 +0000";
layers = (
{
layerId = "9E59A49A-007A-404C-A74D-3DDF46CAEF34";
name = Regular;
paths = (
{
closed = 1;
nodes = (
"1664 1280 LINE SMOOTH",
"1664 1344 OFFCURVE",
"1600 1408 OFFCURVE",
"1536 1408 CURVE SMOOTH",
"256 1408 LINE SMOOTH",
"192 1408 OFFCURVE",
"128 1344 OFFCURVE",
"128 1280 CURVE SMOOTH",
"128 0 LINE SMOOTH",
"128 -64 OFFCURVE",
"192 -128 OFFCURVE",
"256 -128 CURVE SMOOTH",
"1536 -128 LINE SMOOTH",
"1600 -128 OFFCURVE",
"1664 -64 OFFCURVE",
"1664 0 CURVE SMOOTH"
);
},
{
closed = 1;
nodes = (
"1024 0 LINE",
"960 0 LINE",
"960 320 LINE",
"832 320 LINE",
"832 384 LINE",
"960 384 LINE",
"960 384 OFFCURVE",
"1024 384 OFFCURVE",
"1024 320 CURVE"
);
},
{
closed = 1;
nodes = (
"1344 384 OFFCURVE",
"1408 384 OFFCURVE",
"1408 384 CURVE SMOOTH",
"1408 384 OFFCURVE",
"1408 384 OFFCURVE",
"1472 384 CURVE SMOOTH",
"1536 384 OFFCURVE",
"1536 320 OFFCURVE",
"1536 320 CURVE SMOOTH",
"1536 320 OFFCURVE",
"1536 288 OFFCURVE",
"1536 256 CURVE SMOOTH",
"1536 224 OFFCURVE",
"1504 224 OFFCURVE",
"1504 224 CURVE SMOOTH",
"1504 224 OFFCURVE",
"1536 224 OFFCURVE",
"1536 192 CURVE SMOOTH",
"1536 160 OFFCURVE",
"1536 128 OFFCURVE",
"1536 64 CURVE SMOOTH",
"1536 0 OFFCURVE",
"1472 0 OFFCURVE",
"1472 0 CURVE SMOOTH",
"1472 0 OFFCURVE",
"1472 0 OFFCURVE",
"1408 0 CURVE SMOOTH",
"1344 0 OFFCURVE",
"1344 64 OFFCURVE",
"1344 64 CURVE SMOOTH",
"1344 128 LINE",
"1408 128 LINE",
"1408 64 LINE",
"1472 64 LINE",
"1472 192 LINE",
"1408 192 LINE",
"1408 256 LINE",
"1472 256 LINE",
"1472 320 LINE",
"1344 320 LINE"
);
},
{
closed = 1;
nodes = (
"1088 384 OFFCURVE",
"1152 384 OFFCURVE",
"1152 384 CURVE SMOOTH",
"1152 384 OFFCURVE",
"1152 384 OFFCURVE",
"1216 384 CURVE SMOOTH",
"1280 384 OFFCURVE",
"1280 320 OFFCURVE",
"1280 320 CURVE SMOOTH",
"1280 320 OFFCURVE",
"1280 288 OFFCURVE",
"1280 256 CURVE SMOOTH",
"1280 224 OFFCURVE",
"1248 224 OFFCURVE",
"1248 224 CURVE SMOOTH",
"1248 224 OFFCURVE",
"1280 224 OFFCURVE",
"1280 192 CURVE SMOOTH",
"1280 160 OFFCURVE",
"1280 128 OFFCURVE",
"1280 64 CURVE SMOOTH",
"1280 0 OFFCURVE",
"1216 0 OFFCURVE",
"1216 0 CURVE SMOOTH",
"1216 0 OFFCURVE",
"1216 0 OFFCURVE",
"1152 0 CURVE SMOOTH",
"1088 0 OFFCURVE",
"1088 64 OFFCURVE",
"1088 64 CURVE SMOOTH",
"1088 128 LINE",
"1152 128 LINE",
"1152 64 LINE",
"1216 64 LINE",
"1216 192 LINE",
"1152 192 LINE",
"1152 256 LINE",
"1216 256 LINE",
"1216 320 LINE",
"1088 320 LINE"
);
},
{
closed = 1;
nodes = (
"768 384 LINE",
"768 384 OFFCURVE",
"768 320 OFFCURVE",
"768 320 CURVE",
"640 320 LINE",
"640 192 LINE",
"768 192 LINE",
"768 128 LINE",
"640 128 LINE",
"640 0 LINE",
"576 0 LINE",
"576 320 LINE",
"576 384 OFFCURVE",
"640 384 OFFCURVE",
"640 384 CURVE"
);
}
);
width = 1792;
}
);
unicode = F733;
},
{
glyphname = unif734;
lastChange = "2013-04-19 13:52:42 +0000";
layers = (
{
layerId = "9E59A49A-007A-404C-A74D-3DDF46CAEF34";
name = Regular;
paths = (
{
closed = 1;
nodes = (
"1664 1280 LINE SMOOTH",
"1664 1344 OFFCURVE",
"1600 1408 OFFCURVE",
"1536 1408 CURVE SMOOTH",
"256 1408 LINE SMOOTH",
"192 1408 OFFCURVE",
"128 1344 OFFCURVE",
"128 1280 CURVE SMOOTH",
"128 0 LINE SMOOTH",
"128 -64 OFFCURVE",
"192 -128 OFFCURVE",
"256 -128 CURVE SMOOTH",
"1536 -128 LINE SMOOTH",
"1600 -128 OFFCURVE",
"1664 -64 OFFCURVE",
"1664 0 CURVE SMOOTH"
);
},
{
closed = 1;
nodes = (
"1024 0 LINE",
"960 0 LINE",
"960 320 LINE",
"832 320 LINE",
"832 384 LINE",
"960 384 LINE",
"960 384 OFFCURVE",
"1024 384 OFFCURVE",
"1024 320 CURVE"
);
},
{
closed = 1;
nodes = (
"1408 128 OFFCURVE",
"1344 128 OFFCURVE",
"1344 192 CURVE",
"1344 256 OFFCURVE",
"1344 320 OFFCURVE",
"1344 384 CURVE",
"1408 384 LINE",
"1408 192 LINE",
"1472 192 LINE",
"1472 384 LINE",
"1536 384 LINE",
"1536 0 LINE",
"1472 0 LINE",
"1472 128 LINE",
"1408 128 LINE"
);
},
{
closed = 1;
nodes = (
"1088 384 OFFCURVE",
"1152 384 OFFCURVE",
"1152 384 CURVE SMOOTH",
"1152 384 OFFCURVE",
"1152 384 OFFCURVE",
"1216 384 CURVE SMOOTH",
"1280 384 OFFCURVE",
"1280 320 OFFCURVE",
"1280 320 CURVE SMOOTH",
"1280 320 OFFCURVE",
"1280 288 OFFCURVE",
"1280 256 CURVE SMOOTH",
"1280 224 OFFCURVE",
"1248 224 OFFCURVE",
"1248 224 CURVE SMOOTH",
"1248 224 OFFCURVE",
"1280 224 OFFCURVE",
"1280 192 CURVE SMOOTH",
"1280 160 OFFCURVE",
"1280 128 OFFCURVE",
"1280 64 CURVE SMOOTH",
"1280 0 OFFCURVE",
"1216 0 OFFCURVE",
"1216 0 CURVE SMOOTH",
"1216 0 OFFCURVE",
"1216 0 OFFCURVE",
"1152 0 CURVE SMOOTH",
"1088 0 OFFCURVE",
"1088 64 OFFCURVE",
"1088 64 CURVE SMOOTH",
"1088 128 LINE",
"1152 128 LINE",
"1152 64 LINE",
"1216 64 LINE",
"1216 192 LINE",
"1152 192 LINE",
"1152 256 LINE",
"1216 256 LINE",
"1216 320 LINE",
"1088 320 LINE"
);
},
{
closed = 1;
nodes = (
"768 384 LINE",
"768 384 OFFCURVE",
"768 320 OFFCURVE",
"768 320 CURVE",
"640 320 LINE",
"640 192 LINE",
"768 192 LINE",
"768 128 LINE",
"640 128 LINE",
"640 0 LINE",
"576 0 LINE",
"576 320 LINE",
"576 384 OFFCURVE",
"640 384 OFFCURVE",
"640 384 CURVE"
);
}
);
width = 1792;
}
);
unicode = F734;
},
{
glyphname = unif735;
lastChange = "2013-04-19 13:52:46 +0000";
layers = (
{
layerId = "9E59A49A-007A-404C-A74D-3DDF46CAEF34";
name = Regular;
paths = (
{
closed = 1;
nodes = (
"1664 1280 LINE SMOOTH",
"1664 1344 OFFCURVE",
"1600 1408 OFFCURVE",
"1536 1408 CURVE SMOOTH",
"256 1408 LINE SMOOTH",
"192 1408 OFFCURVE",
"128 1344 OFFCURVE",
"128 1280 CURVE SMOOTH",
"128 0 LINE SMOOTH",
"128 -64 OFFCURVE",
"192 -128 OFFCURVE",
"256 -128 CURVE SMOOTH",
"1536 -128 LINE SMOOTH",
"1600 -128 OFFCURVE",
"1664 -64 OFFCURVE",
"1664 0 CURVE SMOOTH"
);
},
{
closed = 1;
nodes = (
"1024 0 LINE",
"960 0 LINE",
"960 320 LINE",
"832 320 LINE",
"832 384 LINE",
"960 384 LINE",
"960 384 OFFCURVE",
"1024 384 OFFCURVE",
"1024 320 CURVE"
);
},
{
closed = 1;
nodes = (
"1536 384 LINE",
"1536 320 LINE",
"1408 320 LINE",
"1408 256 LINE",
"1440 256 OFFCURVE",
"1408 256 OFFCURVE",
"1472 256 CURVE",
"1536 256 OFFCURVE",
"1536 192 OFFCURVE",
"1536 192 CURVE SMOOTH",
"1536 192 OFFCURVE",
"1536 128 OFFCURVE",
"1536 64 CURVE SMOOTH",
"1536 0 OFFCURVE",
"1472 0 OFFCURVE",
"1472 0 CURVE SMOOTH",
"1472 0 OFFCURVE",
"1472 0 OFFCURVE",
"1408 0 CURVE SMOOTH",
"1344 0 OFFCURVE",
"1344 64 OFFCURVE",
"1344 64 CURVE SMOOTH",
"1344 128 LINE",
"1408 128 LINE",
"1408 64 LINE",
"1472 64 LINE",
"1472 192 LINE",
"1344 192 LINE",
"1344 384 LINE"
);
},
{
closed = 1;
nodes = (
"1088 384 OFFCURVE",
"1152 384 OFFCURVE",
"1152 384 CURVE SMOOTH",
"1152 384 OFFCURVE",
"1152 384 OFFCURVE",
"1216 384 CURVE SMOOTH",
"1280 384 OFFCURVE",
"1280 320 OFFCURVE",
"1280 320 CURVE SMOOTH",
"1280 320 OFFCURVE",
"1280 288 OFFCURVE",
"1280 256 CURVE SMOOTH",
"1280 224 OFFCURVE",
"1248 224 OFFCURVE",
"1248 224 CURVE SMOOTH",
"1248 224 OFFCURVE",
"1280 224 OFFCURVE",
"1280 192 CURVE SMOOTH",
"1280 160 OFFCURVE",
"1280 128 OFFCURVE",
"1280 64 CURVE SMOOTH",
"1280 0 OFFCURVE",
"1216 0 OFFCURVE",
"1216 0 CURVE SMOOTH",
"1216 0 OFFCURVE",
"1216 0 OFFCURVE",
"1152 0 CURVE SMOOTH",
"1088 0 OFFCURVE",
"1088 64 OFFCURVE",
"1088 64 CURVE SMOOTH",
"1088 128 LINE",
"1152 128 LINE",
"1152 64 LINE",
"1216 64 LINE",
"1216 192 LINE",
"1152 192 LINE",
"1152 256 LINE",
"1216 256 LINE",
"1216 320 LINE",
"1088 320 LINE"
);
},
{
closed = 1;
nodes = (
"768 384 LINE",
"768 384 OFFCURVE",
"768 320 OFFCURVE",
"768 320 CURVE",
"640 320 LINE",
"640 192 LINE",
"768 192 LINE",
"768 128 LINE",
"640 128 LINE",
"640 0 LINE",
"576 0 LINE",
"576 320 LINE",
"576 384 OFFCURVE",
"640 384 OFFCURVE",
"640 384 CURVE"
);
}
);
width = 1792;
}
);
unicode = F735;
},
{
glyphname = unif736;
lastChange = "2013-04-19 13:52:50 +0000";
layers = (
{
layerId = "9E59A49A-007A-404C-A74D-3DDF46CAEF34";
name = Regular;
paths = (
{
closed = 1;
nodes = (
"1664 1280 LINE SMOOTH",
"1664 1344 OFFCURVE",
"1600 1408 OFFCURVE",
"1536 1408 CURVE SMOOTH",
"256 1408 LINE SMOOTH",
"192 1408 OFFCURVE",
"128 1344 OFFCURVE",
"128 1280 CURVE SMOOTH",
"128 0 LINE SMOOTH",
"128 -64 OFFCURVE",
"192 -128 OFFCURVE",
"256 -128 CURVE SMOOTH",
"1536 -128 LINE SMOOTH",
"1600 -128 OFFCURVE",
"1664 -64 OFFCURVE",
"1664 0 CURVE SMOOTH"
);
},
{
closed = 1;
nodes = (
"1024 0 LINE",
"960 0 LINE",
"960 320 LINE",
"832 320 LINE",
"832 384 LINE",
"960 384 LINE",
"960 384 OFFCURVE",
"1024 384 OFFCURVE",
"1024 320 CURVE"
);
},
{
closed = 1;
nodes = (
"1536 320 LINE",
"1408 320 LINE",
"1408 256 LINE",
"1472 256 LINE SMOOTH",
"1472 256 OFFCURVE",
"1536 256 OFFCURVE",
"1536 192 CURVE SMOOTH",
"1536 128 OFFCURVE",
"1536 64 OFFCURVE",
"1536 64 CURVE SMOOTH",
"1536 64 OFFCURVE",
"1536 0 OFFCURVE",
"1472 0 CURVE SMOOTH",
"1408 0 OFFCURVE",
"1408 0 OFFCURVE",
"1408 0 CURVE SMOOTH",
"1408 0 OFFCURVE",
"1344 0 OFFCURVE",
"1344 64 CURVE SMOOTH",
"1344 128 OFFCURVE",
"1344 320 OFFCURVE",
"1344 320 CURVE SMOOTH",
"1344 320 OFFCURVE",
"1344 384 OFFCURVE",
"1408 384 CURVE",
"1472 384 OFFCURVE",
"1504 384 OFFCURVE",
"1536 384 CURVE"
);
},
{
closed = 1;
nodes = (
"1440 192 OFFCURVE",
"1472 192 OFFCURVE",
"1472 192 CURVE",
"1472 64 LINE",
"1408 64 LINE",
"1408 192 LINE"
);
},
{
closed = 1;
nodes = (
"1088 384 OFFCURVE",
"1152 384 OFFCURVE",
"1152 384 CURVE SMOOTH",
"1152 384 OFFCURVE",
"1152 384 OFFCURVE",
"1216 384 CURVE SMOOTH",
"1280 384 OFFCURVE",
"1280 320 OFFCURVE",
"1280 320 CURVE SMOOTH",
"1280 320 OFFCURVE",
"1280 288 OFFCURVE",
"1280 256 CURVE SMOOTH",
"1280 224 OFFCURVE",
"1248 224 OFFCURVE",
"1248 224 CURVE SMOOTH",
"1248 224 OFFCURVE",
"1280 224 OFFCURVE",
"1280 192 CURVE SMOOTH",
"1280 160 OFFCURVE",
"1280 128 OFFCURVE",
"1280 64 CURVE SMOOTH",
"1280 0 OFFCURVE",
"1216 0 OFFCURVE",
"1216 0 CURVE SMOOTH",
"1216 0 OFFCURVE",
"1216 0 OFFCURVE",
"1152 0 CURVE SMOOTH",
"1088 0 OFFCURVE",
"1088 64 OFFCURVE",
"1088 64 CURVE SMOOTH",
"1088 128 LINE",
"1152 128 LINE",
"1152 64 LINE",
"1216 64 LINE",
"1216 192 LINE",
"1152 192 LINE",
"1152 256 LINE",
"1216 256 LINE",
"1216 320 LINE",
"1088 320 LINE"
);
},
{
closed = 1;
nodes = (
"768 384 LINE",
"768 384 OFFCURVE",
"768 320 OFFCURVE",
"768 320 CURVE",
"640 320 LINE",
"640 192 LINE",
"768 192 LINE",
"768 128 LINE",
"640 128 LINE",
"640 0 LINE",
"576 0 LINE",
"576 320 LINE",
"576 384 OFFCURVE",
"640 384 OFFCURVE",
"640 384 CURVE"
);
}
);
width = 1792;
}
);
unicode = F736;
},
{
glyphname = unif737;
lastChange = "2013-04-19 13:52:53 +0000";
layers = (
{
layerId = "9E59A49A-007A-404C-A74D-3DDF46CAEF34";
name = Regular;
paths = (
{
closed = 1;
nodes = (
"1664 1280 LINE SMOOTH",
"1664 1344 OFFCURVE",
"1600 1408 OFFCURVE",
"1536 1408 CURVE SMOOTH",
"256 1408 LINE SMOOTH",
"192 1408 OFFCURVE",
"128 1344 OFFCURVE",
"128 1280 CURVE SMOOTH",
"128 0 LINE SMOOTH",
"128 -64 OFFCURVE",
"192 -128 OFFCURVE",
"256 -128 CURVE SMOOTH",
"1536 -128 LINE SMOOTH",
"1600 -128 OFFCURVE",
"1664 -64 OFFCURVE",
"1664 0 CURVE SMOOTH"
);
},
{
closed = 1;
nodes = (
"1024 0 LINE",
"960 0 LINE",
"960 320 LINE",
"832 320 LINE",
"832 384 LINE",
"960 384 LINE",
"960 384 OFFCURVE",
"1024 384 OFFCURVE",
"1024 320 CURVE"
);
},
{
closed = 1;
nodes = (
"1536 0 LINE",
"1472 0 LINE",
"1472 320 LINE",
"1344 320 LINE",
"1344 384 LINE",
"1472 384 LINE",
"1472 384 OFFCURVE",
"1536 384 OFFCURVE",
"1536 320 CURVE"
);
},
{
closed = 1;
nodes = (
"1088 384 OFFCURVE",
"1152 384 OFFCURVE",
"1152 384 CURVE SMOOTH",
"1152 384 OFFCURVE",
"1152 384 OFFCURVE",
"1216 384 CURVE SMOOTH",
"1280 384 OFFCURVE",
"1280 320 OFFCURVE",
"1280 320 CURVE SMOOTH",
"1280 320 OFFCURVE",
"1280 288 OFFCURVE",
"1280 256 CURVE SMOOTH",
"1280 224 OFFCURVE",
"1248 224 OFFCURVE",
"1248 224 CURVE SMOOTH",
"1248 224 OFFCURVE",
"1280 224 OFFCURVE",
"1280 192 CURVE SMOOTH",
"1280 160 OFFCURVE",
"1280 128 OFFCURVE",
"1280 64 CURVE SMOOTH",
"1280 0 OFFCURVE",
"1216 0 OFFCURVE",
"1216 0 CURVE SMOOTH",
"1216 0 OFFCURVE",
"1216 0 OFFCURVE",
"1152 0 CURVE SMOOTH",
"1088 0 OFFCURVE",
"1088 64 OFFCURVE",
"1088 64 CURVE SMOOTH",
"1088 128 LINE",
"1152 128 LINE",
"1152 64 LINE",
"1216 64 LINE",
"1216 192 LINE",
"1152 192 LINE",
"1152 256 LINE",
"1216 256 LINE",
"1216 320 LINE",
"1088 320 LINE"
);
},
{
closed = 1;
nodes = (
"768 384 LINE",
"768 384 OFFCURVE",
"768 320 OFFCURVE",
"768 320 CURVE",
"640 320 LINE",
"640 192 LINE",
"768 192 LINE",
"768 128 LINE",
"640 128 LINE",
"640 0 LINE",
"576 0 LINE",
"576 320 LINE",
"576 384 OFFCURVE",
"640 384 OFFCURVE",
"640 384 CURVE"
);
}
);
width = 1792;
}
);
unicode = F737;
},
{
glyphname = unif738;
lastChange = "2013-04-19 13:52:58 +0000";
layers = (
{
layerId = "9E59A49A-007A-404C-A74D-3DDF46CAEF34";
name = Regular;
paths = (
{
closed = 1;
nodes = (
"1664 1280 LINE SMOOTH",
"1664 1344 OFFCURVE",
"1600 1408 OFFCURVE",
"1536 1408 CURVE SMOOTH",
"256 1408 LINE SMOOTH",
"192 1408 OFFCURVE",
"128 1344 OFFCURVE",
"128 1280 CURVE SMOOTH",
"128 0 LINE SMOOTH",
"128 -64 OFFCURVE",
"192 -128 OFFCURVE",
"256 -128 CURVE SMOOTH",
"1536 -128 LINE SMOOTH",
"1600 -128 OFFCURVE",
"1664 -64 OFFCURVE",
"1664 0 CURVE SMOOTH"
);
},
{
closed = 1;
nodes = (
"1024 0 LINE",
"960 0 LINE",
"960 320 LINE",
"832 320 LINE",
"832 384 LINE",
"960 384 LINE",
"960 384 OFFCURVE",
"1024 384 OFFCURVE",
"1024 320 CURVE"
);
},
{
closed = 1;
nodes = (
"1536 288 OFFCURVE",
"1536 288 OFFCURVE",
"1536 256 CURVE",
"1536 224 OFFCURVE",
"1504 224 OFFCURVE",
"1504 224 CURVE SMOOTH",
"1504 224 OFFCURVE",
"1536 224 OFFCURVE",
"1536 192 CURVE SMOOTH",
"1536 160 OFFCURVE",
"1536 128 OFFCURVE",
"1536 64 CURVE SMOOTH",
"1536 0 OFFCURVE",
"1472 0 OFFCURVE",
"1472 0 CURVE SMOOTH",
"1472 0 OFFCURVE",
"1472 0 OFFCURVE",
"1408 0 CURVE SMOOTH",
"1344 0 OFFCURVE",
"1344 64 OFFCURVE",
"1344 64 CURVE SMOOTH",
"1344 64 OFFCURVE",
"1344 160 OFFCURVE",
"1344 192 CURVE SMOOTH",
"1344 224 OFFCURVE",
"1376 224 OFFCURVE",
"1376 224 CURVE SMOOTH",
"1376 224 OFFCURVE",
"1344 224 OFFCURVE",
"1344 256 CURVE SMOOTH",
"1344 320 LINE",
"1344 384 OFFCURVE",
"1408 384 OFFCURVE",
"1408 384 CURVE SMOOTH",
"1408 384 OFFCURVE",
"1408 384 OFFCURVE",
"1472 384 CURVE SMOOTH",
"1536 384 OFFCURVE",
"1536 320 OFFCURVE",
"1536 320 CURVE"
);
},
{
closed = 1;
nodes = (
"1472 320 LINE",
"1472 256 LINE",
"1408 256 LINE",
"1408 320 LINE"
);
},
{
closed = 1;
nodes = (
"1472 192 LINE",
"1472 64 LINE",
"1408 64 LINE",
"1408 192 LINE"
);
},
{
closed = 1;
nodes = (
"1088 384 OFFCURVE",
"1152 384 OFFCURVE",
"1152 384 CURVE SMOOTH",
"1152 384 OFFCURVE",
"1152 384 OFFCURVE",
"1216 384 CURVE SMOOTH",
"1280 384 OFFCURVE",
"1280 320 OFFCURVE",
"1280 320 CURVE SMOOTH",
"1280 320 OFFCURVE",
"1280 288 OFFCURVE",
"1280 256 CURVE SMOOTH",
"1280 224 OFFCURVE",
"1248 224 OFFCURVE",
"1248 224 CURVE SMOOTH",
"1248 224 OFFCURVE",
"1280 224 OFFCURVE",
"1280 192 CURVE SMOOTH",
"1280 160 OFFCURVE",
"1280 128 OFFCURVE",
"1280 64 CURVE SMOOTH",
"1280 0 OFFCURVE",
"1216 0 OFFCURVE",
"1216 0 CURVE SMOOTH",
"1216 0 OFFCURVE",
"1216 0 OFFCURVE",
"1152 0 CURVE SMOOTH",
"1088 0 OFFCURVE",
"1088 64 OFFCURVE",
"1088 64 CURVE SMOOTH",
"1088 128 LINE",
"1152 128 LINE",
"1152 64 LINE",
"1216 64 LINE",
"1216 192 LINE",
"1152 192 LINE",
"1152 256 LINE",
"1216 256 LINE",
"1216 320 LINE",
"1088 320 LINE"
);
},
{
closed = 1;
nodes = (
"768 384 LINE",
"768 384 OFFCURVE",
"768 320 OFFCURVE",
"768 320 CURVE",
"640 320 LINE",
"640 192 LINE",
"768 192 LINE",
"768 128 LINE",
"640 128 LINE",
"640 0 LINE",
"576 0 LINE",
"576 320 LINE",
"576 384 OFFCURVE",
"640 384 OFFCURVE",
"640 384 CURVE"
);
}
);
width = 1792;
}
);
unicode = F738;
},
{
glyphname = unif739;
lastChange = "2013-04-19 13:53:02 +0000";
layers = (
{
layerId = "9E59A49A-007A-404C-A74D-3DDF46CAEF34";
name = Regular;
paths = (
{
closed = 1;
nodes = (
"1664 1280 LINE SMOOTH",
"1664 1344 OFFCURVE",
"1600 1408 OFFCURVE",
"1536 1408 CURVE SMOOTH",
"256 1408 LINE SMOOTH",
"192 1408 OFFCURVE",
"128 1344 OFFCURVE",
"128 1280 CURVE SMOOTH",
"128 0 LINE SMOOTH",
"128 -64 OFFCURVE",
"192 -128 OFFCURVE",
"256 -128 CURVE SMOOTH",
"1536 -128 LINE SMOOTH",
"1600 -128 OFFCURVE",
"1664 -64 OFFCURVE",
"1664 0 CURVE SMOOTH"
);
},
{
closed = 1;
nodes = (
"1024 0 LINE",
"960 0 LINE",
"960 320 LINE",
"832 320 LINE",
"832 384 LINE",
"960 384 LINE",
"960 384 OFFCURVE",
"1024 384 OFFCURVE",
"1024 320 CURVE"
);
},
{
closed = 1;
nodes = (
"1344 64 LINE",
"1472 64 LINE",
"1472 128 LINE",
"1408 128 LINE SMOOTH",
"1408 128 OFFCURVE",
"1344 128 OFFCURVE",
"1344 192 CURVE SMOOTH",
"1344 256 OFFCURVE",
"1344 320 OFFCURVE",
"1344 320 CURVE SMOOTH",
"1344 320 OFFCURVE",
"1344 384 OFFCURVE",
"1408 384 CURVE SMOOTH",
"1472 384 OFFCURVE",
"1472 384 OFFCURVE",
"1472 384 CURVE SMOOTH",
"1472 384 OFFCURVE",
"1536 384 OFFCURVE",
"1536 320 CURVE SMOOTH",
"1536 256 OFFCURVE",
"1536 64 OFFCURVE",
"1536 64 CURVE SMOOTH",
"1536 64 OFFCURVE",
"1536 0 OFFCURVE",
"1472 0 CURVE",
"1408 0 OFFCURVE",
"1376 0 OFFCURVE",
"1344 0 CURVE"
);
},
{
closed = 1;
nodes = (
"1440 192 OFFCURVE",
"1408 192 OFFCURVE",
"1408 192 CURVE",
"1408 320 LINE",
"1472 320 LINE",
"1472 192 LINE"
);
},
{
closed = 1;
nodes = (
"1088 384 OFFCURVE",
"1152 384 OFFCURVE",
"1152 384 CURVE SMOOTH",
"1152 384 OFFCURVE",
"1152 384 OFFCURVE",
"1216 384 CURVE SMOOTH",
"1280 384 OFFCURVE",
"1280 320 OFFCURVE",
"1280 320 CURVE SMOOTH",
"1280 320 OFFCURVE",
"1280 288 OFFCURVE",
"1280 256 CURVE SMOOTH",
"1280 224 OFFCURVE",
"1248 224 OFFCURVE",
"1248 224 CURVE SMOOTH",
"1248 224 OFFCURVE",
"1280 224 OFFCURVE",
"1280 192 CURVE SMOOTH",
"1280 160 OFFCURVE",
"1280 128 OFFCURVE",
"1280 64 CURVE SMOOTH",
"1280 0 OFFCURVE",
"1216 0 OFFCURVE",
"1216 0 CURVE SMOOTH",
"1216 0 OFFCURVE",
"1216 0 OFFCURVE",
"1152 0 CURVE SMOOTH",
"1088 0 OFFCURVE",
"1088 64 OFFCURVE",
"1088 64 CURVE SMOOTH",
"1088 128 LINE",
"1152 128 LINE",
"1152 64 LINE",
"1216 64 LINE",
"1216 192 LINE",
"1152 192 LINE",
"1152 256 LINE",
"1216 256 LINE",
"1216 320 LINE",
"1088 320 LINE"
);
},
{
closed = 1;
nodes = (
"768 384 LINE",
"768 384 OFFCURVE",
"768 320 OFFCURVE",
"768 320 CURVE",
"640 320 LINE",
"640 192 LINE",
"768 192 LINE",
"768 128 LINE",
"640 128 LINE",
"640 0 LINE",
"576 0 LINE",
"576 320 LINE",
"576 384 OFFCURVE",
"640 384 OFFCURVE",
"640 384 CURVE"
);
}
);
width = 1792;
}
);
unicode = F739;
},
{
glyphname = unif73a;
lastChange = "2013-04-19 13:53:06 +0000";
layers = (
{
layerId = "9E59A49A-007A-404C-A74D-3DDF46CAEF34";
name = Regular;
paths = (
{
closed = 1;
nodes = (
"1664 1280 LINE SMOOTH",
"1664 1344 OFFCURVE",
"1600 1408 OFFCURVE",
"1536 1408 CURVE SMOOTH",
"256 1408 LINE SMOOTH",
"192 1408 OFFCURVE",
"128 1344 OFFCURVE",
"128 1280 CURVE SMOOTH",
"128 0 LINE SMOOTH",
"128 -64 OFFCURVE",
"192 -128 OFFCURVE",
"256 -128 CURVE SMOOTH",
"1536 -128 LINE SMOOTH",
"1600 -128 OFFCURVE",
"1664 -64 OFFCURVE",
"1664 0 CURVE SMOOTH"
);
},
{
closed = 1;
nodes = (
"1024 0 LINE",
"960 0 LINE",
"960 320 LINE",
"832 320 LINE",
"832 384 LINE",
"960 384 LINE",
"960 384 OFFCURVE",
"1024 384 OFFCURVE",
"1024 320 CURVE"
);
},
{
closed = 1;
nodes = (
"1344 96 OFFCURVE",
"1344 256 OFFCURVE",
"1344 320 CURVE",
"1344 384 OFFCURVE",
"1408 384 OFFCURVE",
"1408 384 CURVE SMOOTH",
"1408 384 OFFCURVE",
"1408 384 OFFCURVE",
"1472 384 CURVE SMOOTH",
"1536 384 OFFCURVE",
"1536 320 OFFCURVE",
"1536 320 CURVE SMOOTH",
"1536 0 LINE",
"1472 0 LINE",
"1472 128 LINE",
"1408 128 LINE",
"1408 0 LINE",
"1344 0 LINE"
);
},
{
closed = 1;
nodes = (
"1440 320 OFFCURVE",
"1472 320 OFFCURVE",
"1472 320 CURVE",
"1472 192 LINE",
"1408 192 LINE",
"1408 320 LINE"
);
},
{
closed = 1;
nodes = (
"1088 384 OFFCURVE",
"1152 384 OFFCURVE",
"1152 384 CURVE SMOOTH",
"1152 384 OFFCURVE",
"1152 384 OFFCURVE",
"1216 384 CURVE SMOOTH",
"1280 384 OFFCURVE",
"1280 320 OFFCURVE",
"1280 320 CURVE SMOOTH",
"1280 320 OFFCURVE",
"1280 288 OFFCURVE",
"1280 256 CURVE SMOOTH",
"1280 224 OFFCURVE",
"1248 224 OFFCURVE",
"1248 224 CURVE SMOOTH",
"1248 224 OFFCURVE",
"1280 224 OFFCURVE",
"1280 192 CURVE SMOOTH",
"1280 160 OFFCURVE",
"1280 128 OFFCURVE",
"1280 64 CURVE SMOOTH",
"1280 0 OFFCURVE",
"1216 0 OFFCURVE",
"1216 0 CURVE SMOOTH",
"1216 0 OFFCURVE",
"1216 0 OFFCURVE",
"1152 0 CURVE SMOOTH",
"1088 0 OFFCURVE",
"1088 64 OFFCURVE",
"1088 64 CURVE SMOOTH",
"1088 128 LINE",
"1152 128 LINE",
"1152 64 LINE",
"1216 64 LINE",
"1216 192 LINE",
"1152 192 LINE",
"1152 256 LINE",
"1216 256 LINE",
"1216 320 LINE",
"1088 320 LINE"
);
},
{
closed = 1;
nodes = (
"768 384 LINE",
"768 384 OFFCURVE",
"768 320 OFFCURVE",
"768 320 CURVE",
"640 320 LINE",
"640 192 LINE",
"768 192 LINE",
"768 128 LINE",
"640 128 LINE",
"640 0 LINE",
"576 0 LINE",
"576 320 LINE",
"576 384 OFFCURVE",
"640 384 OFFCURVE",
"640 384 CURVE"
);
}
);
width = 1792;
}
);
unicode = F73A;
},
{
glyphname = unif73b;
lastChange = "2013-04-19 13:53:10 +0000";
layers = (
{
layerId = "9E59A49A-007A-404C-A74D-3DDF46CAEF34";
name = Regular;
paths = (
{
closed = 1;
nodes = (
"1664 1280 LINE SMOOTH",
"1664 1344 OFFCURVE",
"1600 1408 OFFCURVE",
"1536 1408 CURVE SMOOTH",
"256 1408 LINE SMOOTH",
"192 1408 OFFCURVE",
"128 1344 OFFCURVE",
"128 1280 CURVE SMOOTH",
"128 0 LINE SMOOTH",
"128 -64 OFFCURVE",
"192 -128 OFFCURVE",
"256 -128 CURVE SMOOTH",
"1536 -128 LINE SMOOTH",
"1600 -128 OFFCURVE",
"1664 -64 OFFCURVE",
"1664 0 CURVE SMOOTH"
);
},
{
closed = 1;
nodes = (
"1024 0 LINE",
"960 0 LINE",
"960 320 LINE",
"832 320 LINE",
"832 384 LINE",
"960 384 LINE",
"960 384 OFFCURVE",
"1024 384 OFFCURVE",
"1024 320 CURVE"
);
},
{
closed = 1;
nodes = (
"1376 384 OFFCURVE",
"1408 384 OFFCURVE",
"1472 384 CURVE",
"1536 384 OFFCURVE",
"1536 320 OFFCURVE",
"1536 320 CURVE SMOOTH",
"1536 320 OFFCURVE",
"1536 288 OFFCURVE",
"1536 256 CURVE SMOOTH",
"1536 224 OFFCURVE",
"1504 224 OFFCURVE",
"1504 224 CURVE SMOOTH",
"1504 224 OFFCURVE",
"1536 224 OFFCURVE",
"1536 192 CURVE SMOOTH",
"1536 160 OFFCURVE",
"1536 128 OFFCURVE",
"1536 64 CURVE SMOOTH",
"1536 0 OFFCURVE",
"1472 0 OFFCURVE",
"1472 0 CURVE SMOOTH",
"1344 0 LINE",
"1344 384 LINE"
);
},
{
closed = 1;
nodes = (
"1472 320 LINE",
"1472 288 OFFCURVE",
"1472 256 OFFCURVE",
"1472 256 CURVE",
"1408 256 LINE",
"1408 320 LINE"
);
},
{
closed = 1;
nodes = (
"1472 64 LINE",
"1472 192 LINE",
"1408 192 LINE",
"1408 64 LINE"
);
},
{
closed = 1;
nodes = (
"1088 384 OFFCURVE",
"1152 384 OFFCURVE",
"1152 384 CURVE SMOOTH",
"1152 384 OFFCURVE",
"1152 384 OFFCURVE",
"1216 384 CURVE SMOOTH",
"1280 384 OFFCURVE",
"1280 320 OFFCURVE",
"1280 320 CURVE SMOOTH",
"1280 320 OFFCURVE",
"1280 288 OFFCURVE",
"1280 256 CURVE SMOOTH",
"1280 224 OFFCURVE",
"1248 224 OFFCURVE",
"1248 224 CURVE SMOOTH",
"1248 224 OFFCURVE",
"1280 224 OFFCURVE",
"1280 192 CURVE SMOOTH",
"1280 160 OFFCURVE",
"1280 128 OFFCURVE",
"1280 64 CURVE SMOOTH",
"1280 0 OFFCURVE",
"1216 0 OFFCURVE",
"1216 0 CURVE SMOOTH",
"1216 0 OFFCURVE",
"1216 0 OFFCURVE",
"1152 0 CURVE SMOOTH",
"1088 0 OFFCURVE",
"1088 64 OFFCURVE",
"1088 64 CURVE SMOOTH",
"1088 128 LINE",
"1152 128 LINE",
"1152 64 LINE",
"1216 64 LINE",
"1216 192 LINE",
"1152 192 LINE",
"1152 256 LINE",
"1216 256 LINE",
"1216 320 LINE",
"1088 320 LINE"
);
},
{
closed = 1;
nodes = (
"768 384 LINE",
"768 384 OFFCURVE",
"768 320 OFFCURVE",
"768 320 CURVE",
"640 320 LINE",
"640 192 LINE",
"768 192 LINE",
"768 128 LINE",
"640 128 LINE",
"640 0 LINE",
"576 0 LINE",
"576 320 LINE",
"576 384 OFFCURVE",
"640 384 OFFCURVE",
"640 384 CURVE"
);
}
);
width = 1792;
}
);
unicode = F73B;
},
{
glyphname = unif73c;
lastChange = "2013-04-19 13:53:15 +0000";
layers = (
{
layerId = "9E59A49A-007A-404C-A74D-3DDF46CAEF34";
name = Regular;
paths = (
{
closed = 1;
nodes = (
"1664 1280 LINE SMOOTH",
"1664 1344 OFFCURVE",
"1600 1408 OFFCURVE",
"1536 1408 CURVE SMOOTH",
"256 1408 LINE SMOOTH",
"192 1408 OFFCURVE",
"128 1344 OFFCURVE",
"128 1280 CURVE SMOOTH",
"128 0 LINE SMOOTH",
"128 -64 OFFCURVE",
"192 -128 OFFCURVE",
"256 -128 CURVE SMOOTH",
"1536 -128 LINE SMOOTH",
"1600 -128 OFFCURVE",
"1664 -64 OFFCURVE",
"1664 0 CURVE SMOOTH"
);
},
{
closed = 1;
nodes = (
"1024 0 LINE",
"960 0 LINE",
"960 320 LINE",
"832 320 LINE",
"832 384 LINE",
"960 384 LINE",
"960 384 OFFCURVE",
"1024 384 OFFCURVE",
"1024 320 CURVE"
);
},
{
closed = 1;
nodes = (
"1344 384 OFFCURVE",
"1408 384 OFFCURVE",
"1408 384 CURVE SMOOTH",
"1408 384 OFFCURVE",
"1408 384 OFFCURVE",
"1472 384 CURVE SMOOTH",
"1536 384 OFFCURVE",
"1536 320 OFFCURVE",
"1536 320 CURVE SMOOTH",
"1536 256 LINE",
"1472 256 LINE",
"1472 320 LINE",
"1408 320 LINE",
"1408 64 LINE",
"1472 64 LINE",
"1472 128 LINE",
"1536 128 LINE",
"1536 96 OFFCURVE",
"1536 128 OFFCURVE",
"1536 64 CURVE",
"1536 0 OFFCURVE",
"1472 0 OFFCURVE",
"1472 0 CURVE SMOOTH",
"1472 0 OFFCURVE",
"1472 0 OFFCURVE",
"1408 0 CURVE SMOOTH",
"1344 0 OFFCURVE",
"1344 64 OFFCURVE",
"1344 64 CURVE SMOOTH",
"1344 320 LINE"
);
},
{
closed = 1;
nodes = (
"1088 384 OFFCURVE",
"1152 384 OFFCURVE",
"1152 384 CURVE SMOOTH",
"1152 384 OFFCURVE",
"1152 384 OFFCURVE",
"1216 384 CURVE SMOOTH",
"1280 384 OFFCURVE",
"1280 320 OFFCURVE",
"1280 320 CURVE SMOOTH",
"1280 320 OFFCURVE",
"1280 288 OFFCURVE",
"1280 256 CURVE SMOOTH",
"1280 224 OFFCURVE",
"1248 224 OFFCURVE",
"1248 224 CURVE SMOOTH",
"1248 224 OFFCURVE",
"1280 224 OFFCURVE",
"1280 192 CURVE SMOOTH",
"1280 160 OFFCURVE",
"1280 128 OFFCURVE",
"1280 64 CURVE SMOOTH",
"1280 0 OFFCURVE",
"1216 0 OFFCURVE",
"1216 0 CURVE SMOOTH",
"1216 0 OFFCURVE",
"1216 0 OFFCURVE",
"1152 0 CURVE SMOOTH",
"1088 0 OFFCURVE",
"1088 64 OFFCURVE",
"1088 64 CURVE SMOOTH",
"1088 128 LINE",
"1152 128 LINE",
"1152 64 LINE",
"1216 64 LINE",
"1216 192 LINE",
"1152 192 LINE",
"1152 256 LINE",
"1216 256 LINE",
"1216 320 LINE",
"1088 320 LINE"
);
},
{
closed = 1;
nodes = (
"768 384 LINE",
"768 384 OFFCURVE",
"768 320 OFFCURVE",
"768 320 CURVE",
"640 320 LINE",
"640 192 LINE",
"768 192 LINE",
"768 128 LINE",
"640 128 LINE",
"640 0 LINE",
"576 0 LINE",
"576 320 LINE",
"576 384 OFFCURVE",
"640 384 OFFCURVE",
"640 384 CURVE"
);
}
);
width = 1792;
}
);
unicode = F73C;
},
{
glyphname = unif73d;
lastChange = "2013-04-19 13:53:24 +0000";
layers = (
{
layerId = "9E59A49A-007A-404C-A74D-3DDF46CAEF34";
name = Regular;
paths = (
{
closed = 1;
nodes = (
"1664 1280 LINE SMOOTH",
"1664 1344 OFFCURVE",
"1600 1408 OFFCURVE",
"1536 1408 CURVE SMOOTH",
"256 1408 LINE SMOOTH",
"192 1408 OFFCURVE",
"128 1344 OFFCURVE",
"128 1280 CURVE SMOOTH",
"128 0 LINE SMOOTH",
"128 -64 OFFCURVE",
"192 -128 OFFCURVE",
"256 -128 CURVE SMOOTH",
"1536 -128 LINE SMOOTH",
"1600 -128 OFFCURVE",
"1664 -64 OFFCURVE",
"1664 0 CURVE SMOOTH"
);
},
{
closed = 1;
nodes = (
"1024 0 LINE",
"960 0 LINE",
"960 320 LINE",
"832 320 LINE",
"832 384 LINE",
"960 384 LINE",
"960 384 OFFCURVE",
"1024 384 OFFCURVE",
"1024 320 CURVE"
);
},
{
closed = 1;
nodes = (
"1376 384 OFFCURVE",
"1408 384 OFFCURVE",
"1472 384 CURVE",
"1536 384 OFFCURVE",
"1536 320 OFFCURVE",
"1536 320 CURVE SMOOTH",
"1536 320 OFFCURVE",
"1536 128 OFFCURVE",
"1536 64 CURVE SMOOTH",
"1536 0 OFFCURVE",
"1472 0 OFFCURVE",
"1472 0 CURVE SMOOTH",
"1344 0 LINE",
"1344 384 LINE"
);
},
{
closed = 1;
nodes = (
"1472 320 LINE",
"1472 64 LINE",
"1408 64 LINE",
"1408 320 LINE"
);
},
{
closed = 1;
nodes = (
"1088 384 OFFCURVE",
"1152 384 OFFCURVE",
"1152 384 CURVE SMOOTH",
"1152 384 OFFCURVE",
"1152 384 OFFCURVE",
"1216 384 CURVE SMOOTH",
"1280 384 OFFCURVE",
"1280 320 OFFCURVE",
"1280 320 CURVE SMOOTH",
"1280 320 OFFCURVE",
"1280 288 OFFCURVE",
"1280 256 CURVE SMOOTH",
"1280 224 OFFCURVE",
"1248 224 OFFCURVE",
"1248 224 CURVE SMOOTH",
"1248 224 OFFCURVE",
"1280 224 OFFCURVE",
"1280 192 CURVE SMOOTH",
"1280 160 OFFCURVE",
"1280 128 OFFCURVE",
"1280 64 CURVE SMOOTH",
"1280 0 OFFCURVE",
"1216 0 OFFCURVE",
"1216 0 CURVE SMOOTH",
"1216 0 OFFCURVE",
"1216 0 OFFCURVE",
"1152 0 CURVE SMOOTH",
"1088 0 OFFCURVE",
"1088 64 OFFCURVE",
"1088 64 CURVE SMOOTH",
"1088 128 LINE",
"1152 128 LINE",
"1152 64 LINE",
"1216 64 LINE",
"1216 192 LINE",
"1152 192 LINE",
"1152 256 LINE",
"1216 256 LINE",
"1216 320 LINE",
"1088 320 LINE"
);
},
{
closed = 1;
nodes = (
"768 384 LINE",
"768 384 OFFCURVE",
"768 320 OFFCURVE",
"768 320 CURVE",
"640 320 LINE",
"640 192 LINE",
"768 192 LINE",
"768 128 LINE",
"640 128 LINE",
"640 0 LINE",
"576 0 LINE",
"576 320 LINE",
"576 384 OFFCURVE",
"640 384 OFFCURVE",
"640 384 CURVE"
);
}
);
width = 1792;
}
);
unicode = F73D;
},
{
glyphname = unif73e;
lastChange = "2013-04-19 13:53:28 +0000";
layers = (
{
layerId = "9E59A49A-007A-404C-A74D-3DDF46CAEF34";
name = Regular;
paths = (
{
closed = 1;
nodes = (
"1664 1280 LINE SMOOTH",
"1664 1344 OFFCURVE",
"1600 1408 OFFCURVE",
"1536 1408 CURVE SMOOTH",
"256 1408 LINE SMOOTH",
"192 1408 OFFCURVE",
"128 1344 OFFCURVE",
"128 1280 CURVE SMOOTH",
"128 0 LINE SMOOTH",
"128 -64 OFFCURVE",
"192 -128 OFFCURVE",
"256 -128 CURVE SMOOTH",
"1536 -128 LINE SMOOTH",
"1600 -128 OFFCURVE",
"1664 -64 OFFCURVE",
"1664 0 CURVE SMOOTH"
);
},
{
closed = 1;
nodes = (
"1024 0 LINE",
"960 0 LINE",
"960 320 LINE",
"832 320 LINE",
"832 384 LINE",
"960 384 LINE",
"960 384 OFFCURVE",
"1024 384 OFFCURVE",
"1024 320 CURVE"
);
},
{
closed = 1;
nodes = (
"1536 384 LINE",
"1536 320 LINE",
"1408 320 LINE",
"1408 256 LINE",
"1536 256 LINE",
"1536 192 LINE",
"1408 192 LINE",
"1408 64 LINE",
"1536 64 LINE",
"1536 0 LINE",
"1344 0 LINE",
"1344 96 OFFCURVE",
"1344 256 OFFCURVE",
"1344 320 CURVE",
"1344 384 OFFCURVE",
"1408 384 OFFCURVE",
"1408 384 CURVE SMOOTH"
);
},
{
closed = 1;
nodes = (
"1088 384 OFFCURVE",
"1152 384 OFFCURVE",
"1152 384 CURVE SMOOTH",
"1152 384 OFFCURVE",
"1152 384 OFFCURVE",
"1216 384 CURVE SMOOTH",
"1280 384 OFFCURVE",
"1280 320 OFFCURVE",
"1280 320 CURVE SMOOTH",
"1280 320 OFFCURVE",
"1280 288 OFFCURVE",
"1280 256 CURVE SMOOTH",
"1280 224 OFFCURVE",
"1248 224 OFFCURVE",
"1248 224 CURVE SMOOTH",
"1248 224 OFFCURVE",
"1280 224 OFFCURVE",
"1280 192 CURVE SMOOTH",
"1280 160 OFFCURVE",
"1280 128 OFFCURVE",
"1280 64 CURVE SMOOTH",
"1280 0 OFFCURVE",
"1216 0 OFFCURVE",
"1216 0 CURVE SMOOTH",
"1216 0 OFFCURVE",
"1216 0 OFFCURVE",
"1152 0 CURVE SMOOTH",
"1088 0 OFFCURVE",
"1088 64 OFFCURVE",
"1088 64 CURVE SMOOTH",
"1088 128 LINE",
"1152 128 LINE",
"1152 64 LINE",
"1216 64 LINE",
"1216 192 LINE",
"1152 192 LINE",
"1152 256 LINE",
"1216 256 LINE",
"1216 320 LINE",
"1088 320 LINE"
);
},
{
closed = 1;
nodes = (
"768 384 LINE",
"768 384 OFFCURVE",
"768 320 OFFCURVE",
"768 320 CURVE",
"640 320 LINE",
"640 192 LINE",
"768 192 LINE",
"768 128 LINE",
"640 128 LINE",
"640 0 LINE",
"576 0 LINE",
"576 320 LINE",
"576 384 OFFCURVE",
"640 384 OFFCURVE",
"640 384 CURVE"
);
}
);
width = 1792;
}
);
unicode = F73E;
},
{
glyphname = unif73f;
lastChange = "2013-04-19 13:53:32 +0000";
layers = (
{
layerId = "9E59A49A-007A-404C-A74D-3DDF46CAEF34";
name = Regular;
paths = (
{
closed = 1;
nodes = (
"1664 1280 LINE SMOOTH",
"1664 1344 OFFCURVE",
"1600 1408 OFFCURVE",
"1536 1408 CURVE SMOOTH",
"256 1408 LINE SMOOTH",
"192 1408 OFFCURVE",
"128 1344 OFFCURVE",
"128 1280 CURVE SMOOTH",
"128 0 LINE SMOOTH",
"128 -64 OFFCURVE",
"192 -128 OFFCURVE",
"256 -128 CURVE SMOOTH",
"1536 -128 LINE SMOOTH",
"1600 -128 OFFCURVE",
"1664 -64 OFFCURVE",
"1664 0 CURVE SMOOTH"
);
},
{
closed = 1;
nodes = (
"1024 0 LINE",
"960 0 LINE",
"960 320 LINE",
"832 320 LINE",
"832 384 LINE",
"960 384 LINE",
"960 384 OFFCURVE",
"1024 384 OFFCURVE",
"1024 320 CURVE"
);
},
{
closed = 1;
nodes = (
"1536 384 LINE",
"1536 384 OFFCURVE",
"1536 320 OFFCURVE",
"1536 320 CURVE",
"1408 320 LINE",
"1408 192 LINE",
"1536 192 LINE",
"1536 128 LINE",
"1408 128 LINE",
"1408 0 LINE",
"1344 0 LINE",
"1344 320 LINE",
"1344 384 OFFCURVE",
"1408 384 OFFCURVE",
"1408 384 CURVE"
);
},
{
closed = 1;
nodes = (
"1088 384 OFFCURVE",
"1152 384 OFFCURVE",
"1152 384 CURVE SMOOTH",
"1152 384 OFFCURVE",
"1152 384 OFFCURVE",
"1216 384 CURVE SMOOTH",
"1280 384 OFFCURVE",
"1280 320 OFFCURVE",
"1280 320 CURVE SMOOTH",
"1280 320 OFFCURVE",
"1280 288 OFFCURVE",
"1280 256 CURVE SMOOTH",
"1280 224 OFFCURVE",
"1248 224 OFFCURVE",
"1248 224 CURVE SMOOTH",
"1248 224 OFFCURVE",
"1280 224 OFFCURVE",
"1280 192 CURVE SMOOTH",
"1280 160 OFFCURVE",
"1280 128 OFFCURVE",
"1280 64 CURVE SMOOTH",
"1280 0 OFFCURVE",
"1216 0 OFFCURVE",
"1216 0 CURVE SMOOTH",
"1216 0 OFFCURVE",
"1216 0 OFFCURVE",
"1152 0 CURVE SMOOTH",
"1088 0 OFFCURVE",
"1088 64 OFFCURVE",
"1088 64 CURVE SMOOTH",
"1088 128 LINE",
"1152 128 LINE",
"1152 64 LINE",
"1216 64 LINE",
"1216 192 LINE",
"1152 192 LINE",
"1152 256 LINE",
"1216 256 LINE",
"1216 320 LINE",
"1088 320 LINE"
);
},
{
closed = 1;
nodes = (
"768 384 LINE",
"768 384 OFFCURVE",
"768 320 OFFCURVE",
"768 320 CURVE",
"640 320 LINE",
"640 192 LINE",
"768 192 LINE",
"768 128 LINE",
"640 128 LINE",
"640 0 LINE",
"576 0 LINE",
"576 320 LINE",
"576 384 OFFCURVE",
"640 384 OFFCURVE",
"640 384 CURVE"
);
}
